<svg width="250" height="47" viewBox="0 0 250 47" fill="none" xmlns="http://www.w3.org/2000/svg">
<path d="M116.294 14.2727C116.201 14.174 116.176 14.1555 116.161 14.1309C114.547 11.1024 111.931 9.75167 108.566 9.79176C105.506 9.82877 102.865 10.9976 100.804 13.2242C97.3099 17.002 95.9692 21.4645 96.7172 26.4203C97.3472 30.6052 100.836 33.7755 105.094 33.7231C108.585 33.6799 111.369 32.1842 113.597 29.5845C113.687 29.4796 113.777 29.3748 113.938 29.1836L113.355 33.0817H120.214C121.387 25.5291 122.557 17.992 123.73 10.4394H116.871L116.288 14.2696L116.294 14.2727ZM115.133 21.3442C114.807 24.3757 112.635 26.8459 109.761 27.4226C109.336 27.509 108.902 27.5367 108.47 27.5892C105.128 27.5645 102.971 24.9216 103.601 21.5971C104.181 18.5378 106.689 16.2187 109.814 15.9781C113.178 15.7191 115.478 18.1338 115.133 21.3411" fill="#212225"/>
<path d="M213.953 10.8847C213.953 10.8847 213.158 16.0808 212.776 18.5005C212.535 20.0322 212.342 21.5729 212.035 23.0894C211.532 25.5696 209.325 27.4366 206.805 27.3308C205.535 27.2795 204.445 26.8867 203.849 25.6632C203.454 24.8536 203.433 23.9927 203.563 23.1347C204.044 19.8751 204.553 16.6185 205.053 13.3619C205.176 12.5493 205.303 11.7366 205.432 10.8998H198.785L198.776 10.9058C198.179 14.7636 197.58 18.6244 196.987 22.4822C196.695 24.3763 196.481 26.2735 196.882 28.1797C197.397 30.6176 198.685 32.4393 201.097 33.2851C204.514 34.4814 208.518 33.1613 210.689 30.1645C210.779 30.0406 210.876 29.9168 210.969 29.7959C210.99 29.805 211.011 29.8171 211.035 29.8261L210.554 33.0858H217.204C218.342 25.6844 219.474 18.2498 220.609 10.8787C220.609 10.8787 216.027 10.8877 213.959 10.8787" fill="#212225"/>
<path d="M183.237 33.7237H190.415C192.132 23.0952 193.853 12.4666 195.573 1.81323H188.395C186.675 12.448 184.957 23.0734 183.237 33.7237Z" fill="#212225"/>
<path d="M243.345 10.4226L242.73 14.4169C242.637 14.2607 242.586 14.192 242.55 14.1171C241.459 11.9278 239.733 10.56 237.428 10.0416C234.437 9.37012 231.686 10.0665 229.231 11.9029C226.375 14.0359 224.778 17.0214 224.04 20.5317C223.504 23.08 223.431 25.6284 224.353 28.108C225.393 30.9062 227.342 32.652 230.21 33.1485C233.828 33.7762 236.892 32.5333 239.507 29.9568C239.868 29.6008 240.194 29.2011 240.534 28.8201C240.465 29.4572 240.393 30.0911 240.308 30.722C240.179 31.6963 240.025 32.6613 239.811 33.6107C239.404 35.4033 238.266 36.64 236.627 37.3177C234.075 38.3733 231.559 38.1453 229.173 36.793C228.348 36.3246 227.649 35.6157 226.842 34.9817C226.83 34.9911 226.821 35.0004 226.809 35.0129L222.787 40.0253C224.923 42.1052 228.227 43.6043 231.267 43.826C234.5 44.0633 237.573 43.4856 240.417 41.846C243.658 39.9785 245.809 37.1865 246.523 33.3984C246.692 32.5083 246.843 31.6151 246.987 30.722C247.391 28.2423 247.725 25.7502 248.102 23.2643C248.542 20.3599 248.976 17.4555 249.406 14.548C249.608 13.1958 250 10.4163 250 10.4163C250 10.4163 245.294 10.4351 243.351 10.4163L243.345 10.4226ZM235.241 27.3366C232.837 27.3429 231.096 26.0031 230.565 23.6828C230.246 22.2774 230.514 20.9252 231.093 19.6354C232.31 16.9184 235.211 15.3569 238.052 15.8722C240.35 16.2906 241.875 18.3144 241.778 20.819C241.64 24.401 238.706 27.3273 235.241 27.3366Z" fill="#212225"/>
<path d="M175.254 9.99548C171.594 9.32918 168.377 10.3132 165.587 12.6144C164.991 13.108 164.392 13.5984 163.926 13.981L164.486 10.4212L157.274 10.4088C156.789 13.4103 152.133 42.1075 152.032 42.7892H159.212C159.941 38.2732 160.67 33.7787 161.396 29.2781C161.442 29.2905 161.465 29.2874 161.471 29.2966C161.536 29.3984 161.595 29.5002 161.657 29.6051C162.894 31.7243 164.753 33.0939 167.267 33.5412C170.888 34.1828 174.105 33.279 176.879 31.0087C179.256 29.0653 180.698 26.5605 181.48 23.7194C182.222 21.0326 182.463 18.3088 181.591 15.6035C180.624 12.599 178.572 10.597 175.254 9.9924V9.99548ZM174.75 21.3751C174.382 24.4135 172.132 26.8474 169.136 27.4242C168.677 27.5137 168.202 27.5414 167.736 27.6C164.249 27.5568 161.995 24.9194 162.65 21.6218C163.259 18.5494 165.867 16.239 169.156 15.986C172.728 15.7115 175.137 18.1731 174.75 21.3751Z" fill="#212225"/>
<path d="M87.8612 9.99548C84.4218 9.32918 81.3986 10.3132 78.7762 12.6144C78.2132 13.108 77.6532 13.5984 77.2157 13.981L77.742 10.4212L70.9642 10.4088C70.5083 13.4103 66.1326 42.1075 66.0377 42.7892H72.7849C73.4703 38.2732 74.1557 33.7787 74.8381 29.2781C74.8809 29.2905 74.9024 29.2874 74.9085 29.2966C74.9697 29.3984 75.0248 29.5002 75.0829 29.6051C76.2457 31.7243 77.9929 33.0939 80.3552 33.5412C83.7578 34.1828 86.781 33.279 89.3881 31.0087C91.6219 29.0653 92.9774 26.5605 93.7118 23.7194C94.4095 21.0326 94.6359 18.3088 93.8158 15.6035C92.907 12.599 90.9793 10.597 87.8612 9.9924V9.99548ZM87.3869 21.3751C87.0411 24.4135 84.9267 26.8474 82.1116 27.4242C81.6801 27.5137 81.2334 27.5414 80.7958 27.6C77.5186 27.5568 75.4011 24.9194 76.0162 21.6218C76.5884 18.5494 79.0394 16.239 82.1299 15.986C85.4867 15.7115 87.751 18.1731 87.3869 21.3751Z" fill="#212225"/>
<path d="M153.12 10.8939H146.219L137.8 29.6841C136.863 31.778 135.014 31.6867 134.881 29.678L134.096 10.8787H127.358L128.231 31.7719C128.268 32.6423 128.98 33.3271 129.847 33.3271H131.865C132.056 33.3362 132.259 33.3332 132.465 33.3271H133.56C134.884 33.4275 135.79 34.1549 134.017 38.3214C133.247 40.1292 132.505 41.8822 132.12 42.7892H138.645C139.721 40.3787 143.534 31.8541 145.477 27.6206C147.698 22.7755 149.923 17.9334 152.141 13.0912C152.463 12.3882 152.778 11.6578 153.12 10.8969" fill="#212225"/>
<path d="M29.3106 26.979H38.8596C44.2862 26.979 49.048 23.366 50.5045 18.1442L54.2927 4.5556C54.9311 2.26624 53.2079 0 50.8275 0H38.3635C38.6578 0.987763 38.1209 3.40706 37.8232 4.59524L34.1331 17.8029C32.6954 22.6315 30.6711 26.9746 24.3879 26.979H14.5357C9.08701 26.979 4.30646 30.6063 2.84451 35.8491L0 46.0526H16.4607L19.2269 36.1541C20.6646 31.3254 22.6889 26.9823 28.9722 26.9779H29.3117L29.3106 26.979Z" fill="#212225"/>
<path d="M19.902 14.8037L20.1435 13.9644L22.7273 4.57398C23.3602 2.27315 21.6366 0 19.2601 0H7.40979C7.78252 1.2556 6.82532 4.81647 6.70291 5.26047C6.6996 5.27154 6.6974 5.28261 6.69519 5.29479L2.90277 18.8562H14.5348C17.0226 18.8562 19.2116 17.2042 19.902 14.8037Z" fill="#212225"/>
</svg>
