<?xml version="1.0" encoding="utf-8"?>
<!-- Generator: Adobe Illustrator 25.2.3, SVG Export Plug-In . SVG Version: 6.00 Build 0)  -->
<svg width="190px" height="50px" viewBox="0 0 190 40" version="1.1" xmlns="http://www.w3.org/2000/svg" xmlns:xlink="http://www.w3.org/1999/xlink">
<style type="text/css">
	.st0{fill:none;}
	.st1{fill:#B2B2B2;}
	.st2{font-family:'GTWalsheimMedium';}
	.st3{font-size:15px;}
	.st4{fill:#FFFFFF;}
</style>
<rect id="XMLID_4_" x="1.13" y="31.67" class="st0" width="70.4" height="13.64"/>
<text id="XMLID_1_" transform="matrix(1 0 0 1 1.1248 42.3209)" class="st1 st2 st3" style="text-decoration: underline;">sans frais</text>
<g>
	<path class="st1" d="M74.76,0.92c-7.37,0-13.13,5.78-13.13,13.18c0,7.39,5.77,13.18,13.13,13.18c7.35,0,13.11-5.79,13.11-13.18
		C87.87,6.7,82.11,0.92,74.76,0.92 M74.76,22.77c-4.68,0-8.49-3.81-8.49-8.67c0-4.86,3.81-8.68,8.49-8.68
		c4.65,0,8.48,3.82,8.48,8.68C83.24,18.96,79.41,22.77,74.76,22.77 M167.07,0.92l-10.04,24.48l-2.48,6.06l-1.37,3.35h-4.95l3.84-9.4
		L141.82,0.92h5.23l7.51,18.41l7.53-18.41H167.07z M102.37,5.27c-4.64,0-6.99,2.49-6.99,7.4v14.57h-4.76V12.34
		c0.05-2.61,0.51-4.46,1.57-6.2c1.26-1.95,4.26-5.23,10.18-5.23c5.91,0,8.91,3.28,10.17,5.23c1.06,1.73,1.54,3.58,1.56,6.2v14.91
		h-4.76V12.68C109.35,7.76,107,5.27,102.37,5.27 M121.79,11.71c0.63-3.18,3.68-6.29,7.77-6.29c4.09,0,7.13,3.11,7.75,6.29H121.79z
		 M142.32,13.75c-0.04-7.06-5.74-12.8-12.72-12.8c-7.17,0-12.8,5.76-12.8,13.12c0,3.45,1.32,6.73,3.7,9.23
		c2.42,2.53,5.61,3.93,9.01,3.93c3.88,0,9.31-1.86,11.9-7.15c0.06-0.11,0.07-0.17,0.07-0.17h-5.2l-0.03,0.04
		c-1.4,1.67-4.03,2.8-6.54,2.8c-3.19,0-7.01-2.1-8.06-6.85h20.57C142.26,15.41,142.32,14.43,142.32,13.75"/>
	<g>
		<path class="st1" d="M14.46,0.86c-7.48,0-13.33,5.87-13.33,13.38c0,7.5,5.85,13.38,13.33,13.38c7.46,0,13.31-5.88,13.31-13.38
			C27.77,6.73,21.92,0.86,14.46,0.86"/>
		<path class="st4" d="M9.04,15.34c0,1.13,0.64,1.79,1.56,1.79c0.89,0,1.38-0.66,1.38-1.37c0-0.86-0.4-1.44-1.53-1.44H9.51v-1.86
			h0.94c1.07,0,1.38-0.52,1.38-1.28c0-0.79-0.49-1.16-1.19-1.16c-1.03,0-1.32,0.61-1.32,1.52H6.91c0-1.77,1.1-3.33,3.67-3.33
			c1.92,0,3.63,0.97,3.63,2.92c0,1.18-0.7,2.02-1.53,2.31c0.94,0.34,1.7,1.19,1.7,2.52c0,1.98-1.77,3.12-3.75,3.12
			c-2.57,0-4-1.52-4-3.72H9.04z"/>
		<polygon class="st4" points="22.73,18.84 20.09,18.84 18.92,16.76 17.74,18.84 15.11,18.84 17.58,15.22 15.15,11.67 17.79,11.67
			18.92,13.69 20.05,11.67 22.68,11.67 20.27,15.22 		"/>
	</g>
	<g>
		<g>
			<path class="st1" d="M44.5,0.85c-7.48,0-13.33,5.87-13.33,13.38c0,7.5,5.85,13.38,13.33,13.38c7.46,0,13.31-5.88,13.31-13.38
				C57.81,6.72,51.96,0.85,44.5,0.85"/>
			<polygon class="st4" points="52.77,18.83 50.14,18.83 48.96,16.75 47.79,18.83 45.15,18.83 47.62,15.22 45.2,11.66 47.83,11.66
				48.96,13.68 50.09,11.66 52.73,11.66 50.32,15.22 			"/>
		</g>
		<g>
			<path class="st4" d="M40.59,16.09h-4.38V8.17h2.53v5.78h1.84v-3.02h2.52v3.02h1.33v2.14h-1.33v3.02h-2.52V16.09z"/>
		</g>
	</g>
</g>
</svg>
