<?xml version="1.0" encoding="UTF-8"?>
<svg width="200px" height="30px" viewBox="0 0 200 30" version="1.1" xmlns="http://www.w3.org/2000/svg" xmlns:xlink="http://www.w3.org/1999/xlink">
    <title>3x Oney sin intereses_g</title>
    <g id="3x-Oney-sin-intereses_g" stroke="none" stroke-width="1" fill="none" fill-rule="evenodd">
        <g id="Group-17" transform="translate(0.000000, -0.000000)">
            <path d="M37.9449341,0.0549450548 C31.4674196,0.0549450548 26.4020213,5.16483516 26.4020213,11.6941392 C26.4020213,18.2234432 31.47653,23.3424908 37.9449341,23.3424908 C44.4042278,23.3424908 49.4696504,18.2234432 49.4696504,11.6941392 C49.4787364,5.16483516 44.4042278,0.0549450548 37.9449341,0.0549450548 M37.9449341,19.3589744 C33.8270205,19.3589744 30.4834933,15.9981684 30.4834933,11.7032967 C30.4834933,7.40842489 33.8361309,4.03846153 37.9449341,4.03846153 C42.0355164,4.03846153 45.3973012,7.40842489 45.3973012,11.7032967 C45.4063749,15.9890109 42.0355164,19.3589744 37.9449341,19.3589744 M119.082409,0.0549450548 L110.263514,21.6849816 L108.086122,27.0421245 L106.883545,30 L102.537871,30 L105.90873,21.6941391 L96.8894055,0.0549450548 L101.481061,0.0549450548 L108.077012,16.3186813 L114.691183,0.0549450548 L119.082409,0.0549450548 Z M62.2151152,3.9010989 C58.1427537,3.9010989 56.0655761,6.09890109 56.0655761,10.4395604 L56.0655761,23.3058608 L51.8838894,23.3058608 L51.8838894,10.1373626 C51.9203311,7.82967032 52.3303005,6.19963369 53.2686746,4.66117215 C54.3801468,2.93956043 57.0130607,0.0457875457 62.2151152,0.0457875457 C67.4080594,0.0457875457 70.0500836,2.93956043 71.1524455,4.66117215 C72.0817092,6.19047618 72.5007888,7.82967032 72.5281201,10.1373626 L72.5281201,23.3058608 L68.3464335,23.3058608 L68.3464335,10.4395604 C68.3464335,6.09890109 66.2874768,3.9010989 62.2151152,3.9010989 M79.2880579,9.58791206 C79.8437941,6.77655677 82.52226,4.02930403 86.1208792,4.02930403 C89.7103879,4.02930403 92.388854,6.77655677 92.9354796,9.58791206 L79.2880579,9.58791206 Z M97.3267061,11.3919414 C97.2902644,5.15567765 92.2795288,0.0824175823 86.1482105,0.0824175823 C79.8437941,0.0824175823 74.8968315,5.17399266 74.8968315,11.6758242 C74.8968315,14.7252746 76.0629663,17.6190476 78.1492544,19.8351648 C80.2810946,22.0695971 83.0871066,23.3058608 86.0662166,23.3058608 C89.4735168,23.3058608 94.2564918,21.6575091 96.5249884,16.996337 C96.5705405,16.8956044 96.579651,16.8498168 96.579651,16.8498168 L92.0062159,16.8498168 L91.9788846,16.8772894 C90.7489768,18.3516483 88.4349281,19.3498169 86.2302044,19.3498169 C83.4241924,19.3498169 80.0624444,17.4908425 79.1422911,13.2967032 L97.2264914,13.2967032 C97.281154,12.8571428 97.3267061,11.9871795 97.3267061,11.3919414" id="Shape" fill="#B2B2B2" fill-rule="nonzero"></path>
            <g id="Group" transform="translate(123.082409, 9.680656)">
                <line x1="0" y1="11.4492354" x2="73.5201395" y2="11.4492354" id="Line" stroke="#B2B2B2" stroke-width="0.915187715" stroke-linecap="round"></line>
                <g id="sin-intereses" transform="translate(0.386719, 0.000000)" fill="#B2B2B2" fill-rule="nonzero">
                    <path d="M4.79296875,2.59570312 C5.29296875,2.91601562 5.58007812,3.46679688 5.65429688,4.24804688 L3.984375,4.24804688 C3.9609375,4.03320312 3.90039062,3.86328125 3.80273438,3.73828125 C3.61914062,3.51171875 3.30664062,3.3984375 2.86523438,3.3984375 C2.50195312,3.3984375 2.24316406,3.45507812 2.08886719,3.56835938 C1.93457031,3.68164062 1.85742187,3.81445312 1.85742187,3.96679688 C1.85742187,4.15820312 1.93945313,4.296875 2.10351562,4.3828125 C2.26757812,4.47265625 2.84765625,4.62695312 3.84375,4.84570312 C4.5078125,5.00195312 5.00585938,5.23828125 5.33789062,5.5546875 C5.66601562,5.875 5.83007812,6.27539062 5.83007812,6.75585938 C5.83007812,7.38867188 5.59472656,7.90527344 5.12402344,8.30566406 C4.65332031,8.70605469 3.92578125,8.90625 2.94140625,8.90625 C1.9375,8.90625 1.19628906,8.69433594 0.717773438,8.27050781 C0.239257812,7.84667969 0,7.30664062 0,6.65039062 L1.69335938,6.65039062 C1.72851562,6.94726562 1.8046875,7.15820312 1.921875,7.28320312 C2.12890625,7.50585938 2.51171875,7.6171875 3.0703125,7.6171875 C3.3984375,7.6171875 3.65917969,7.56835938 3.85253906,7.47070312 C4.04589844,7.37304688 4.14257812,7.2265625 4.14257812,7.03125 C4.14257812,6.84375 4.06445312,6.70117188 3.90820312,6.60351562 C3.75195312,6.50585938 3.171875,6.33789062 2.16796875,6.09960938 C1.4453125,5.91992188 0.935546875,5.6953125 0.638671875,5.42578125 C0.341796875,5.16015625 0.193359375,4.77734375 0.193359375,4.27734375 C0.193359375,3.6875 0.424804688,3.18066406 0.887695312,2.75683594 C1.35058594,2.33300781 2.00195312,2.12109375 2.84179688,2.12109375 C3.63867187,2.12109375 4.2890625,2.27929688 4.79296875,2.59570312 Z" id="Path"></path>
                    <path d="M8.78320312,2.30273438 L8.78320312,8.68945312 L7.08984375,8.68945312 L7.08984375,2.30273438 L8.78320312,2.30273438 Z M8.78320312,0 L8.78320312,1.54101562 L7.08984375,1.54101562 L7.08984375,0 L8.78320312,0 Z" id="Shape"></path>
                    <path d="M13.40625,3.5390625 C12.8398438,3.5390625 12.4511719,3.77929688 12.2402344,4.25976562 C12.1308594,4.51367188 12.0761719,4.83789062 12.0761719,5.23242188 L12.0761719,8.68945312 L10.4121094,8.68945312 L10.4121094,2.31445312 L12.0234375,2.31445312 L12.0234375,3.24609375 C12.2382812,2.91796875 12.4414062,2.68164062 12.6328125,2.53710938 C12.9765625,2.27929688 13.4121094,2.15039062 13.9394531,2.15039062 C14.5996094,2.15039062 15.1396484,2.32324219 15.5595703,2.66894531 C15.9794922,3.01464844 16.1894531,3.58789062 16.1894531,4.38867188 L16.1894531,8.68945312 L14.4785156,8.68945312 L14.4785156,4.8046875 C14.4785156,4.46875 14.4335938,4.2109375 14.34375,4.03125 C14.1796875,3.703125 13.8671875,3.5390625 13.40625,3.5390625 Z" id="Path"></path>
                    <path d="M22.78125,2.30273438 L22.78125,8.68945312 L21.0878906,8.68945312 L21.0878906,2.30273438 L22.78125,2.30273438 Z M22.78125,0 L22.78125,1.54101562 L21.0878906,1.54101562 L21.0878906,0 L22.78125,0 Z" id="Shape"></path>
                    <path d="M27.4042969,3.5390625 C26.8378906,3.5390625 26.4492188,3.77929688 26.2382812,4.25976562 C26.1289062,4.51367188 26.0742188,4.83789062 26.0742188,5.23242188 L26.0742188,8.68945312 L24.4101562,8.68945312 L24.4101562,2.31445312 L26.0214844,2.31445312 L26.0214844,3.24609375 C26.2363281,2.91796875 26.4394531,2.68164062 26.6308594,2.53710938 C26.9746094,2.27929688 27.4101562,2.15039062 27.9375,2.15039062 C28.5976562,2.15039062 29.1376953,2.32324219 29.5576172,2.66894531 C29.9775391,3.01464844 30.1875,3.58789062 30.1875,4.38867188 L30.1875,8.68945312 L28.4765625,8.68945312 L28.4765625,4.8046875 C28.4765625,4.46875 28.4316406,4.2109375 28.3417969,4.03125 C28.1777344,3.703125 27.8652344,3.5390625 27.4042969,3.5390625 Z" id="Path"></path>
                    <path d="M34.6523438,7.5 L34.6523438,8.74804688 L33.8613281,8.77734375 C33.0722656,8.8046875 32.5332031,8.66796875 32.2441406,8.3671875 C32.0566406,8.17578125 31.9628906,7.88085938 31.9628906,7.48242188 L31.9628906,3.55078125 L31.0722656,3.55078125 L31.0722656,2.36132812 L31.9628906,2.36132812 L31.9628906,0.580078125 L33.6152344,0.580078125 L33.6152344,2.36132812 L34.6523438,2.36132812 L34.6523438,3.55078125 L33.6152344,3.55078125 L33.6152344,6.92578125 C33.6152344,7.1875 33.6484375,7.35058594 33.7148438,7.41503906 C33.78125,7.47949219 33.984375,7.51171875 34.3242188,7.51171875 C34.375,7.51171875 34.4287109,7.51074219 34.4853516,7.50878906 C34.5419922,7.50683594 34.5976562,7.50390625 34.6523438,7.5 Z" id="Path"></path>
                    <path d="M41.1914062,6.81445312 C41.1484375,7.19335938 40.9511719,7.578125 40.5996094,7.96875 C40.0527344,8.58984375 39.2871094,8.90039062 38.3027344,8.90039062 C37.4902344,8.90039062 36.7734375,8.63867188 36.1523438,8.11523438 C35.53125,7.59179688 35.2207031,6.74023438 35.2207031,5.56054688 C35.2207031,4.45507812 35.5009766,3.60742188 36.0615234,3.01757812 C36.6220703,2.42773438 37.3496094,2.1328125 38.2441406,2.1328125 C38.7753906,2.1328125 39.2539062,2.23242188 39.6796875,2.43164062 C40.1054688,2.63085938 40.4570312,2.9453125 40.734375,3.375 C40.984375,3.75390625 41.1464844,4.19335938 41.2207031,4.69335938 C41.2636719,4.98632812 41.28125,5.40820312 41.2734375,5.95898438 L36.9023438,5.95898438 C36.9257812,6.59960938 37.1269531,7.04882812 37.5058594,7.30664062 C37.7363281,7.46679688 38.0136719,7.546875 38.3378906,7.546875 C38.6816406,7.546875 38.9609375,7.44921875 39.1757812,7.25390625 C39.2929688,7.1484375 39.3964844,7.00195312 39.4863281,6.81445312 L41.1914062,6.81445312 Z M39.5390625,4.85742188 C39.5117188,4.41601562 39.3779297,4.08105469 39.1376953,3.85253906 C38.8974609,3.62402344 38.5996094,3.50976562 38.2441406,3.50976562 C37.8574219,3.50976562 37.5576172,3.63085938 37.3447266,3.87304688 C37.1318359,4.11523438 36.9980469,4.44335938 36.9433594,4.85742188 L39.5390625,4.85742188 Z" id="Shape"></path>
                    <path d="M45.609375,3.84375 C44.9375,3.84375 44.4863281,4.0625 44.2558594,4.5 C44.1269531,4.74609375 44.0625,5.125 44.0625,5.63671875 L44.0625,8.68945312 L42.3808594,8.68945312 L42.3808594,2.30273438 L43.9746094,2.30273438 L43.9746094,3.41601562 C44.2324219,2.99023438 44.4570312,2.69921875 44.6484375,2.54296875 C44.9609375,2.28125 45.3671875,2.15039062 45.8671875,2.15039062 C45.8984375,2.15039062 45.9248047,2.15136719 45.9462891,2.15332031 C45.9677734,2.15527344 46.015625,2.15820312 46.0898438,2.16210938 L46.0898438,3.87304688 C45.984375,3.86132812 45.890625,3.85351562 45.8085938,3.84960938 C45.7265625,3.84570312 45.6601562,3.84375 45.609375,3.84375 Z" id="Path"></path>
                    <path d="M52.5351562,6.81445312 C52.4921875,7.19335938 52.2949219,7.578125 51.9433594,7.96875 C51.3964844,8.58984375 50.6308594,8.90039062 49.6464844,8.90039062 C48.8339844,8.90039062 48.1171875,8.63867188 47.4960938,8.11523438 C46.875,7.59179688 46.5644531,6.74023438 46.5644531,5.56054688 C46.5644531,4.45507812 46.8447266,3.60742188 47.4052734,3.01757812 C47.9658203,2.42773438 48.6933594,2.1328125 49.5878906,2.1328125 C50.1191406,2.1328125 50.5976562,2.23242188 51.0234375,2.43164062 C51.4492188,2.63085938 51.8007812,2.9453125 52.078125,3.375 C52.328125,3.75390625 52.4902344,4.19335938 52.5644531,4.69335938 C52.6074219,4.98632812 52.625,5.40820312 52.6171875,5.95898438 L48.2460938,5.95898438 C48.2695312,6.59960938 48.4707031,7.04882812 48.8496094,7.30664062 C49.0800781,7.46679688 49.3574219,7.546875 49.6816406,7.546875 C50.0253906,7.546875 50.3046875,7.44921875 50.5195312,7.25390625 C50.6367188,7.1484375 50.7402344,7.00195312 50.8300781,6.81445312 L52.5351562,6.81445312 Z M50.8828125,4.85742188 C50.8554688,4.41601562 50.7216797,4.08105469 50.4814453,3.85253906 C50.2412109,3.62402344 49.9433594,3.50976562 49.5878906,3.50976562 C49.2011719,3.50976562 48.9013672,3.63085938 48.6884766,3.87304688 C48.4755859,4.11523438 48.3417969,4.44335938 48.2871094,4.85742188 L50.8828125,4.85742188 Z" id="Shape"></path>
                    <path d="M58.1425781,2.59570312 C58.6425781,2.91601562 58.9296875,3.46679688 59.0039062,4.24804688 L57.3339844,4.24804688 C57.3105469,4.03320312 57.25,3.86328125 57.1523438,3.73828125 C56.96875,3.51171875 56.65625,3.3984375 56.2148438,3.3984375 C55.8515625,3.3984375 55.5927734,3.45507812 55.4384766,3.56835938 C55.2841797,3.68164062 55.2070312,3.81445312 55.2070312,3.96679688 C55.2070312,4.15820312 55.2890625,4.296875 55.453125,4.3828125 C55.6171875,4.47265625 56.1972656,4.62695312 57.1933594,4.84570312 C57.8574219,5.00195312 58.3554688,5.23828125 58.6875,5.5546875 C59.015625,5.875 59.1796875,6.27539062 59.1796875,6.75585938 C59.1796875,7.38867188 58.9443359,7.90527344 58.4736328,8.30566406 C58.0029297,8.70605469 57.2753906,8.90625 56.2910156,8.90625 C55.2871094,8.90625 54.5458984,8.69433594 54.0673828,8.27050781 C53.5888672,7.84667969 53.3496094,7.30664062 53.3496094,6.65039062 L55.0429688,6.65039062 C55.078125,6.94726562 55.1542969,7.15820312 55.2714844,7.28320312 C55.4785156,7.50585938 55.8613281,7.6171875 56.4199219,7.6171875 C56.7480469,7.6171875 57.0087891,7.56835938 57.2021484,7.47070312 C57.3955078,7.37304688 57.4921875,7.2265625 57.4921875,7.03125 C57.4921875,6.84375 57.4140625,6.70117188 57.2578125,6.60351562 C57.1015625,6.50585938 56.5214844,6.33789062 55.5175781,6.09960938 C54.7949219,5.91992188 54.2851562,5.6953125 53.9882812,5.42578125 C53.6914062,5.16015625 53.5429688,4.77734375 53.5429688,4.27734375 C53.5429688,3.6875 53.7744141,3.18066406 54.2373047,2.75683594 C54.7001953,2.33300781 55.3515625,2.12109375 56.1914062,2.12109375 C56.9882812,2.12109375 57.6386719,2.27929688 58.1425781,2.59570312 Z" id="Path"></path>
                    <path d="M65.8828125,6.81445312 C65.8398438,7.19335938 65.6425781,7.578125 65.2910156,7.96875 C64.7441406,8.58984375 63.9785156,8.90039062 62.9941406,8.90039062 C62.1816406,8.90039062 61.4648438,8.63867188 60.84375,8.11523438 C60.2226562,7.59179688 59.9121094,6.74023438 59.9121094,5.56054688 C59.9121094,4.45507812 60.1923828,3.60742188 60.7529297,3.01757812 C61.3134766,2.42773438 62.0410156,2.1328125 62.9355469,2.1328125 C63.4667969,2.1328125 63.9453125,2.23242188 64.3710938,2.43164062 C64.796875,2.63085938 65.1484375,2.9453125 65.4257812,3.375 C65.6757812,3.75390625 65.8378906,4.19335938 65.9121094,4.69335938 C65.9550781,4.98632812 65.9726562,5.40820312 65.9648438,5.95898438 L61.59375,5.95898438 C61.6171875,6.59960938 61.8183594,7.04882812 62.1972656,7.30664062 C62.4277344,7.46679688 62.7050781,7.546875 63.0292969,7.546875 C63.3730469,7.546875 63.6523438,7.44921875 63.8671875,7.25390625 C63.984375,7.1484375 64.0878906,7.00195312 64.1777344,6.81445312 L65.8828125,6.81445312 Z M64.2304688,4.85742188 C64.203125,4.41601562 64.0693359,4.08105469 63.8291016,3.85253906 C63.5888672,3.62402344 63.2910156,3.50976562 62.9355469,3.50976562 C62.5488281,3.50976562 62.2490234,3.63085938 62.0361328,3.87304688 C61.8232422,4.11523438 61.6894531,4.44335938 61.6347656,4.85742188 L64.2304688,4.85742188 Z" id="Shape"></path>
                    <path d="M71.4902344,2.59570312 C71.9902344,2.91601562 72.2773438,3.46679688 72.3515625,4.24804688 L70.6816406,4.24804688 C70.6582031,4.03320312 70.5976562,3.86328125 70.5,3.73828125 C70.3164062,3.51171875 70.0039062,3.3984375 69.5625,3.3984375 C69.1992188,3.3984375 68.9404297,3.45507812 68.7861328,3.56835938 C68.6318359,3.68164062 68.5546875,3.81445312 68.5546875,3.96679688 C68.5546875,4.15820312 68.6367188,4.296875 68.8007812,4.3828125 C68.9648438,4.47265625 69.5449219,4.62695312 70.5410156,4.84570312 C71.2050781,5.00195312 71.703125,5.23828125 72.0351562,5.5546875 C72.3632812,5.875 72.5273438,6.27539062 72.5273438,6.75585938 C72.5273438,7.38867188 72.2919922,7.90527344 71.8212891,8.30566406 C71.3505859,8.70605469 70.6230469,8.90625 69.6386719,8.90625 C68.6347656,8.90625 67.8935547,8.69433594 67.4150391,8.27050781 C66.9365234,7.84667969 66.6972656,7.30664062 66.6972656,6.65039062 L68.390625,6.65039062 C68.4257812,6.94726562 68.5019531,7.15820312 68.6191406,7.28320312 C68.8261719,7.50585938 69.2089844,7.6171875 69.7675781,7.6171875 C70.0957031,7.6171875 70.3564453,7.56835938 70.5498047,7.47070312 C70.7431641,7.37304688 70.8398438,7.2265625 70.8398438,7.03125 C70.8398438,6.84375 70.7617188,6.70117188 70.6054688,6.60351562 C70.4492188,6.50585938 69.8691406,6.33789062 68.8652344,6.09960938 C68.1425781,5.91992188 67.6328125,5.6953125 67.3359375,5.42578125 C67.0390625,5.16015625 66.890625,4.77734375 66.890625,4.27734375 C66.890625,3.6875 67.1220703,3.18066406 67.5849609,2.75683594 C68.0478516,2.33300781 68.6992188,2.12109375 69.5390625,2.12109375 C70.3359375,2.12109375 70.9863281,2.27929688 71.4902344,2.59570312 Z" id="Path"></path>
                </g>
            </g>
            <path d="M11.7160109,0 C5.14739202,0 0,5.18315017 0,11.8223443 C0,18.4432234 5.14739202,23.6446886 11.7160109,23.6446886 C18.2755193,23.6446886 23.4138009,18.4523809 23.4138009,11.8223443 C23.4138009,5.18315017 18.2664089,0 11.7160109,0" id="Path" fill="#B2B2B2" fill-rule="nonzero"></path>
            <path d="M6.95125683,12.7930403 C6.95125683,13.7912088 7.51610339,14.3681318 8.32693151,14.3681318 C9.11042835,14.3681318 9.54772892,13.7912088 9.54772892,13.1593406 C9.54772892,12.3992674 9.1924222,11.8864469 8.19938552,11.8864469 L7.37033653,11.8864469 L7.37033653,10.2472527 L8.19938552,10.2472527 C9.13775964,10.2472527 9.41107249,9.78937727 9.41107249,9.11172159 C9.41107249,8.4157509 8.98288236,8.08608056 8.36337323,8.08608056 C7.46144083,8.08608056 7.1972384,8.62637361 7.1972384,9.4230769 L5.08361902,9.4230769 C5.08361902,7.85714284 6.04932442,6.47435896 8.31782109,6.47435896 C10.0032503,6.47435896 11.506471,7.32600731 11.506471,9.04761903 C11.506471,10.0824176 10.8960723,10.8333333 10.1581276,11.0897436 C10.9871766,11.3919414 11.6522379,12.1428571 11.6522379,13.3150183 C11.6522379,15.0641025 10.0943546,16.0714286 8.35426279,16.0714286 C6.09487657,16.0714286 4.83763746,14.7344323 4.83763746,12.7838828 L6.95125683,12.7838828 L6.95125683,12.7930403 Z" id="Path" fill="#FFFFFF" fill-rule="nonzero"></path>
            <polygon id="Path" fill="#FFFFFF" fill-rule="nonzero" points="18.9861326 15.8882783 16.6720839 15.8882783 15.633495 14.0476191 14.6040167 15.8882783 12.2899679 15.8882783 14.4582498 12.6923077 12.3264096 9.55128203 14.6404583 9.55128203 15.633495 11.3369963 16.6356422 9.55128203 18.9496909 9.55128203 16.8269611 12.6923077"></polygon>
        </g>
    </g>
</svg>