<?xml version="1.0" encoding="UTF-8"?>
<svg width="200px" height="30px" viewBox="0 0 200 30" version="1.1" xmlns="http://www.w3.org/2000/svg" xmlns:xlink="http://www.w3.org/1999/xlink">
    <title>3x Oney zonder kosten_v</title>
    <g id="3x-Oney-zonder-kosten_v" stroke="none" stroke-width="1" fill="none" fill-rule="evenodd">
        <g id="Group-17" transform="translate(-0.000000, -0.000000)">
            <path d="M37.9449341,0.0549450548 C31.4674196,0.0549450548 26.4020213,5.16483516 26.4020213,11.6941392 C26.4020213,18.2234432 31.47653,23.3424908 37.9449341,23.3424908 C44.4042278,23.3424908 49.4696504,18.2234432 49.4696504,11.6941392 C49.4787364,5.16483516 44.4042278,0.0549450548 37.9449341,0.0549450548 M37.9449341,19.3589744 C33.8270205,19.3589744 30.4834933,15.9981684 30.4834933,11.7032967 C30.4834933,7.40842489 33.8361309,4.03846153 37.9449341,4.03846153 C42.0355164,4.03846153 45.3973012,7.40842489 45.3973012,11.7032967 C45.4063749,15.9890109 42.0355164,19.3589744 37.9449341,19.3589744 M119.082409,0.0549450548 L110.263514,21.6849816 L108.086122,27.0421245 L106.883545,30 L102.537871,30 L105.90873,21.6941391 L96.8894055,0.0549450548 L101.481061,0.0549450548 L108.077012,16.3186813 L114.691183,0.0549450548 L119.082409,0.0549450548 Z M62.2151152,3.9010989 C58.1427537,3.9010989 56.0655761,6.09890109 56.0655761,10.4395604 L56.0655761,23.3058608 L51.8838894,23.3058608 L51.8838894,10.1373626 C51.9203311,7.82967032 52.3303005,6.19963369 53.2686746,4.66117215 C54.3801468,2.93956043 57.0130607,0.0457875457 62.2151152,0.0457875457 C67.4080594,0.0457875457 70.0500836,2.93956043 71.1524455,4.66117215 C72.0817092,6.19047618 72.5007888,7.82967032 72.5281201,10.1373626 L72.5281201,23.3058608 L68.3464335,23.3058608 L68.3464335,10.4395604 C68.3464335,6.09890109 66.2874768,3.9010989 62.2151152,3.9010989 M79.2880579,9.58791206 C79.8437941,6.77655677 82.52226,4.02930403 86.1208792,4.02930403 C89.7103879,4.02930403 92.388854,6.77655677 92.9354796,9.58791206 L79.2880579,9.58791206 Z M97.3267061,11.3919414 C97.2902644,5.15567765 92.2795288,0.0824175823 86.1482105,0.0824175823 C79.8437941,0.0824175823 74.8968315,5.17399266 74.8968315,11.6758242 C74.8968315,14.7252746 76.0629663,17.6190476 78.1492544,19.8351648 C80.2810946,22.0695971 83.0871066,23.3058608 86.0662166,23.3058608 C89.4735168,23.3058608 94.2564918,21.6575091 96.5249884,16.996337 C96.5705405,16.8956044 96.579651,16.8498168 96.579651,16.8498168 L92.0062159,16.8498168 L91.9788846,16.8772894 C90.7489768,18.3516483 88.4349281,19.3498169 86.2302044,19.3498169 C83.4241924,19.3498169 80.0624444,17.4908425 79.1422911,13.2967032 L97.2264914,13.2967032 C97.281154,12.8571428 97.3267061,11.9871795 97.3267061,11.3919414" id="Shape" fill="#81BC00" fill-rule="nonzero"></path>
            <g id="Group" transform="translate(123.259655, 10.463859)">
                <line x1="0.322753906" y1="10.6660323" x2="73.8428934" y2="10.6660323" id="Line" stroke="#81BC00" stroke-width="0.915187715" stroke-linecap="round"></line>
                <g id="zonder-kosten" fill="#81BC00" fill-rule="nonzero">
                    <polygon id="Path" points="5.05419922 7.90625 0 7.90625 0 6.71386719 3.00244141 3.29785156 0.204101562 3.29785156 0.204101562 2.05175781 4.95214844 2.05175781 4.95214844 3.32470703 1.98193359 6.64941406 5.05419922 6.64941406"></polygon>
                    <path d="M10.9194336,2.79296875 C11.4135742,3.4124349 11.6606445,4.14469401 11.6606445,4.98974609 C11.6606445,5.84912109 11.4135742,6.58406576 10.9194336,7.19458008 C10.425293,7.8050944 9.67513021,8.11035156 8.66894531,8.11035156 C7.66276042,8.11035156 6.91259766,7.8050944 6.41845703,7.19458008 C5.92431641,6.58406576 5.67724609,5.84912109 5.67724609,4.98974609 C5.67724609,4.14469401 5.92431641,3.4124349 6.41845703,2.79296875 C6.91259766,2.1735026 7.66276042,1.86376953 8.66894531,1.86376953 C9.67513021,1.86376953 10.425293,2.1735026 10.9194336,2.79296875 Z M8.66357422,3.15820312 C8.21598307,3.15820312 7.87133789,3.31665039 7.62963867,3.63354492 C7.38793945,3.95043945 7.26708984,4.40250651 7.26708984,4.98974609 C7.26708984,5.57698568 7.38793945,6.02994792 7.62963867,6.34863281 C7.87133789,6.66731771 8.21598307,6.82666016 8.66357422,6.82666016 C9.11116536,6.82666016 9.45491536,6.66731771 9.69482422,6.34863281 C9.93473307,6.02994792 10.0546875,5.57698568 10.0546875,4.98974609 C10.0546875,4.40250651 9.93473307,3.95043945 9.69482422,3.63354492 C9.45491536,3.31665039 9.11116536,3.15820312 8.66357422,3.15820312 Z" id="Shape"></path>
                    <path d="M15.5117188,3.18505859 C14.992513,3.18505859 14.6362305,3.40527344 14.4428711,3.84570312 C14.3426107,4.07845052 14.2924805,4.37565104 14.2924805,4.73730469 L14.2924805,7.90625 L12.7670898,7.90625 L12.7670898,2.0625 L14.2441406,2.0625 L14.2441406,2.91650391 C14.4410807,2.61572266 14.6272786,2.39908854 14.8027344,2.26660156 C15.1178385,2.03027344 15.5170898,1.91210938 16.0004883,1.91210938 C16.6056315,1.91210938 17.1006673,2.07055664 17.4855957,2.38745117 C17.8705241,2.7043457 18.0629883,3.22981771 18.0629883,3.96386719 L18.0629883,7.90625 L16.4946289,7.90625 L16.4946289,4.34521484 C16.4946289,4.03727214 16.4534505,3.80094401 16.3710938,3.63623047 C16.2207031,3.33544922 15.9342448,3.18505859 15.5117188,3.18505859 Z" id="Path"></path>
                    <path d="M24.8037109,0 L24.8037109,7.90625 L23.315918,7.90625 L23.315918,7.09521484 C23.0974935,7.44254557 22.8486328,7.69498698 22.5693359,7.85253906 C22.2900391,8.01009115 21.9427083,8.08886719 21.5273438,8.08886719 C20.8434245,8.08886719 20.2678223,7.81225586 19.8005371,7.2590332 C19.333252,6.70581055 19.0996094,5.99593099 19.0996094,5.12939453 C19.0996094,4.13037109 19.3296712,3.34440104 19.7897949,2.77148438 C20.2499186,2.19856771 20.8649089,1.91210938 21.6347656,1.91210938 C21.9892578,1.91210938 22.304362,1.98999023 22.5800781,2.14575195 C22.8557943,2.30151367 23.0795898,2.5172526 23.2514648,2.79296875 L23.2514648,0 L24.8037109,0 Z M20.6787109,5.01660156 C20.6787109,5.55729167 20.7861328,5.98876953 21.0009766,6.31103516 C21.2122396,6.63688151 21.5345052,6.79980469 21.9677734,6.79980469 C22.4010417,6.79980469 22.7304688,6.63867188 22.9560547,6.31640625 C23.1816406,5.99414062 23.2944336,5.57698568 23.2944336,5.06494141 C23.2944336,4.34879557 23.1136068,3.8367513 22.7519531,3.52880859 C22.5299479,3.34261068 22.2721354,3.24951172 21.9785156,3.24951172 C21.5309245,3.24951172 21.2023926,3.41870117 20.9929199,3.75708008 C20.7834473,4.09545898 20.6787109,4.51529948 20.6787109,5.01660156 Z" id="Shape"></path>
                    <path d="M31.2060547,6.1875 C31.1666667,6.53483073 30.9858398,6.88753255 30.6635742,7.24560547 C30.1622721,7.81494141 29.4604492,8.09960938 28.5581055,8.09960938 C27.8133138,8.09960938 27.15625,7.85970052 26.5869141,7.37988281 C26.0175781,6.9000651 25.7329102,6.11946615 25.7329102,5.03808594 C25.7329102,4.02473958 25.9898275,3.24772135 26.5036621,2.70703125 C27.0174967,2.16634115 27.6844076,1.89599609 28.5043945,1.89599609 C28.9913737,1.89599609 29.430013,1.98730469 29.8203125,2.16992188 C30.210612,2.35253906 30.5328776,2.64078776 30.7871094,3.03466797 C31.016276,3.3819987 31.1648763,3.78483073 31.2329102,4.24316406 C31.2722982,4.51171875 31.2884115,4.8984375 31.28125,5.40332031 L27.2744141,5.40332031 C27.2958984,5.9905599 27.480306,6.40234375 27.8276367,6.63867188 C28.0388997,6.78548177 28.2931315,6.85888672 28.590332,6.85888672 C28.9054362,6.85888672 29.1614583,6.76936849 29.3583984,6.59033203 C29.4658203,6.49365234 29.5607096,6.359375 29.6430664,6.1875 L31.2060547,6.1875 Z M29.6914062,4.39355469 C29.6663411,3.98893229 29.5437012,3.68188477 29.3234863,3.47241211 C29.1032715,3.26293945 28.8302409,3.15820312 28.5043945,3.15820312 C28.1499023,3.15820312 27.8750814,3.26920573 27.6799316,3.49121094 C27.4847819,3.71321615 27.3621419,4.0139974 27.3120117,4.39355469 L29.6914062,4.39355469 Z" id="Shape"></path>
                    <path d="M35.2558594,3.46435547 C34.639974,3.46435547 34.2263997,3.6648763 34.0151367,4.06591797 C33.8969727,4.29150391 33.8378906,4.63883464 33.8378906,5.10791016 L33.8378906,7.90625 L32.2963867,7.90625 L32.2963867,2.05175781 L33.7573242,2.05175781 L33.7573242,3.07226562 C33.9936523,2.68196615 34.1995443,2.41520182 34.375,2.27197266 C34.6614583,2.0320638 35.0338542,1.91210938 35.4921875,1.91210938 C35.5208333,1.91210938 35.5450033,1.91300456 35.5646973,1.91479492 C35.5843913,1.91658529 35.6282552,1.91927083 35.6962891,1.92285156 L35.6962891,3.49121094 C35.5996094,3.48046875 35.5136719,3.47330729 35.4384766,3.46972656 C35.3632812,3.46614583 35.3024089,3.46435547 35.2558594,3.46435547 Z" id="Path"></path>
                    <polygon id="Path" points="45.0205078 7.90625 43.1728516 7.90625 41.7709961 5.40332031 41.137207 6.06396484 41.137207 7.90625 39.6333008 7.90625 39.6333008 0.0161132812 41.137207 0.0161132812 41.137207 4.28076172 43.0439453 2.07861328 44.9399414 2.07861328 42.8935547 4.31835938"></polygon>
                    <path d="M50.6494141,2.79296875 C51.1435547,3.4124349 51.390625,4.14469401 51.390625,4.98974609 C51.390625,5.84912109 51.1435547,6.58406576 50.6494141,7.19458008 C50.1552734,7.8050944 49.4051107,8.11035156 48.3989258,8.11035156 C47.3927409,8.11035156 46.6425781,7.8050944 46.1484375,7.19458008 C45.6542969,6.58406576 45.4072266,5.84912109 45.4072266,4.98974609 C45.4072266,4.14469401 45.6542969,3.4124349 46.1484375,2.79296875 C46.6425781,2.1735026 47.3927409,1.86376953 48.3989258,1.86376953 C49.4051107,1.86376953 50.1552734,2.1735026 50.6494141,2.79296875 Z M48.3935547,3.15820312 C47.9459635,3.15820312 47.6013184,3.31665039 47.3596191,3.63354492 C47.1179199,3.95043945 46.9970703,4.40250651 46.9970703,4.98974609 C46.9970703,5.57698568 47.1179199,6.02994792 47.3596191,6.34863281 C47.6013184,6.66731771 47.9459635,6.82666016 48.3935547,6.82666016 C48.8411458,6.82666016 49.1848958,6.66731771 49.4248047,6.34863281 C49.6647135,6.02994792 49.784668,5.57698568 49.784668,4.98974609 C49.784668,4.40250651 49.6647135,3.95043945 49.4248047,3.63354492 C49.1848958,3.31665039 48.8411458,3.15820312 48.3935547,3.15820312 Z" id="Shape"></path>
                    <path d="M56.5200195,2.3203125 C56.9783529,2.61393229 57.2415365,3.1188151 57.3095703,3.83496094 L55.7788086,3.83496094 C55.7573242,3.63802083 55.7018229,3.48225911 55.6123047,3.36767578 C55.4440104,3.15999349 55.1575521,3.05615234 54.7529297,3.05615234 C54.4199219,3.05615234 54.1826986,3.10807292 54.0412598,3.21191406 C53.899821,3.31575521 53.8291016,3.4375 53.8291016,3.57714844 C53.8291016,3.75260417 53.9042969,3.87972005 54.0546875,3.95849609 C54.2050781,4.04085286 54.7368164,4.18229167 55.6499023,4.3828125 C56.2586263,4.52604167 56.7151693,4.74267578 57.0195312,5.03271484 C57.3203125,5.32633464 57.4707031,5.69335938 57.4707031,6.13378906 C57.4707031,6.71386719 57.2549642,7.18741862 56.8234863,7.55444336 C56.3920085,7.9214681 55.7250977,8.10498047 54.8227539,8.10498047 C53.9025065,8.10498047 53.2230632,7.91072591 52.7844238,7.5222168 C52.3457845,7.13370768 52.1264648,6.63867188 52.1264648,6.03710938 L53.6787109,6.03710938 C53.7109375,6.30924479 53.7807617,6.50260417 53.8881836,6.6171875 C54.0779622,6.82128906 54.4288737,6.92333984 54.940918,6.92333984 C55.2416992,6.92333984 55.4807129,6.87858073 55.657959,6.7890625 C55.8352051,6.69954427 55.9238281,6.56526693 55.9238281,6.38623047 C55.9238281,6.21435547 55.8522135,6.08365885 55.7089844,5.99414062 C55.5657552,5.9046224 55.0340169,5.75065104 54.1137695,5.53222656 C53.4513346,5.36751302 52.9840495,5.16162109 52.7119141,4.91455078 C52.4397786,4.6710612 52.3037109,4.32014974 52.3037109,3.86181641 C52.3037109,3.3211263 52.5158691,2.85652669 52.9401855,2.46801758 C53.364502,2.07950846 53.9615885,1.88525391 54.7314453,1.88525391 C55.4619141,1.88525391 56.0581055,2.03027344 56.5200195,2.3203125 Z" id="Path"></path>
                    <path d="M61.2841797,6.81591797 L61.2841797,7.95996094 L60.559082,7.98681641 C59.8357747,8.01188151 59.3416341,7.88655599 59.0766602,7.61083984 C58.9047852,7.43538411 58.8188477,7.16503906 58.8188477,6.79980469 L58.8188477,3.19580078 L58.0024414,3.19580078 L58.0024414,2.10546875 L58.8188477,2.10546875 L58.8188477,0.47265625 L60.3334961,0.47265625 L60.3334961,2.10546875 L61.2841797,2.10546875 L61.2841797,3.19580078 L60.3334961,3.19580078 L60.3334961,6.28955078 C60.3334961,6.52945964 60.3639323,6.67895508 60.4248047,6.73803711 C60.4856771,6.79711914 60.671875,6.82666016 60.9833984,6.82666016 C61.0299479,6.82666016 61.0791829,6.82576497 61.1311035,6.82397461 C61.1830241,6.82218424 61.2340495,6.8194987 61.2841797,6.81591797 Z" id="Path"></path>
                    <path d="M67.2783203,6.1875 C67.2389323,6.53483073 67.0581055,6.88753255 66.7358398,7.24560547 C66.2345378,7.81494141 65.5327148,8.09960938 64.6303711,8.09960938 C63.8855794,8.09960938 63.2285156,7.85970052 62.6591797,7.37988281 C62.0898438,6.9000651 61.8051758,6.11946615 61.8051758,5.03808594 C61.8051758,4.02473958 62.0620931,3.24772135 62.5759277,2.70703125 C63.0897624,2.16634115 63.7566732,1.89599609 64.5766602,1.89599609 C65.0636393,1.89599609 65.5022786,1.98730469 65.8925781,2.16992188 C66.2828776,2.35253906 66.6051432,2.64078776 66.859375,3.03466797 C67.0885417,3.3819987 67.2371419,3.78483073 67.3051758,4.24316406 C67.3445638,4.51171875 67.3606771,4.8984375 67.3535156,5.40332031 L63.3466797,5.40332031 C63.3681641,5.9905599 63.5525716,6.40234375 63.8999023,6.63867188 C64.1111654,6.78548177 64.3653971,6.85888672 64.6625977,6.85888672 C64.9777018,6.85888672 65.233724,6.76936849 65.4306641,6.59033203 C65.5380859,6.49365234 65.6329753,6.359375 65.715332,6.1875 L67.2783203,6.1875 Z M65.7636719,4.39355469 C65.7386068,3.98893229 65.6159668,3.68188477 65.395752,3.47241211 C65.1755371,3.26293945 64.9025065,3.15820312 64.5766602,3.15820312 C64.222168,3.15820312 63.947347,3.26920573 63.7521973,3.49121094 C63.5570475,3.71321615 63.4344076,4.0139974 63.3842773,4.39355469 L65.7636719,4.39355469 Z" id="Shape"></path>
                    <path d="M71.1401367,3.18505859 C70.620931,3.18505859 70.2646484,3.40527344 70.0712891,3.84570312 C69.9710286,4.07845052 69.9208984,4.37565104 69.9208984,4.73730469 L69.9208984,7.90625 L68.3955078,7.90625 L68.3955078,2.0625 L69.8725586,2.0625 L69.8725586,2.91650391 C70.0694987,2.61572266 70.2556966,2.39908854 70.4311523,2.26660156 C70.7462565,2.03027344 71.1455078,1.91210938 71.6289062,1.91210938 C72.2340495,1.91210938 72.7290853,2.07055664 73.1140137,2.38745117 C73.4989421,2.7043457 73.6914062,3.22981771 73.6914062,3.96386719 L73.6914062,7.90625 L72.1230469,7.90625 L72.1230469,4.34521484 C72.1230469,4.03727214 72.0818685,3.80094401 71.9995117,3.63623047 C71.8491211,3.33544922 71.5626628,3.18505859 71.1401367,3.18505859 Z" id="Path"></path>
                </g>
            </g>
            <path d="M11.7160109,0 C5.14739202,0 0,5.18315017 0,11.8223443 C0,18.4432234 5.14739202,23.6446886 11.7160109,23.6446886 C18.2755193,23.6446886 23.4138009,18.4523809 23.4138009,11.8223443 C23.4138009,5.18315017 18.2664089,0 11.7160109,0" id="Path" fill="#81BC00" fill-rule="nonzero"></path>
            <path d="M6.95125683,12.7930403 C6.95125683,13.7912088 7.51610339,14.3681318 8.32693151,14.3681318 C9.11042835,14.3681318 9.54772892,13.7912088 9.54772892,13.1593406 C9.54772892,12.3992674 9.1924222,11.8864469 8.19938552,11.8864469 L7.37033653,11.8864469 L7.37033653,10.2472527 L8.19938552,10.2472527 C9.13775964,10.2472527 9.41107249,9.78937727 9.41107249,9.11172159 C9.41107249,8.4157509 8.98288236,8.08608056 8.36337323,8.08608056 C7.46144083,8.08608056 7.1972384,8.62637361 7.1972384,9.4230769 L5.08361902,9.4230769 C5.08361902,7.85714284 6.04932442,6.47435896 8.31782109,6.47435896 C10.0032503,6.47435896 11.506471,7.32600731 11.506471,9.04761903 C11.506471,10.0824176 10.8960723,10.8333333 10.1581276,11.0897436 C10.9871766,11.3919414 11.6522379,12.1428571 11.6522379,13.3150183 C11.6522379,15.0641025 10.0943546,16.0714286 8.35426279,16.0714286 C6.09487657,16.0714286 4.83763746,14.7344323 4.83763746,12.7838828 L6.95125683,12.7838828 L6.95125683,12.7930403 Z" id="Path" fill="#FFFFFF" fill-rule="nonzero"></path>
            <polygon id="Path" fill="#FFFFFF" fill-rule="nonzero" points="18.9861326 15.8882783 16.6720839 15.8882783 15.633495 14.0476191 14.6040167 15.8882783 12.2899679 15.8882783 14.4582498 12.6923077 12.3264096 9.55128203 14.6404583 9.55128203 15.633495 11.3369963 16.6356422 9.55128203 18.9496909 9.55128203 16.8269611 12.6923077"></polygon>
        </g>
    </g>
</svg>