<?xml version="1.0" encoding="utf-8"?>
<!-- Generator: Adobe Illustrator 25.2.3, SVG Export Plug-In . SVG Version: 6.00 Build 0)  -->
<svg version="1.1" width="105px" xmlns="http://www.w3.org/2000/svg" xmlns:xlink="http://www.w3.org/1999/xlink" x="0px" y="0px"
	 viewBox="0 0 136.06 48.55">
<style type="text/css">
	.st0{fill:none;}
	.st1{fill:#B2B2B2;}
	.st2{font-family:'GTWalsheimMedium';}
	.st3{font-size:14.4718px;}
	.st4{fill:#FFFFFF;}
</style>
<g>
	<rect id="XMLID_4_" x="1.89" y="33.24" class="st0" width="67.92" height="13.16"/>
	<text id="XMLID_3_" transform="matrix(1 0 0 1 1.8867 43.5151)" class="st1 st2 st3" style="text-decoration: underline;">sans frais</text>
	<g>
		<path class="st1" d="M43.54,4.28c-7.11,0-12.67,5.58-12.67,12.71c0,7.13,5.57,12.72,12.67,12.72c7.09,0,12.65-5.59,12.65-12.72
			C56.2,9.86,50.63,4.28,43.54,4.28 M43.54,25.36c-4.52,0-8.19-3.67-8.19-8.36c0-4.69,3.68-8.37,8.19-8.37
			c4.49,0,8.18,3.68,8.18,8.37C51.73,21.68,48.03,25.36,43.54,25.36 M132.6,4.28l-9.68,23.62l-2.39,5.85l-1.32,3.23h-4.77l3.7-9.07
			l-9.9-23.63h5.04l7.24,17.76l7.26-17.76H132.6z M70.18,8.48c-4.47,0-6.75,2.4-6.75,7.14v14.05h-4.59V15.29
			c0.04-2.52,0.49-4.3,1.52-5.98c1.22-1.88,4.11-5.04,9.82-5.04c5.7,0,8.6,3.16,9.81,5.04c1.02,1.67,1.48,3.46,1.51,5.98v14.38
			h-4.59V15.62C76.91,10.88,74.65,8.48,70.18,8.48 M88.92,14.69c0.61-3.07,3.55-6.07,7.5-6.07c3.94,0,6.88,3,7.48,6.07H88.92z
			 M108.72,16.66c-0.04-6.81-5.54-12.35-12.27-12.35c-6.92,0-12.35,5.56-12.35,12.66c0,3.33,1.28,6.49,3.57,8.91
			c2.34,2.44,5.42,3.79,8.69,3.79c3.74,0,8.99-1.8,11.48-6.89c0.05-0.11,0.06-0.16,0.06-0.16h-5.02l-0.03,0.03
			c-1.35,1.61-3.89,2.7-6.31,2.7c-3.08,0-6.77-2.03-7.78-6.61h19.85C108.67,18.26,108.72,17.31,108.72,16.66"/>
		<g>
			<path class="st1" d="M14.75,4.22c-7.21,0-12.86,5.66-12.86,12.91c0,7.23,5.65,12.91,12.86,12.91c7.2,0,12.84-5.67,12.84-12.91
				C27.59,9.88,21.94,4.22,14.75,4.22"/>
			<path class="st4" d="M9.52,18.19c0,1.09,0.62,1.72,1.51,1.72c0.86,0,1.34-0.63,1.34-1.32c0-0.83-0.39-1.39-1.48-1.39H9.98v-1.79
				h0.91c1.03,0,1.33-0.5,1.33-1.24c0-0.76-0.47-1.12-1.15-1.12c-0.99,0-1.28,0.59-1.28,1.46H7.47c0-1.71,1.06-3.22,3.55-3.22
				c1.85,0,3.5,0.93,3.5,2.81c0,1.13-0.67,1.95-1.48,2.23c0.91,0.33,1.64,1.15,1.64,2.43c0,1.91-1.71,3.01-3.62,3.01
				c-2.48,0-3.86-1.46-3.86-3.59H9.52z"/>
			<polygon class="st4" points="22.73,21.57 20.19,21.57 19.05,19.56 17.92,21.57 15.38,21.57 17.76,18.08 15.42,14.65 17.96,14.65
				19.05,16.6 20.15,14.65 22.69,14.65 20.36,18.08 			"/>
		</g>
	</g>
</g>
</svg>
