<svg xmlns="http://www.w3.org/2000/svg" width="391px" height="60px">
	<path id="logo" style="stroke:none;fill-rule:nonzero;fill:#81bc00;fill-opacity:1" d="M75.727.11C62.8.11 52.69 10.331 52.69 23.39c0 13.055 10.13 23.297 23.04 23.297 12.89 0 22.996-10.242 22.996-23.296C98.747 10.332 88.62.109 75.73.109m0 38.61c-8.218 0-14.894-6.723-14.894-15.313 0-8.586 6.695-15.332 14.894-15.332 8.165 0 14.872 6.746 14.872 15.332.02 8.574-6.707 15.313-14.872 15.313M237.656.113 220.06 43.371l-4.348 10.711L213.312 60h-8.671l6.73-16.61-18-43.28h9.164l13.16 32.527L228.898.109zM124.164 7.81c-8.129 0-12.273 4.39-12.273 13.07v25.734h-8.344v-26.34c.07-4.613.89-7.875 2.762-10.949 2.218-3.445 7.476-9.23 17.855-9.23 10.367 0 15.637 5.785 17.836 9.23 1.855 3.059 2.695 6.336 2.746 10.95v26.34h-8.344V20.874c0-8.676-4.109-13.07-12.238-13.07m34.078 11.37c1.106-5.624 6.453-11.12 13.633-11.12 7.164 0 12.512 5.496 13.602 11.12zm36 3.602C194.168 10.312 184.164.164 171.93.164c-12.582 0-22.457 10.188-22.457 23.188 0 6.097 2.332 11.886 6.492 16.32 4.254 4.469 9.855 6.941 15.8 6.941 6.801 0 16.348-3.3 20.872-12.62.05-.095.086-.192.113-.294h-9.129l-.055.059c-2.457 2.945-7.074 4.945-11.472 4.945-5.602 0-12.309-3.719-14.145-12.105h36.094c.105-.88.2-2.621.2-3.817M23.386 0C10.27 0 0 10.363 0 23.645c0 13.242 10.27 23.644 23.387 23.644 13.09 0 23.34-10.387 23.34-23.644C46.727 10.363 36.457 0 23.387 0"/>
	<path id="number" style="stroke:none;fill-rule:nonzero;fill:#fff;fill-opacity:1" d="M13.875 25.59c0 1.992 1.125 3.144 2.746 3.144 1.563 0 2.434-1.156 2.434-2.414 0-1.523-.711-2.547-2.692-2.547h-1.652v-3.277h1.652c1.871 0 2.422-.918 2.422-2.273 0-1.387-.855-2.051-2.094-2.051-1.8 0-2.324 1.078-2.324 2.672h-4.219c0-3.13 1.926-5.895 6.454-5.895 3.363 0 6.359 1.707 6.359 5.145 0 2.07-1.215 3.574-2.691 4.082 1.656.605 2.984 2.11 2.984 4.457 0 3.496-3.106 5.512-6.582 5.512-4.508 0-7.016-2.676-7.016-6.575h4.219zm24.016 6.187h-4.618l-2.07-3.683-2.055 3.683h-4.625l4.332-6.394-4.253-6.281h4.617l1.984 3.574 1.996-3.574h4.621l-4.234 6.28zm0 0"/>
	<path id="text" style="stroke:none;fill-rule:nonzero;fill:#81bc00;fill-opacity:1" d="M254.84 42.473c2.574 0 4.476-.524 5.703-1.575 1.23-1.05 1.848-2.402 1.848-4.058 0-1.254-.43-2.305-1.286-3.14-.87-.837-2.171-1.458-3.91-1.86-2.597-.574-4.113-.98-4.547-1.211-.425-.23-.644-.594-.644-1.094 0-.394.207-.75.61-1.043.406-.297 1.077-.445 2.027-.445 1.156 0 1.972.297 2.449.894.258.329.418.766.476 1.332h4.364c-.196-2.05-.946-3.484-2.258-4.32-1.313-.836-3.008-1.25-5.094-1.25-2.191 0-3.894.555-5.105 1.664-1.207 1.106-1.813 2.438-1.813 3.985 0 1.304.383 2.308 1.164 3.003.778.704 2.106 1.297 3.996 1.766 2.621.625 4.137 1.066 4.547 1.32.406.258.613.633.613 1.125 0 .508-.25.891-.761 1.149-.504.254-1.18.379-2.043.379-1.457 0-2.453-.285-3-.875-.305-.324-.504-.875-.598-1.657h-4.426c0 1.723.63 3.137 1.875 4.243 1.25 1.113 3.192 1.668 5.813 1.668zm14.867-.043c1.188 0 2.246-.27 3.191-.817a9.134 9.134 0 0 0 2.082-1.668c.032.375.07.711.125 1.008.043.297.137.613.274.953h4.746v-.644a1.554 1.554 0 0 1-.645-.508c-.14-.207-.23-.594-.261-1.168-.02-.645-.028-1.29-.031-1.934V29.98c0-2.011-.708-3.386-2.13-4.113-1.417-.722-3.038-1.086-4.87-1.086-2.801 0-4.786.739-5.938 2.207-.727.946-1.137 2.145-1.223 3.61h4.207c.106-.645.309-1.16.614-1.535.425-.516 1.16-.77 2.187-.77.922 0 1.617.129 2.09.387.477.265.715.738.715 1.425 0 .563-.309.973-.938 1.243-.343.152-.918.28-1.722.379l-1.489.187c-1.687.215-2.96.574-3.828 1.074-1.586.918-2.375 2.41-2.375 4.465 0 1.586.492 2.813 1.48 3.676.981.863 2.231 1.297 3.739 1.297zm1.29-3.176a2.38 2.38 0 0 1-1.513-.5c-.41-.336-.617-.871-.617-1.621 0-.84.336-1.461 1.008-1.86.398-.234 1.063-.433 1.98-.597l.977-.18a7.343 7.343 0 0 0 1.16-.3c.281-.11.555-.25.828-.423v1.625c-.027 1.461-.437 2.47-1.226 3.02a4.402 4.402 0 0 1-2.598.836zm16.448 2.652v-9.054c0-1.036.14-1.883.426-2.547.55-1.262 1.57-1.887 3.05-1.887 1.204 0 2.02.426 2.446 1.289.238.469.356 1.14.356 2.02v10.18h4.472V30.64c0-2.102-.55-3.602-1.652-4.5-1.094-.91-2.504-1.36-4.23-1.36-1.38 0-2.516.336-3.415 1.012-.5.375-1.03.996-1.593 1.86v-2.446h-4.207v16.7zm21.438.567c2.57 0 4.472-.524 5.703-1.575 1.226-1.05 1.844-2.402 1.844-4.058 0-1.254-.43-2.305-1.282-3.14-.87-.837-2.171-1.458-3.91-1.86-2.601-.574-4.12-.98-4.547-1.211-.425-.23-.644-.594-.644-1.094 0-.394.207-.75.601-1.043.407-.297 1.086-.445 2.036-.445 1.152 0 1.968.297 2.449.894.258.329.418.766.476 1.332h4.364c-.192-2.05-.95-3.484-2.258-4.32-1.313-.836-3.008-1.25-5.09-1.25-2.195 0-3.898.555-5.11 1.664-1.21 1.106-1.816 2.438-1.816 3.985 0 1.304.387 2.308 1.164 3.003.774.704 2.11 1.297 4 1.766 2.621.625 4.137 1.066 4.547 1.32.41.258.613.633.613 1.125 0 .508-.253.891-.761 1.149-.504.254-1.188.379-2.043.379-1.461 0-2.461-.285-3-.875-.305-.324-.504-.875-.598-1.657H301.2c0 1.723.617 3.137 1.871 4.243 1.254 1.113 3.188 1.668 5.813 1.668zm24.562-.567V28.418h2.864v-3.086h-2.864v-1.414c0-.328.106-.629.328-.895.22-.27.618-.402 1.196-.382a13.1 13.1 0 0 1 1.234.066v-3.559c-.39-.035-.695-.054-.918-.07-.25-.015-.504-.023-.754-.023-2.418 0-3.945.504-4.578 1.504-.601.675-.902 1.906-.902 3.699v1.074h-2.39v3.086h2.433v13.488zm9.723 0v-8c0-1.34.168-2.328.508-2.976.601-1.14 1.781-1.715 3.535-1.715.137 0 .309.004.52.012.218.011.464.035.738.062v-4.48c-.196-.012-.32-.016-.375-.024-.059-.004-.13-.004-.211-.004-1.305 0-2.363.34-3.184 1.024-.496.414-1.09 1.172-1.762 2.293V25.18h-4.164v16.726zm11.941.52c1.188 0 2.25-.27 3.192-.813a9.219 9.219 0 0 0 2.082-1.668c.031.375.07.711.125 1.008.043.297.137.613.273.953h4.746v-.644a1.554 1.554 0 0 1-.644-.508c-.14-.207-.227-.594-.258-1.168-.02-.645-.031-1.29-.035-1.934V29.98c0-2.011-.707-3.386-2.125-4.113-1.422-.722-3.043-1.086-4.875-1.086-2.8 0-4.785.739-5.938 2.207-.726.946-1.136 2.145-1.222 3.61h4.207c.105-.645.308-1.16.613-1.535.43-.516 1.16-.77 2.188-.77.921 0 1.617.129 2.09.387.48.265.714.738.714 1.425 0 .563-.308.973-.937 1.243-.344.152-.918.28-1.727.379l-1.484.187c-1.688.215-2.961.574-3.828 1.074-1.586.918-2.375 2.41-2.375 4.465 0 1.586.492 2.813 1.48 3.676.984.863 2.23 1.297 3.738 1.297zm1.29-3.172c-.59 0-1.094-.172-1.504-.5-.418-.336-.622-.871-.622-1.621 0-.84.332-1.461 1.008-1.86.399-.234 1.059-.433 1.977-.597l.976-.18a7.343 7.343 0 0 0 1.16-.3c.282-.11.555-.25.833-.423v1.625c-.032 1.461-.442 2.47-1.23 3.02a4.41 4.41 0 0 1-2.599.836zm16.554-16.07v-4.036h-4.426v4.036zm0 18.722v-16.73h-4.426v16.73zm10.89.57c2.567 0 4.47-.527 5.7-1.578 1.234-1.05 1.848-2.402 1.848-4.058 0-1.254-.434-2.305-1.286-3.14-.867-.837-2.171-1.458-3.902-1.86-2.605-.574-4.121-.98-4.555-1.211-.425-.23-.636-.594-.636-1.094 0-.394.199-.75.601-1.043.403-.297 1.078-.445 2.032-.445 1.152 0 1.964.297 2.445.894.258.329.414.766.473 1.332h4.367c-.192-2.05-.95-3.484-2.258-4.32-1.313-.836-3.008-1.25-5.094-1.25-2.191 0-3.894.555-5.105 1.664-1.207 1.106-1.817 2.438-1.817 3.985 0 1.304.395 2.308 1.164 3.003.782.704 2.106 1.297 3.996 1.766 2.63.625 4.145 1.066 4.547 1.32.414.258.617.633.617 1.125 0 .508-.253.891-.753 1.149-.512.254-1.188.379-2.051.379-1.457 0-2.457-.285-3-.875-.305-.324-.504-.875-.598-1.657h-4.426c0 1.723.63 3.137 1.88 4.243 1.245 1.113 3.183 1.668 5.812 1.668zm-137.698 1.212v1.546h144.253v-1.547zm0 0"/>
</svg>