<svg xmlns="http://www.w3.org/2000/svg" width="444px" height="60px">
    <path id="logo" style="stroke:none;fill-rule:nonzero;fill:#81bc00;fill-opacity:1" d="M128.621.11c-12.934 0-23.047 10.218-23.047 23.277 0 13.058 10.133 23.297 23.047 23.297 12.899 0 23.012-10.239 23.012-23.297C151.648 10.328 141.52.109 128.62.109m0 38.61c-8.223 0-14.898-6.723-14.898-15.313s6.695-15.328 14.898-15.328c8.168 0 14.879 6.738 14.879 15.328.02 8.57-6.71 15.313-14.879 15.313M290.617.109l-17.605 43.262-4.348 10.715L266.262 60h-8.676l6.73-16.613L246.31.109h9.168l13.168 32.528L281.852.109zM177.078 7.801c-8.129 0-12.277 4.398-12.277 13.078v25.734h-8.348v-26.34c.07-4.613.89-7.875 2.762-10.949C161.437 5.88 166.69.09 177.078.09c10.367 0 15.645 5.789 17.844 9.234 1.855 3.059 2.691 6.336 2.746 10.95v26.34h-8.348V20.878c0-8.68-4.11-13.078-12.242-13.078m34.09 11.375c1.11-5.621 6.457-11.117 13.64-11.117 7.169 0 12.516 5.496 13.606 11.117zm36.012 3.61C247.11 10.311 237.105.163 224.863.163c-12.586 0-22.465 10.184-22.465 23.188 0 6.097 2.329 11.886 6.493 16.32 4.257 4.469 9.859 6.941 15.808 6.941 6.805 0 16.352-3.297 20.883-12.62.09-.2.11-.294.11-.294h-9.133l-.055.055c-2.457 2.95-7.074 4.945-11.477 4.945-5.601 0-12.316-3.719-14.152-12.105h36.105c.11-.88.2-2.621.2-3.809M76.254 0c-13.113 0-23.39 10.367-23.39 23.645 0 13.242 10.277 23.644 23.39 23.644 13.098 0 23.355-10.383 23.355-23.644C99.61 10.367 89.332 0 76.254 0"/>
    <path style="stroke:none;fill-rule:nonzero;fill:#fff;fill-opacity:1" d="m84.074 28.094-2.054 3.683h-4.622l4.332-6.394-4.257-6.281h4.62l1.981 3.574 2-3.574h4.621l-4.238 6.28 4.313 6.395h-4.622zM61.617 14.379h4.387v10.004h3.187v-5.227h4.371v5.227h2.305v3.703h-2.305v5.223h-4.37v-5.223h-7.575zm0 0"/>
    <path id="text" style="stroke:none;fill-rule:nonzero;fill:#81bc00;fill-opacity:1" d="M307.809 42.473c2.574 0 4.476-.524 5.707-1.575 1.23-1.046 1.843-2.402 1.843-4.058 0-1.258-.43-2.305-1.285-3.145-.87-.828-2.172-1.449-3.906-1.86-2.606-.57-4.121-.976-4.55-1.21-.43-.227-.645-.586-.645-1.09 0-.398.203-.746.605-1.043.402-.297 1.082-.445 2.031-.445 1.153 0 1.97.297 2.45.89.257.329.414.774.476 1.336h4.363c-.191-2.046-.945-3.488-2.257-4.32-1.313-.836-3.012-1.25-5.094-1.25-2.195 0-3.899.555-5.11 1.664-1.21 1.11-1.816 2.438-1.816 3.98 0 1.313.39 2.313 1.164 3.008.777.708 2.11 1.297 4 1.766 2.625.625 4.14 1.066 4.55 1.32.407.258.614.63.614 1.121 0 .512-.254.895-.758 1.149-.507.258-1.187.387-2.046.387-1.461 0-2.461-.293-3.004-.875-.305-.328-.504-.88-.598-1.66h-4.426c0 1.718.625 3.136 1.875 4.246 1.254 1.109 3.192 1.664 5.817 1.664zm14.875-.047c1.183 0 2.246-.27 3.187-.813a9.045 9.045 0 0 0 2.082-1.672c.031.38.07.715.121 1.012.051.297.145.613.278.953h4.75v-.644c-.29-.133-.5-.305-.645-.508-.144-.203-.23-.594-.262-1.168a77.384 77.384 0 0 1-.03-1.934V29.98c0-2.015-.708-3.386-2.13-4.113-1.418-.726-3.043-1.09-4.87-1.09-2.81 0-4.79.739-5.946 2.211-.723.942-1.133 2.145-1.223 3.606h4.211c.102-.645.309-1.157.613-1.535.43-.512 1.16-.766 2.192-.766.918 0 1.617.129 2.09.39.476.262.714.735.714 1.422 0 .563-.312.977-.937 1.243-.348.152-.922.28-1.73.382l-1.485.184c-1.687.215-2.96.574-3.832 1.074-1.582.922-2.375 2.41-2.375 4.465 0 1.586.496 2.813 1.48 3.676.985.867 2.235 1.297 3.747 1.297zm1.285-3.176c-.59 0-1.094-.168-1.508-.5-.414-.332-.621-.871-.621-1.617 0-.84.336-1.457 1.012-1.86.398-.234 1.058-.433 1.976-.597l.98-.184c.489-.09.876-.191 1.157-.297.281-.11.558-.25.836-.425v1.628c-.031 1.461-.442 2.47-1.235 3.024a4.455 4.455 0 0 1-2.597.828zm16.453 2.656v-9.054c0-1.036.144-1.883.43-2.547.55-1.262 1.566-1.89 3.05-1.89 1.203 0 2.02.429 2.45 1.288.234.473.351 1.149.351 2.027v10.176h4.473V30.641c0-2.098-.547-3.598-1.645-4.504-1.097-.907-2.511-1.36-4.238-1.36-1.379 0-2.516.34-3.414 1.016-.5.379-1.031.996-1.594 1.855v-2.441h-4.215v16.7zm21.45.567c2.573 0 4.476-.524 5.706-1.575 1.23-1.046 1.844-2.402 1.844-4.058 0-1.258-.426-2.305-1.285-3.145-.867-.828-2.172-1.449-3.907-1.86-2.605-.57-4.12-.976-4.55-1.21-.43-.227-.645-.586-.645-1.09 0-.398.203-.746.606-1.043.406-.297 1.082-.445 2.03-.445 1.153 0 1.97.297 2.45.89.258.329.414.774.477 1.336h4.367c-.195-2.046-.95-3.488-2.262-4.32-1.312-.836-3.008-1.25-5.094-1.25-2.195 0-3.898.555-5.109 1.664-1.21 1.11-1.813 2.438-1.813 3.98 0 1.313.387 2.313 1.165 3.008.773.708 2.105 1.297 3.996 1.766 2.625.625 4.14 1.066 4.55 1.32.41.258.614.63.614 1.121 0 .512-.254.895-.758 1.149-.508.258-1.188.387-2.047.387-1.46 0-2.46-.293-3.004-.875-.305-.328-.504-.88-.594-1.66h-4.43c0 1.718.626 3.136 1.88 4.246 1.25 1.109 3.187 1.664 5.812 1.664zm24.57-.567V28.414h2.867v-3.082h-2.868v-1.414c0-.324.114-.625.332-.895.22-.273.618-.402 1.196-.386.574.015.988.039 1.23.07v-3.559a82.947 82.947 0 0 0-.918-.07 10.804 10.804 0 0 0-.75-.023c-2.422 0-3.949.5-4.582 1.504-.601.675-.902 1.906-.902 3.699v1.074h-2.39v3.082h2.437v13.492zm9.73 0V33.91c0-1.34.168-2.332.504-2.976.605-1.149 1.785-1.72 3.539-1.72.133 0 .308.005.523.016.211.008.457.028.735.06v-4.481a4.945 4.945 0 0 1-.375-.024 2.969 2.969 0 0 0-.207-.008c-1.309 0-2.371.344-3.188 1.032-.5.406-1.086 1.168-1.762 2.285v-2.918h-4.168v16.73zm11.95.52c1.183 0 2.245-.27 3.187-.813a9.045 9.045 0 0 0 2.082-1.672c.03.38.07.715.12 1.012.051.297.145.613.278.953h4.75v-.644a1.599 1.599 0 0 1-.644-.508c-.145-.203-.23-.594-.262-1.168a75.296 75.296 0 0 1-.028-1.934V29.98c0-2.015-.71-3.386-2.132-4.113-1.418-.726-3.043-1.09-4.871-1.09-2.809 0-4.79.739-5.942 2.211-.726.942-1.137 2.145-1.226 3.606h4.21c.102-.645.31-1.157.614-1.535.43-.512 1.16-.766 2.191-.766.918 0 1.617.129 2.09.39.477.262.715.735.715 1.422 0 .563-.313.977-.938 1.243-.343.152-.921.28-1.73.382l-1.484.184c-1.684.215-2.961.574-3.832 1.074-1.582.922-2.372 2.41-2.372 4.465 0 1.586.493 2.813 1.477 3.676.984.867 2.234 1.297 3.746 1.297zm1.284-3.176c-.59 0-1.094-.168-1.508-.5-.414-.332-.62-.871-.62-1.617 0-.84.335-1.457 1.011-1.86.399-.234 1.059-.433 1.977-.597l.98-.184c.488-.09.875-.191 1.156-.297.282-.11.559-.25.836-.425v1.628c-.031 1.461-.441 2.47-1.234 3.024a4.455 4.455 0 0 1-2.598.828zm16.563-16.066v-4.036h-4.43v4.036zm0 18.722v-16.73h-4.43v16.73zm10.89.567c2.575 0 4.477-.524 5.707-1.575 1.23-1.046 1.848-2.402 1.848-4.058 0-1.258-.43-2.305-1.289-3.145-.867-.828-2.168-1.449-3.906-1.86-2.602-.57-4.121-.976-4.551-1.21-.426-.227-.64-.586-.64-1.09 0-.398.199-.746.605-1.043.402-.297 1.078-.445 2.027-.445 1.156 0 1.973.297 2.453.89.254.329.414.774.473 1.336h4.367c-.195-2.046-.945-3.488-2.258-4.32-1.312-.836-3.011-1.25-5.093-1.25-2.2 0-3.903.555-5.11 1.664-1.21 1.11-1.816 2.438-1.816 3.98 0 1.313.387 2.313 1.164 3.008.777.708 2.11 1.297 4 1.766 2.625.625 4.14 1.066 4.547 1.32.41.258.613.63.613 1.121 0 .512-.25.895-.758 1.149-.504.258-1.187.387-2.043.387-1.46 0-2.465-.293-3.004-.875-.308-.328-.507-.88-.597-1.66h-4.426c0 1.718.625 3.136 1.875 4.246 1.25 1.109 3.187 1.664 5.812 1.664zM443.422 45.234v-1.547H299.105v1.547zM23.465 0C10.309 0 0 10.367 0 23.645c0 13.242 10.309 23.644 23.465 23.644 13.137 0 23.426-10.383 23.426-23.644C46.89 10.367 36.582 0 23.465 0"/>
    <path style="stroke:none;fill-rule:nonzero;fill:#fff;fill-opacity:1" d="M13.879 25.586c0 1.996 1.129 3.148 2.746 3.148 1.566 0 2.438-1.152 2.438-2.414 0-1.523-.711-2.547-2.692-2.547h-1.656v-3.277h1.656c1.875 0 2.418-.918 2.418-2.273 0-1.391-.855-2.051-2.09-2.051-1.8 0-2.328 1.082-2.328 2.676h-4.223c0-3.133 1.93-5.899 6.457-5.899 3.368 0 6.368 1.703 6.368 5.145 0 2.07-1.22 3.574-2.692 4.086 1.657.605 2.985 2.105 2.985 4.449 0 3.5-3.114 5.516-6.586 5.516-4.512 0-7.02-2.676-7.02-6.579h4.219zM31.215 28.094l-2.059 3.683H24.54l4.328-6.394-4.258-6.281h4.621l1.985 3.574 2-3.574h4.62l-4.237 6.28 4.308 6.395h-4.62zm0 0"/>
</svg>