<svg xmlns="http://www.w3.org/2000/svg" width="392" height="60">
<path style="stroke:none;fill-rule:nonzero;fill:#B2B2B2;fill-opacity:1" d="M75.816.11c-12.941 0-23.062 10.218-23.062 23.277 0 13.058 10.137 23.297 23.062 23.297 12.907 0 23.028-10.239 23.028-23.297C98.864 10.328 88.723.109 75.816.109m0 38.61c-8.226 0-14.91-6.723-14.91-15.313s6.7-15.328 14.91-15.328c8.172 0 14.891 6.738 14.891 15.328.016 8.57-6.719 15.313-14.89 15.313M237.933.109l-17.621 43.262-4.352 10.715L213.559 60h-8.684l6.738-16.613L193.59.109h9.176l13.18 32.528L229.16.109zM124.309 7.801c-8.137 0-12.286 4.398-12.286 13.078v25.734h-8.355v-26.34c.07-4.613.89-7.875 2.766-10.949C108.656 5.88 113.914.09 124.309.09c10.375 0 15.656 5.789 17.859 9.234 1.855 3.059 2.691 6.336 2.746 10.95v26.34h-8.355V20.878c0-8.68-4.114-13.078-12.25-13.078m34.113 11.375c1.11-5.621 6.46-11.117 13.652-11.117 7.172 0 12.524 5.496 13.617 11.117zm36.043 3.61C194.39 10.311 184.379.163 172.129.163c-12.598 0-22.48 10.184-22.48 23.188 0 6.097 2.328 11.886 6.5 16.32 4.257 4.469 9.863 6.941 15.816 6.941 6.808 0 16.363-3.297 20.898-12.62.09-.2.11-.294.11-.294h-9.141l-.055.055c-2.457 2.95-7.078 4.945-11.484 4.945-5.606 0-12.324-3.719-14.16-12.105h36.133c.109-.88.199-2.621.199-3.809M23.41 0C10.285 0 0 10.367 0 23.645c0 13.242 10.285 23.644 23.41 23.644 13.106 0 23.371-10.383 23.371-23.644C46.781 10.367 36.496 0 23.411 0"/>
<path style="stroke:none;fill-rule:nonzero;fill:#fff;fill-opacity:1" d="m31.238 28.094-2.058 3.683h-4.625l4.332-6.394-4.258-6.281h4.625l1.984 3.574 2-3.574h4.625l-4.242 6.28 4.313 6.395h-4.621zM16.344 28.086H8.762V14.379h4.39v10.004h3.192v-5.227h4.37v5.227h2.31v3.703h-2.31v5.223h-4.37zm0 0"/>
<path style="stroke:none;fill-rule:nonzero;fill:#B2B2B2;fill-opacity:1" d="M255.137 42.473c2.574 0 4.476-.524 5.71-1.575 1.231-1.046 1.848-2.402 1.848-4.058 0-1.258-.43-2.305-1.289-3.145-.87-.828-2.172-1.449-3.91-1.86-2.605-.57-4.125-.976-4.555-1.21-.43-.227-.64-.586-.64-1.09 0-.398.199-.746.605-1.043.403-.297 1.078-.445 2.031-.445 1.153 0 1.973.297 2.454.89.254.329.414.774.472 1.336h4.371c-.195-2.046-.949-3.488-2.261-4.32-1.313-.836-3.012-1.25-5.098-1.25-2.2 0-3.902.555-5.113 1.664-1.211 1.11-1.817 2.438-1.817 3.98 0 1.313.387 2.313 1.164 3.008.778.708 2.11 1.297 4.004 1.766 2.625.625 4.145 1.066 4.551 1.32.41.258.613.63.613 1.121 0 .512-.254.895-.757 1.149-.508.258-1.188.387-2.047.387-1.461 0-2.465-.293-3.004-.875-.309-.328-.508-.88-.598-1.66h-4.434c0 1.718.63 3.136 1.88 4.246 1.253 1.109 3.19 1.664 5.82 1.664zm14.886-.047c1.184 0 2.247-.27 3.188-.813a9.15 9.15 0 0 0 2.086-1.672c.031.38.07.715.121 1.012.05.297.144.613.277.953h4.75v-.644c-.285-.133-.5-.305-.64-.508-.145-.203-.23-.594-.262-1.168a77.384 77.384 0 0 1-.031-1.934V29.98c0-2.015-.711-3.386-2.133-4.113-1.418-.726-3.043-1.09-4.875-1.09-2.809 0-4.793.739-5.945 2.211-.727.942-1.137 2.145-1.227 3.606h4.215c.101-.645.305-1.157.613-1.535.43-.512 1.16-.766 2.192-.766.921 0 1.617.129 2.093.39.477.262.711.735.711 1.422 0 .563-.308.977-.933 1.243-.348.152-.926.28-1.735.382l-1.484.184c-1.688.215-2.965.574-3.832 1.074-1.586.922-2.379 2.41-2.379 4.465 0 1.586.492 2.813 1.48 3.676.985.867 2.235 1.297 3.75 1.297zm1.286-3.176c-.594 0-1.094-.168-1.508-.5-.414-.332-.621-.871-.621-1.617 0-.84.336-1.457 1.011-1.86.399-.234 1.059-.433 1.977-.597l.98-.184a6.99 6.99 0 0 0 1.16-.297c.278-.11.56-.25.833-.425v1.628c-.028 1.461-.442 2.47-1.235 3.024-.789.55-1.656.828-2.597.828zm16.464 2.656v-9.054c0-1.036.145-1.883.43-2.547.555-1.262 1.57-1.89 3.05-1.89 1.208 0 2.024.429 2.454 1.288.234.473.356 1.149.356 2.027v10.176h4.476V30.641c0-2.098-.55-3.598-1.648-4.504-1.102-.907-2.512-1.36-4.239-1.36-1.382 0-2.52.34-3.422 1.016-.5.379-1.03.996-1.593 1.855v-2.441h-4.215v16.7zm21.465.567c2.575 0 4.48-.524 5.711-1.575 1.23-1.046 1.848-2.402 1.848-4.058 0-1.258-.43-2.305-1.29-3.145-.866-.828-2.171-1.449-3.905-1.86-2.61-.57-4.125-.976-4.555-1.21-.43-.227-.645-.586-.645-1.09 0-.398.203-.746.606-1.043.402-.297 1.082-.445 2.031-.445 1.156 0 1.973.297 2.453.89.254.329.414.774.477 1.336h4.367c-.191-2.046-.945-3.488-2.262-4.32-1.312-.836-3.012-1.25-5.097-1.25-2.196 0-3.899.555-5.114 1.664-1.21 1.11-1.816 2.438-1.816 3.98 0 1.313.39 2.313 1.168 3.008.777.708 2.11 1.297 4 1.766 2.625.625 4.144 1.066 4.555 1.32.406.258.613.63.613 1.121 0 .512-.254.895-.762 1.149-.504.258-1.187.387-2.047.387-1.46 0-2.46-.293-3.004-.875-.304-.328-.504-.88-.597-1.66h-4.43c0 1.718.625 3.136 1.879 4.246 1.25 1.109 3.191 1.664 5.816 1.664zm24.59-.567V28.414h2.867v-3.082h-2.867v-1.414c0-.324.113-.625.332-.895.219-.273.617-.402 1.195-.386.579.015.989.039 1.235.07v-3.559c-.39-.03-.695-.054-.922-.07a10.804 10.804 0 0 0-.75-.023c-2.422 0-3.95.5-4.582 1.504-.606.675-.906 1.906-.906 3.699v1.074h-2.39v3.082h2.437v13.492zm9.738 0V33.91c0-1.34.168-2.332.504-2.976.606-1.149 1.785-1.72 3.543-1.72.133 0 .305.005.52.016.215.008.46.028.738.06v-4.481a5.28 5.28 0 0 1-.379-.024 2.873 2.873 0 0 0-.207-.008c-1.305 0-2.37.344-3.187 1.032-.5.406-1.09 1.168-1.762 2.285v-2.918h-4.172v16.73zm11.957.52c1.184 0 2.25-.27 3.188-.813a8.984 8.984 0 0 0 2.086-1.672c.031.38.07.715.121 1.012.055.297.144.613.277.953h4.754v-.644a1.599 1.599 0 0 1-.644-.508c-.145-.203-.23-.594-.262-1.168a77.384 77.384 0 0 1-.031-1.934V29.98c0-2.015-.707-3.386-2.13-4.113-1.421-.726-3.046-1.09-4.874-1.09-2.813 0-4.793.739-5.95 2.211-.726.942-1.132 2.145-1.226 3.606h4.215c.101-.645.308-1.157.613-1.535.43-.512 1.16-.766 2.195-.766.918 0 1.618.129 2.09.39.477.262.715.735.715 1.422 0 .563-.312.977-.937 1.243-.348.152-.922.28-1.73.382l-1.49.184c-1.687.215-2.964.574-3.831 1.074-1.586.922-2.375 2.41-2.375 4.465 0 1.586.492 2.813 1.476 3.676.989.867 2.239 1.297 3.75 1.297zm1.29-3.176c-.594 0-1.098-.168-1.512-.5-.414-.332-.621-.871-.621-1.617 0-.84.336-1.457 1.011-1.86.399-.234 1.059-.433 1.977-.597l.984-.184c.489-.09.875-.191 1.157-.297.28-.11.558-.25.836-.425v1.628c-.032 1.461-.442 2.47-1.235 3.024-.793.55-1.66.828-2.598.828zm16.57-16.066v-4.036h-4.43v4.036zm0 18.722v-16.73h-4.43v16.73zm10.902.567c2.574 0 4.477-.524 5.711-1.575 1.23-1.046 1.848-2.402 1.848-4.058 0-1.258-.43-2.305-1.29-3.145-.866-.828-2.171-1.449-3.91-1.86-2.605-.57-4.124-.976-4.55-1.21-.43-.227-.645-.586-.645-1.09 0-.398.2-.746.606-1.043.402-.297 1.078-.445 2.03-.445 1.153 0 1.974.297 2.454.89.254.329.414.774.473 1.336h4.37c-.195-2.046-.948-3.488-2.26-4.32-1.313-.836-3.013-1.25-5.099-1.25-2.195 0-3.902.555-5.113 1.664-1.21 1.11-1.816 2.438-1.816 3.98 0 1.313.386 2.313 1.164 3.008.777.708 2.113 1.297 4.004 1.766 2.625.625 4.144 1.066 4.55 1.32.41.258.614.63.614 1.121 0 .512-.25.895-.758 1.149-.504.258-1.188.387-2.047.387-1.46 0-2.46-.293-3.004-.875-.308-.328-.508-.88-.597-1.66h-4.43c0 1.718.625 3.136 1.875 4.246 1.254 1.109 3.191 1.664 5.82 1.664zM390.852 45.234v-1.547H246.426v1.547zm0 0"/>
		</svg>