<?xml version="1.0" encoding="utf-8"?>
<!-- Generator: Adobe Illustrator 25.2.3, SVG Export Plug-In . SVG Version: 6.00 Build 0)  -->
<svg version="1.1" width="105px" xmlns="http://www.w3.org/2000/svg" xmlns:xlink="http://www.w3.org/1999/xlink" x="0px" y="0px"
	 viewBox="0 0 136.06 48.55">
<style type="text/css">
	.st0{fill:none;}
	.st1{fill:#81BC00;}
	.st2{font-family:'GTWalsheimMedium';}
	.st3{font-size:15px;}
	.st4{fill:#FFFFFF;}
</style>
	<g>
	<rect id="XMLID_3_" x="0.9" y="32.33" class="st0" width="70.4" height="13.64"/>
		<text id="XMLID_5_" transform="matrix(1 0 0 1 0.8966 42.9832)" class="st1 st2 st3" style="text-decoration: underline;">sans frais</text>
		<g>
		<path class="st1" d="M44.49,2.7c-7.37,0-13.13,5.78-13.13,13.18c0,7.39,5.77,13.18,13.13,13.18c7.35,0,13.11-5.79,13.11-13.18
			C57.6,8.48,51.83,2.7,44.49,2.7 M44.49,24.55c-4.68,0-8.49-3.81-8.49-8.67c0-4.86,3.81-8.68,8.49-8.68c4.65,0,8.48,3.82,8.48,8.68
			C52.97,20.74,49.14,24.55,44.49,24.55 M136.8,2.7l-10.04,24.48l-2.48,6.06l-1.37,3.35h-4.95l3.84-9.4L111.54,2.7h5.23l7.51,18.41
			l7.53-18.41H136.8z M72.1,7.05c-4.64,0-6.99,2.49-6.99,7.4v14.57h-4.76V14.12c0.05-2.61,0.51-4.46,1.57-6.2
			c1.26-1.95,4.26-5.23,10.18-5.23c5.91,0,8.91,3.28,10.17,5.23c1.06,1.73,1.54,3.58,1.56,6.2v14.91h-4.76V14.46
			C79.08,9.54,76.73,7.05,72.1,7.05 M91.52,13.49c0.63-3.18,3.68-6.29,7.77-6.29c4.09,0,7.13,3.11,7.75,6.29H91.52z M112.04,15.53
			C112,8.47,106.3,2.73,99.33,2.73c-7.17,0-12.8,5.76-12.8,13.12c0,3.45,1.32,6.73,3.7,9.23c2.42,2.53,5.61,3.93,9.01,3.93
			c3.88,0,9.31-1.86,11.9-7.15c0.06-0.11,0.07-0.17,0.07-0.17H106l-0.03,0.04c-1.4,1.67-4.03,2.8-6.54,2.8
			c-3.19,0-7.01-2.1-8.06-6.85h20.57C111.99,17.19,112.04,16.21,112.04,15.53"/>
			<g>
			<g>
				<path class="st1" d="M14.23,2.63C6.75,2.63,0.9,8.5,0.9,16c0,7.5,5.85,13.38,13.33,13.38c7.46,0,13.31-5.88,13.31-13.38
					C27.54,8.5,21.69,2.63,14.23,2.63"/>
				<polygon class="st4" points="22.5,20.61 19.87,20.61 18.69,18.53 17.52,20.61 14.88,20.61 17.35,16.99 14.93,13.44 17.56,13.44
					18.69,15.46 19.82,13.44 22.46,13.44 20.05,16.99 				"/>
			</g>
				<g>
				<path class="st4" d="M10.32,17.87H5.95V9.95h2.53v5.78h1.84v-3.02h2.52v3.02h1.33v2.14h-1.33v3.02h-2.52V17.87z"/>
			</g>
		</g>
	</g>
</g>
</svg>
