<?xml version="1.0" encoding="UTF-8"?>
<svg width="170px" height="25px" viewBox="0 0 400 63" version="1.1" xmlns="http://www.w3.org/2000/svg" xmlns:xlink="http://www.w3.org/1999/xlink">
	<title>Oney4x</title>
	<g id="Oney4x" stroke="none" stroke-width="1" fill="none" fill-rule="evenodd">
		<g id="Group-2-Copy-2" fill-rule="nonzero">
			<g id="Group">
				<path d="M79.6843617,0.115384615 C66.0815811,0.115384615 55.444245,10.8461538 55.444245,24.5576923 C55.444245,38.2692308 66.100713,49.0192308 79.6843617,49.0192308 C93.2488785,49.0192308 103.88624,38.2692308 103.88624,24.5576923 C103.905347,10.8461538 93.2488785,0.115384615 79.6843617,0.115384615 M79.6843617,40.6538462 C71.0367431,40.6538462 64.015336,33.5961538 64.015336,24.5769231 C64.015336,15.5576923 71.055875,8.48076923 79.6843617,8.48076923 C88.2745846,8.48076923 95.3342943,15.5576923 95.3342943,24.5769231 C95.3533875,33.5769231 88.2745846,40.6538462 79.6843617,40.6538462 M250.073059,0.115384615 L231.553381,45.5384615 L226.980857,56.7884615 L224.455446,63 L215.32953,63 L222.408333,45.5576923 L203.467752,0.115384615 L213.110229,0.115384615 L226.961725,34.2692308 L240.851484,0.115384615 L250.073059,0.115384615 Z M130.651742,8.19230769 C122.099783,8.19230769 117.73771,12.8076923 117.73771,21.9230769 L117.73771,48.9423077 L108.956168,48.9423077 L108.956168,21.2884615 C109.032696,16.4423077 109.893631,13.0192308 111.864217,9.78846154 C114.198309,6.17307692 119.727428,0.0961538462 130.651742,0.0961538462 C141.556925,0.0961538462 147.105176,6.17307692 149.420136,9.78846154 C151.371589,13 152.251657,16.4423077 152.309053,21.2884615 L152.309053,48.9423077 L143.527511,48.9423077 L143.527511,21.9230769 C143.527511,12.8076923 139.203701,8.19230769 130.651742,8.19230769 M166.504922,20.1346154 C167.671968,14.2307692 173.296746,8.46153846 180.853847,8.46153846 C188.391815,8.46153846 194.016594,14.2307692 195.164508,20.1346154 L166.504922,20.1346154 Z M204.386083,23.9230769 C204.309556,10.8269231 193.787011,0.173076923 180.911242,0.173076923 C167.671968,0.173076923 157.283346,10.8653846 157.283346,24.5192308 C157.283346,30.9230769 159.73223,37 164.113435,41.6538462 C168.590299,46.3461538 174.482924,48.9423077 180.739055,48.9423077 C187.894386,48.9423077 197.938633,45.4807692 202.702476,35.6923077 C202.798136,35.4807692 202.817267,35.3846154 202.817267,35.3846154 L193.213054,35.3846154 L193.155658,35.4423077 C190.572852,38.5384615 185.713349,40.6346154 181.083429,40.6346154 C175.190804,40.6346154 168.131133,36.7307692 166.198812,27.9230769 L204.175632,27.9230769 C204.290424,27 204.386083,25.1730769 204.386083,23.9230769" id="Shape" fill="#81BC00"></path>
				<g id="Group-3">
					<path d="M24.6036229,0 C10.8095233,0 0,10.8846154 0,24.8269231 C0,38.7307692 10.8095233,49.6538462 24.6036229,49.6538462 C38.3785905,49.6538462 49.1689819,38.75 49.1689819,24.8269231 C49.1689819,10.8846154 38.3594587,0 24.6036229,0" id="Path" fill="#81BC00"></path>
					<polygon id="Path" fill="#FFFFFF" points="39.8708787 33.3653846 35.0113762 33.3653846 32.8303397 29.5 30.668435 33.3653846 25.8089325 33.3653846 30.3623246 26.6538462 25.8854601 20.0576923 30.7449626 20.0576923 32.8303397 23.8076923 34.9348486 20.0576923 39.7943511 20.0576923 35.3366185 26.6538462"></polygon>
					<g id="Group" transform="translate(9.208164, 15.099140)" fill="#FFFFFF">
						<polygon id="Path" points="7.9682525 14.3892336 0 14.3892336 0 0 4.61319882 0 4.61319882 10.5012336 7.9682525 10.5012336 7.9682525 5.01442991 12.5632173 5.01442991 12.5632173 10.5012336 14.9883377 10.5012336 14.9883377 14.3892336 12.5632173 14.3892336 12.5632173 19.8760374 7.9682525 19.8760374"></polygon>
					</g>
				</g>
			</g>
			<g id="sans-frais" transform="translate(259.000000, 20.007324)" fill="#81BC00">
				<path d="M9.15234375,24.5888672 C11.859375,24.5888672 13.8601074,24.0383301 15.154541,22.9372559 C16.4489746,21.8361816 17.0961914,20.4155273 17.0961914,18.675293 C17.0961914,17.3540039 16.6450195,16.2529297 15.7426758,15.3720703 C14.8295898,14.5019531 13.4599609,13.8520508 11.6337891,13.4223633 C8.89453125,12.8208008 7.29931641,12.3964844 6.84814453,12.1494141 C6.39697266,11.9130859 6.17138672,11.5317383 6.17138672,11.0053711 C6.17138672,10.5864258 6.38354492,10.2211914 6.80786133,9.90966797 C7.23217773,9.59814453 7.94384766,9.44238281 8.94287109,9.44238281 C10.1567383,9.44238281 11.0161133,9.75390625 11.5209961,10.3769531 C11.7895508,10.7207031 11.9560547,11.1879883 12.0205078,11.7788086 L12.0205078,11.7788086 L16.612793,11.7788086 C16.4086914,9.63037109 15.6164551,8.1184082 14.236084,7.24291992 C12.8557129,6.36743164 11.0698242,5.9296875 8.87841797,5.9296875 C6.56884766,5.9296875 4.77758789,6.51245117 3.50463867,7.67797852 C2.23168945,8.84350586 1.59521484,10.2373047 1.59521484,11.859375 C1.59521484,13.234375 2.00341797,14.2871094 2.81982422,15.0175781 C3.63623047,15.7587891 5.03808594,16.3764648 7.02539062,16.8706055 C9.78613281,17.5258789 11.3813477,17.987793 11.8110352,18.2563477 C12.2407227,18.5249023 12.4555664,18.9169922 12.4555664,19.4326172 C12.4555664,19.9697266 12.1896973,20.3725586 11.657959,20.6411133 C11.1262207,20.909668 10.4091797,21.0439453 9.50683594,21.0439453 C7.97070312,21.0439453 6.91796875,20.737793 6.34863281,20.1254883 C6.02636719,19.7817383 5.81689453,19.2016602 5.72021484,18.3852539 L5.72021484,18.3852539 L1.06347656,18.3852539 C1.06347656,20.1899414 1.72143555,21.6750488 3.03735352,22.8405762 C4.35327148,24.0061035 6.39160156,24.5888672 9.15234375,24.5888672 Z M24.7983398,24.5405273 C26.0444336,24.5405273 27.1616211,24.2558594 28.1499023,23.6865234 C28.9770508,23.203125 29.7075195,22.6176758 30.3413086,21.9301758 C30.3735352,22.3276367 30.4165039,22.6821289 30.4702148,22.9936523 C30.5239258,23.3051758 30.6206055,23.6381836 30.7602539,23.9926758 L30.7602539,23.9926758 L35.7553711,23.9926758 L35.7553711,23.315918 C35.4545898,23.1762695 35.2290039,22.9990234 35.0786133,22.7841797 C34.9282227,22.5693359 34.8369141,22.1611328 34.8046875,21.5595703 C34.7832031,20.7646484 34.7724609,20.0878906 34.7724609,19.5292969 L34.7724609,19.5292969 L34.7724609,11.4726562 C34.7724609,9.35644531 34.0258789,7.91699219 32.5327148,7.15429688 C31.0395508,6.39160156 29.331543,6.01025391 27.4086914,6.01025391 C24.4545898,6.01025391 22.3706055,6.78369141 21.1567383,8.33056641 C20.394043,9.31884766 19.9643555,10.5810547 19.8676758,12.1171875 L19.8676758,12.1171875 L24.2988281,12.1171875 C24.40625,11.4404297 24.6210938,10.9033203 24.9433594,10.5058594 C25.3945312,9.96875 26.1625977,9.70019531 27.2475586,9.70019531 C28.2143555,9.70019531 28.9475098,9.8371582 29.4470215,10.111084 C29.9465332,10.3850098 30.1962891,10.8818359 30.1962891,11.6015625 C30.1962891,12.1923828 29.8686523,12.6274414 29.2133789,12.9067383 C28.8481445,13.0678711 28.2412109,13.2021484 27.3925781,13.3095703 L27.3925781,13.3095703 L25.8295898,13.5029297 C24.0571289,13.7285156 22.7143555,14.1044922 21.8012695,14.6308594 C20.1362305,15.5976562 19.3037109,17.1606445 19.3037109,19.3198242 C19.3037109,20.9848633 19.8220215,22.2712402 20.8586426,23.1789551 C21.8952637,24.0866699 23.2084961,24.5405273 24.7983398,24.5405273 Z M26.1518555,21.2050781 C25.5288086,21.2050781 24.9997559,21.0305176 24.5646973,20.6813965 C24.1296387,20.3322754 23.9121094,19.765625 23.9121094,18.9814453 C23.9121094,18.1005859 24.2666016,17.4506836 24.9755859,17.0317383 C25.3945312,16.784668 26.0874023,16.5751953 27.0541992,16.4033203 L27.0541992,16.4033203 L28.0854492,16.2099609 C28.6010742,16.1132812 29.0065918,16.0085449 29.302002,15.895752 C29.5974121,15.782959 29.8901367,15.6352539 30.1801758,15.4526367 L30.1801758,15.4526367 L30.1801758,17.1606445 C30.1479492,18.6967773 29.7155762,19.7548828 28.8830566,20.3349609 C28.0505371,20.9150391 27.1401367,21.2050781 26.1518555,21.2050781 Z M43.4575195,23.9926758 L43.4575195,14.4858398 C43.4575195,13.4008789 43.6079102,12.5092773 43.9086914,11.8110352 C44.4887695,10.4897461 45.5576172,9.82910156 47.1152344,9.82910156 C48.3828125,9.82910156 49.2421875,10.2802734 49.6933594,11.1826172 C49.9404297,11.6767578 50.0639648,12.3857422 50.0639648,13.3095703 L50.0639648,13.3095703 L50.0639648,23.9926758 L54.769043,23.9926758 L54.769043,12.1655273 C54.769043,9.96337891 54.1916504,8.38696289 53.0368652,7.4362793 C51.8820801,6.4855957 50.3969727,6.01025391 48.581543,6.01025391 C47.1313477,6.01025391 45.9335938,6.36474609 44.9882812,7.07373047 C44.4619141,7.47119141 43.9033203,8.12109375 43.3125,9.0234375 L43.3125,9.0234375 L43.3125,6.46142578 L38.8813477,6.46142578 L38.8813477,23.9926758 L43.4575195,23.9926758 Z M66.0161133,24.5888672 C68.7231445,24.5888672 70.723877,24.0383301 72.0183105,22.9372559 C73.3127441,21.8361816 73.9599609,20.4155273 73.9599609,18.675293 C73.9599609,17.3540039 73.5087891,16.2529297 72.6064453,15.3720703 C71.6933594,14.5019531 70.3237305,13.8520508 68.4975586,13.4223633 C65.7583008,12.8208008 64.1630859,12.3964844 63.7119141,12.1494141 C63.2607422,11.9130859 63.0351562,11.5317383 63.0351562,11.0053711 C63.0351562,10.5864258 63.2473145,10.2211914 63.6716309,9.90966797 C64.0959473,9.59814453 64.8076172,9.44238281 65.8066406,9.44238281 C67.0205078,9.44238281 67.8798828,9.75390625 68.3847656,10.3769531 C68.6533203,10.7207031 68.8198242,11.1879883 68.8842773,11.7788086 L68.8842773,11.7788086 L73.4765625,11.7788086 C73.2724609,9.63037109 72.4802246,8.1184082 71.0998535,7.24291992 C69.7194824,6.36743164 67.9335938,5.9296875 65.7421875,5.9296875 C63.4326172,5.9296875 61.6413574,6.51245117 60.3684082,7.67797852 C59.095459,8.84350586 58.4589844,10.2373047 58.4589844,11.859375 C58.4589844,13.234375 58.8671875,14.2871094 59.6835938,15.0175781 C60.5,15.7587891 61.9018555,16.3764648 63.8891602,16.8706055 C66.6499023,17.5258789 68.2451172,17.987793 68.6748047,18.2563477 C69.1044922,18.5249023 69.3193359,18.9169922 69.3193359,19.4326172 C69.3193359,19.9697266 69.0534668,20.3725586 68.5217285,20.6411133 C67.9899902,20.909668 67.2729492,21.0439453 66.3706055,21.0439453 C64.8344727,21.0439453 63.7817383,20.737793 63.2124023,20.1254883 C62.8901367,19.7817383 62.6806641,19.2016602 62.5839844,18.3852539 L62.5839844,18.3852539 L57.9272461,18.3852539 C57.9272461,20.1899414 58.5852051,21.6750488 59.901123,22.8405762 C61.217041,24.0061035 63.2553711,24.5888672 66.0161133,24.5888672 Z M91.8618164,23.9926758 L91.8618164,9.82910156 L94.875,9.82910156 L94.875,6.59033203 L91.8618164,6.59033203 L91.8618164,6.59033203 L91.8618164,5.10791016 C91.8618164,4.76416016 91.9772949,4.44995117 92.208252,4.1652832 C92.439209,3.88061523 92.8581543,3.74633789 93.4650879,3.76245117 C94.0720215,3.77856445 94.5043945,3.80273438 94.762207,3.83496094 L94.762207,3.83496094 L94.762207,0.0966796875 C94.3540039,0.064453125 94.0317383,0.0402832031 93.7954102,0.0241699219 C93.559082,0.00805664062 93.2958984,0 93.0058594,0 C90.4599609,0 88.8540039,0.526367188 88.1879883,1.57910156 C87.5541992,2.28808594 87.2373047,3.58251953 87.2373047,5.46240234 L87.2373047,5.46240234 L87.2373047,6.59033203 L84.7236328,6.59033203 L84.7236328,9.82910156 L87.2856445,9.82910156 L87.2856445,23.9926758 L91.8618164,23.9926758 Z M102.09375,23.9926758 L102.09375,15.5976562 C102.09375,14.1904297 102.270996,13.1484375 102.625488,12.4716797 C103.259277,11.2685547 104.5,10.6669922 106.347656,10.6669922 C106.487305,10.6669922 106.669922,10.6723633 106.895508,10.6831055 C107.121094,10.6938477 107.378906,10.715332 107.668945,10.7475586 L107.668945,10.7475586 L107.668945,6.04248047 C107.464844,6.03173828 107.333252,6.02368164 107.27417,6.01831055 C107.215088,6.01293945 107.142578,6.01025391 107.056641,6.01025391 C105.681641,6.01025391 104.564453,6.37011719 103.705078,7.08984375 C103.178711,7.51953125 102.561035,8.31982422 101.852051,9.49072266 L101.852051,9.49072266 L101.852051,6.42919922 L97.4692383,6.42919922 L97.4692383,23.9926758 L102.09375,23.9926758 Z M114.662109,24.5405273 C115.908203,24.5405273 117.025391,24.2558594 118.013672,23.6865234 C118.84082,23.203125 119.571289,22.6176758 120.205078,21.9301758 C120.237305,22.3276367 120.280273,22.6821289 120.333984,22.9936523 C120.387695,23.3051758 120.484375,23.6381836 120.624023,23.9926758 L120.624023,23.9926758 L125.619141,23.9926758 L125.619141,23.315918 C125.318359,23.1762695 125.092773,22.9990234 124.942383,22.7841797 C124.791992,22.5693359 124.700684,22.1611328 124.668457,21.5595703 C124.646973,20.7646484 124.63623,20.0878906 124.63623,19.5292969 L124.63623,11.4726562 C124.63623,9.35644531 123.889648,7.91699219 122.396484,7.15429688 C120.90332,6.39160156 119.195312,6.01025391 117.272461,6.01025391 C114.318359,6.01025391 112.234375,6.78369141 111.020508,8.33056641 C110.257812,9.31884766 109.828125,10.5810547 109.731445,12.1171875 L109.731445,12.1171875 L114.162598,12.1171875 C114.27002,11.4404297 114.484863,10.9033203 114.807129,10.5058594 C115.258301,9.96875 116.026367,9.70019531 117.111328,9.70019531 C118.078125,9.70019531 118.811279,9.8371582 119.310791,10.111084 C119.810303,10.3850098 120.060059,10.8818359 120.060059,11.6015625 C120.060059,12.1923828 119.732422,12.6274414 119.077148,12.9067383 C118.711914,13.0678711 118.10498,13.2021484 117.256348,13.3095703 L117.256348,13.3095703 L115.693359,13.5029297 C113.920898,13.7285156 112.578125,14.1044922 111.665039,14.6308594 C110,15.5976562 109.16748,17.1606445 109.16748,19.3198242 C109.16748,20.9848633 109.685791,22.2712402 110.722412,23.1789551 C111.759033,24.0866699 113.072266,24.5405273 114.662109,24.5405273 Z M116.015625,21.2050781 C115.392578,21.2050781 114.863525,21.0305176 114.428467,20.6813965 C113.993408,20.3322754 113.775879,19.765625 113.775879,18.9814453 C113.775879,18.1005859 114.130371,17.4506836 114.839355,17.0317383 C115.258301,16.784668 115.951172,16.5751953 116.917969,16.4033203 L116.917969,16.4033203 L117.949219,16.2099609 C118.464844,16.1132812 118.870361,16.0085449 119.165771,15.895752 C119.461182,15.782959 119.753906,15.6352539 120.043945,15.4526367 L120.043945,15.4526367 L120.043945,17.1606445 C120.011719,18.6967773 119.579346,19.7548828 118.746826,20.3349609 C117.914307,20.9150391 117.003906,21.2050781 116.015625,21.2050781 Z M133.434082,4.33447266 L133.434082,0.0966796875 L128.777344,0.0966796875 L128.777344,4.33447266 L133.434082,4.33447266 Z M133.434082,23.9926758 L133.434082,6.42919922 L128.777344,6.42919922 L128.777344,23.9926758 L133.434082,23.9926758 Z M144.890625,24.5888672 C147.597656,24.5888672 149.598389,24.0383301 150.892822,22.9372559 C152.187256,21.8361816 152.834473,20.4155273 152.834473,18.675293 C152.834473,17.3540039 152.383301,16.2529297 151.480957,15.3720703 C150.567871,14.5019531 149.198242,13.8520508 147.37207,13.4223633 C144.632812,12.8208008 143.037598,12.3964844 142.586426,12.1494141 C142.135254,11.9130859 141.909668,11.5317383 141.909668,11.0053711 C141.909668,10.5864258 142.121826,10.2211914 142.546143,9.90966797 C142.970459,9.59814453 143.682129,9.44238281 144.681152,9.44238281 C145.89502,9.44238281 146.754395,9.75390625 147.259277,10.3769531 C147.527832,10.7207031 147.694336,11.1879883 147.758789,11.7788086 L147.758789,11.7788086 L152.351074,11.7788086 C152.146973,9.63037109 151.354736,8.1184082 149.974365,7.24291992 C148.593994,6.36743164 146.808105,5.9296875 144.616699,5.9296875 C142.307129,5.9296875 140.515869,6.51245117 139.24292,7.67797852 C137.969971,8.84350586 137.333496,10.2373047 137.333496,11.859375 C137.333496,13.234375 137.741699,14.2871094 138.558105,15.0175781 C139.374512,15.7587891 140.776367,16.3764648 142.763672,16.8706055 C145.524414,17.5258789 147.119629,17.987793 147.549316,18.2563477 C147.979004,18.5249023 148.193848,18.9169922 148.193848,19.4326172 C148.193848,19.9697266 147.927979,20.3725586 147.39624,20.6411133 C146.864502,20.909668 146.147461,21.0439453 145.245117,21.0439453 C143.708984,21.0439453 142.65625,20.737793 142.086914,20.1254883 C141.764648,19.7817383 141.555176,19.2016602 141.458496,18.3852539 L141.458496,18.3852539 L136.801758,18.3852539 C136.801758,20.1899414 137.459717,21.6750488 138.775635,22.8405762 C140.091553,24.0061035 142.129883,24.5888672 144.890625,24.5888672 Z" id="sansfrais"></path>
				<polygon id="Decoration" points="0 25.862793 0 27.4902344 151.790996 27.4902344 151.790996 25.862793"></polygon>
			</g>
		</g>
	</g>
</svg>
