<?xml version="1.0" encoding="UTF-8" standalone="no"?>
<svg
   xmlns:dc="http://purl.org/dc/elements/1.1/"
   xmlns:cc="http://creativecommons.org/ns#"
   xmlns:rdf="http://www.w3.org/1999/02/22-rdf-syntax-ns#"
   xmlns:svg="http://www.w3.org/2000/svg"
   xmlns="http://www.w3.org/2000/svg"
   xmlns:sodipodi="http://sodipodi.sourceforge.net/DTD/sodipodi-0.dtd"
   xmlns:inkscape="http://www.inkscape.org/namespaces/inkscape"
   width="209"
   height="31.848"
   viewBox="0 0 209 31.848"
   version="1.1"
   id="svg49"
   sodipodi:docname="Planche_logo2.svg"
   inkscape:version="1.0.2 (e86c870879, 2021-01-15)">
  <metadata
     id="metadata55">
    <rdf:RDF>
      <cc:Work
         rdf:about="">
        <dc:format>image/svg+xml</dc:format>
        <dc:type
           rdf:resource="http://purl.org/dc/dcmitype/StillImage" />
        <dc:title>Planche logo 2</dc:title>
      </cc:Work>
    </rdf:RDF>
  </metadata>
  <defs
     id="defs53" />
  <sodipodi:namedview
     pagecolor="#ffffff"
     bordercolor="#666666"
     borderopacity="1"
     objecttolerance="10"
     gridtolerance="10"
     guidetolerance="10"
     inkscape:pageopacity="0"
     inkscape:pageshadow="2"
     inkscape:window-width="1920"
     inkscape:window-height="1006"
     id="namedview51"
     showgrid="false"
     inkscape:zoom="3.631746"
     inkscape:cx="157.5"
     inkscape:cy="24"
     inkscape:window-x="0"
     inkscape:window-y="0"
     inkscape:window-maximized="1"
     inkscape:current-layer="svg49" />
  <title
     id="title2">Planche logo 2</title>
  <g
     id="Planche-logo-2"
     stroke="none"
     stroke-width="1"
     fill="none"
     fill-rule="evenodd"
     transform="scale(0.6635)">
    <g
       id="Group-5">
      <g
         id="Group-3"
         transform="translate(80)">
        <rect
           id="Rectangle-Copy-2"
           stroke="#888888"
           fill="#ffffff"
           x="0.5"
           y="0.5"
           width="74"
           height="47"
           rx="6" />
        <g
           id="Mastercard-logo-Copy"
           transform="translate(13,5)"
           fill-rule="nonzero">
          <g
             id="g15"
             transform="translate(2,32)"
             fill="#000000">
            <path
               d="M 6.4114286,5.9117647 V 3.2647059 c 0,-1.0147059 -0.5866667,-1.6764706 -1.592381,-1.6764706 -0.5028571,0 -1.047619,0.1764706 -1.4247619,0.75 -0.2933333,-0.4852941 -0.7123809,-0.75 -1.3409524,-0.75 -0.4190476,0 -0.8380952,0.1323529 -1.1733333,0.6176471 V 1.6764706 H 0 V 5.9117647 H 0.88 V 3.5735294 c 0,-0.75 0.3771429,-1.1029412 0.9638095,-1.1029412 0.5866667,0 0.88,0.3970589 0.88,1.1029412 v 2.3382353 h 0.88 V 3.5735294 c 0,-0.75 0.4190476,-1.1029412 0.9638095,-1.1029412 0.5866667,0 0.88,0.3970589 0.88,1.1029412 V 5.9117647 Z M 19.443809,1.6764706 H 18.019048 V 0.39705882 h -0.88 V 1.6764706 h -0.796191 v 0.8382353 h 0.796191 V 4.4558824 C 17.139048,5.4264706 17.51619,6 18.521905,6 18.899048,6 19.318095,5.8676471 19.611429,5.6911765 L 19.36,4.8970588 c -0.251429,0.1764706 -0.544762,0.2205883 -0.754286,0.2205883 -0.419047,0 -0.586666,-0.2647059 -0.586666,-0.7058824 V 2.5147059 h 1.424761 V 1.6764706 Z m 7.459048,-0.088235 c -0.502857,0 -0.838095,0.2647059 -1.047619,0.6176471 V 1.6764706 h -0.88 v 4.2352941 h 0.88 V 3.5294118 c 0,-0.7058824 0.293333,-1.1029412 0.838095,-1.1029412 0.167619,0 0.377143,0.044118 0.544762,0.088235 l 0.251429,-0.882353 c -0.167619,-0.044118 -0.419048,-0.044118 -0.586667,-0.044118 v 0 z M 15.630476,2.0294118 C 15.211429,1.7205882 14.624762,1.5882353 13.996191,1.5882353 c -1.005715,0 -1.676191,0.5294118 -1.676191,1.3676471 0,0.7058823 0.502857,1.1029411 1.382857,1.2352941 l 0.419048,0.044118 c 0.460952,0.088235 0.712381,0.2205883 0.712381,0.4411765 0,0.3088235 -0.335238,0.5294118 -0.921905,0.5294118 -0.586667,0 -1.047619,-0.2205883 -1.340952,-0.4411765 L 12.152381,5.4705882 C 12.613333,5.8235294 13.241905,6 13.870476,6 c 1.173334,0 1.84381,-0.5735294 1.84381,-1.3676471 0,-0.75 -0.544762,-1.1470588 -1.382857,-1.2794117 l -0.419048,-0.044118 c -0.377143,-0.044118 -0.670476,-0.1323529 -0.670476,-0.3970588 0,-0.3088235 0.293333,-0.4852941 0.754286,-0.4852941 0.502857,0 1.005714,0.2205882 1.257142,0.3529412 z M 39.013333,1.5882353 c -0.502857,0 -0.838095,0.2647059 -1.047619,0.6176471 V 1.6764706 h -0.88 v 4.2352941 h 0.88 V 3.5294118 c 0,-0.7058824 0.293334,-1.1029412 0.838095,-1.1029412 0.16762,0 0.377143,0.044118 0.544762,0.088235 L 39.6,1.6323529 C 39.432381,1.5882349 39.180952,1.5882349 39.013333,1.5882349 Z M 27.782857,3.7941177 C 27.782857,5.0735294 28.620952,6 29.92,6 30.506667,6 30.925714,5.8676471 31.344762,5.5147059 l -0.419048,-0.75 c -0.335238,0.2647059 -0.670476,0.3970588 -1.047619,0.3970588 -0.712381,0 -1.215238,-0.5294118 -1.215238,-1.367647 0,-0.7941177 0.502857,-1.3235295 1.215238,-1.3676471 0.377143,0 0.712381,0.1323529 1.047619,0.3970588 l 0.419048,-0.75 C 30.925714,1.7205882 30.506667,1.5882353 29.92,1.5882353 c -1.299048,0 -2.137143,0.9264706 -2.137143,2.2058824 z m 8.129524,0 V 1.6764706 h -0.88 V 2.2058824 C 34.739048,1.8088235 34.32,1.5882353 33.775238,1.5882353 c -1.131428,0 -2.011429,0.9264706 -2.011429,2.2058824 C 31.763809,5.0735294 32.64381,6 33.775238,6 34.361905,6 34.780952,5.7794118 35.032381,5.3823529 v 0.5294118 h 0.88 z m -3.226667,0 c 0,-0.75 0.460953,-1.3676471 1.215238,-1.3676471 0.712381,0 1.215239,0.5735294 1.215239,1.3676471 0,0.7499999 -0.502858,1.367647 -1.215239,1.367647 -0.754285,-0.044118 -1.215238,-0.6176471 -1.215238,-1.367647 z M 22.167619,1.5882353 c -1.173333,0 -2.011429,0.8823529 -2.011429,2.2058824 C 20.15619,5.1176471 20.994286,6 22.209524,6 22.796191,6 23.382857,5.8235294 23.843809,5.4264706 L 23.424762,4.7647059 c -0.335238,0.2647059 -0.754286,0.4411765 -1.173333,0.4411765 -0.544762,0 -1.089524,-0.2647059 -1.215239,-1.0147059 h 2.975239 c 0,-0.132353 0,-0.2205883 0,-0.3529412 0.0419,-1.3676471 -0.712381,-2.25 -1.84381,-2.25 z m 0,0.7941176 c 0.544762,0 0.921905,0.3529412 1.005714,1.0147059 h -2.095238 c 0.08381,-0.5735294 0.460953,-1.0147059 1.089524,-1.0147059 z M 44,3.7941177 V 0 H 43.12 V 2.2058824 C 42.826667,1.8088235 42.407619,1.5882353 41.862857,1.5882353 c -1.131428,0 -2.011428,0.9264706 -2.011428,2.2058824 C 39.851429,5.0735294 40.731429,6 41.862857,6 42.449524,6 42.868571,5.7794118 43.12,5.3823529 V 5.9117647 H 44 Z m -3.226667,0 c 0,-0.75 0.460953,-1.3676471 1.215238,-1.3676471 0.712381,0 1.215238,0.5735294 1.215238,1.3676471 0,0.7499999 -0.502857,1.367647 -1.215238,1.367647 -0.754285,-0.044118 -1.215238,-0.6176471 -1.215238,-1.367647 z m -29.417142,0 V 1.6764706 h -0.88 V 2.2058824 C 10.182857,1.8088235 9.7638095,1.5882353 9.2190476,1.5882353 8.0876191,1.5882353 7.207619,2.5147059 7.207619,3.7941177 7.207619,5.0735294 8.0876191,6 9.2190476,6 9.8057143,6 10.224762,5.7794118 10.476191,5.3823529 v 0.5294118 h 0.88 z m -3.2685719,0 c 0,-0.75 0.4609523,-1.3676471 1.215238,-1.3676471 0.7123809,0 1.2152379,0.5735294 1.2152379,1.3676471 0,0.7499999 -0.502857,1.367647 -1.2152379,1.367647 -0.7542857,-0.044118 -1.215238,-0.6176471 -1.215238,-1.367647 z"
               id="XMLID_1775_" />
          </g>
          <g
             id="XMLID_328_">
            <rect
               id="rect19"
               fill="#ff5f00"
               x="17.87554"
               y="3.2083375"
               width="13.248927"
               height="23.583332" />
            <path
               d="m 18.716738,15 c 0,-4.791667 2.271245,-9.0416667 5.762232,-11.7916667 C 21.913305,1.2083333 18.674678,0 15.141631,0 6.7716738,0 0,6.7083333 0,15 c 0,8.291667 6.7716738,15 15.141631,15 3.533047,0 6.771674,-1.208333 9.337339,-3.208333 -3.490987,-2.708334 -5.762232,-7 -5.762232,-11.791667 z"
               id="XMLID_330_"
               fill="#eb001b" />
            <path
               d="m 49,15 c 0,8.291667 -6.771674,15 -15.141631,15 -3.533047,0 -6.771674,-1.208333 -9.337339,-3.208333 3.533047,-2.75 5.762232,-7 5.762232,-11.791667 0,-4.791667 -2.271245,-9.0416667 -5.762232,-11.7916667 C 27.086695,1.2083333 30.325322,0 33.858369,0 42.228326,0 49,6.75 49,15 Z"
               id="path22"
               fill="#f79e1b" />
          </g>
        </g>
      </g>
      <g
         id="Group-2">
        <rect
           id="Rectangle-Copy"
           stroke="#888888"
           fill="#ffffff"
           x="0.5"
           y="0.5"
           width="74"
           height="47"
           rx="6" />
        <g
           id="Visa_Inc._logo-Copy"
           transform="translate(7,14)"
           fill-rule="nonzero">
          <polygon
             id="polygon9"
             fill="#00579f"
             points="26.361167,19.322034 21.355932,19.322034 24.486565,0 29.491525,0 " />
          <path
             d="M 43.728814,0.79631322 C 42.792655,0.41785948 41.307831,0 39.47185,0 c -4.68702,0 -7.987582,2.5468271 -8.007826,6.1880228 -0.03893,2.6864662 2.363105,4.1785952 4.159637,5.0743482 1.83624,0.915324 2.460432,1.512757 2.460432,2.328641 -0.01869,1.253049 -1.483786,1.830648 -2.85026,1.830648 -1.894897,0 -2.910215,-0.297791 -4.453176,-0.994929 l -0.62497,-0.298849 -0.664162,4.198694 c 1.113164,0.516771 3.164044,0.975358 5.293305,0.995458 4.98004,0 8.222205,-2.507421 8.260617,-6.387696 0.01895,-2.129232 -1.249423,-3.7607356 -3.983929,-5.0939189 -1.660013,-0.8558186 -2.676629,-1.4328878 -2.676629,-2.3085414 0.01947,-0.7960488 0.859854,-1.6114037 2.733728,-1.6114037 1.542961,-0.039935 2.676629,0.3379901 3.535444,0.7161794 l 0.429278,0.1986155 z"
             id="path11"
             fill="#00579f" />
          <path
             d="m 50.166004,12.4771 c 0.396775,-1.110041 1.923539,-5.4062241 1.923539,-5.4062241 -0.02002,0.041254 0.395984,-1.1305314 0.63389,-1.849886 l 0.336705,1.6649248 c 0,0 0.912371,4.6251253 1.110494,5.5911853 -0.752975,0 -3.053002,0 -4.004628,0 z M 56.11314,0 H 52.386465 C 51.237242,0 50.364128,0.34915882 49.868292,1.6031799 L 42.711864,19.322034 h 5.055316 c 0,0 0.832277,-2.384826 1.011168,-2.898455 0.554589,0 5.472377,0 6.185833,0 0.138318,0.678373 0.574875,2.898455 0.574875,2.898455 H 60 Z"
             id="path13"
             fill="#00579f" />
          <path
             d="M 17.1888,1.0169491 12.387553,13.512516 11.862898,10.978269 C 10.975248,8.0540778 8.1913878,4.8770059 5.0847458,3.2972794 L 9.4825154,19.322034 H 14.666865 L 22.372881,1.0169491 Z"
             id="path15"
             fill="#00579f" />
          <path
             d="M 8.170136,0 H 0.08273764 L 0,0.3779605 c 6.3086765,1.5523094 10.48679,5.294092 12.20339,9.7915305 L 10.445284,1.5724109 C 10.155839,0.37769601 9.266341,0.03940946 8.170136,0 Z"
             id="path17"
             fill="#faa61a" />
        </g>
      </g>
      <g
         id="Group-2-Copy"
         transform="translate(240)"
         fill="#f4e624"
         stroke="#888888">
        <rect
           id="rect21"
           x="0.5"
           y="0.5"
           width="74"
           height="47"
           rx="6" />
      </g>
      <g
         id="Group-4"
         transform="translate(160)">
        <rect
           id="Rectangle-Copy-3"
           stroke="#888888"
           fill="#ffffff"
           x="0.5"
           y="0.5"
           width="74"
           height="47"
           rx="6" />
        <g
           id="Maestro_2016-Copy"
           transform="translate(13,5)"
           fill-rule="nonzero">
          <g
             id="Group"
             transform="matrix(1,0,0,-1,47.675676,24.837838)"
             fill="#0099df">
            <path
               d="M 1.3243243,0 V 0.61 H 1.1654054 L 0.98149923,0.191 0.79859255,0.61 H 0.63867415 V 0 H 0.75161652 V 0.46 L 0.92352881,0.063 H 1.0404691 L 1.2123814,0.461 V 0 Z M 0.31583886,0 V 0.506 H 0.51973483 V 0.609 H 0 V 0.506 H 0.20389597 V 0 Z"
               id="Shape" />
          </g>
          <polygon
             id="Path"
             fill="#6c6bbd"
             points="31.121622,27.148649 17.878378,27.148649 17.878378,3.3108108 31.121622,3.3108108 " />
          <g
             id="g30"
             transform="matrix(1,0,0,-1,0,30.45946)"
             fill="#eb001b">
            <path
               d="m 18.716548,15.22973 c 0,4.85775 2.261583,9.184895 5.783452,11.973478 -2.575451,2.039151 -5.825814,3.256251 -9.358274,3.256251 C 6.778972,30.459459 0,23.640987 0,15.22973 0,6.8184727 6.778972,0 15.141726,0 18.674186,0 21.924549,1.2171003 24.5,3.2562516 20.978131,6.0448345 18.716548,10.37198 18.716548,15.22973"
               id="path28" />
          </g>
          <g
             id="g34"
             transform="matrix(1,0,0,-1,24.5,30.45946)"
             fill="#0099df">
            <path
               d="M 24.5,15.22973 C 24.5,6.8184727 17.721294,0 9.3588691,0 5.8265483,0 2.5763125,1.2171003 0,3.2562516 3.5226933,6.0448345 5.7841874,10.37198 5.7841874,15.22973 5.7841874,20.08748 3.5226933,24.414625 0,27.203208 2.5763125,29.242359 5.8265483,30.459459 9.3588691,30.459459 17.721294,30.459459 24.5,23.640987 24.5,15.22973"
               id="path32" />
          </g>
          <g
             id="g38"
             transform="matrix(1,0,0,-1,7.945946,38.405406)"
             fill="#231f20">
            <path
               d="m 27.710972,4.193377 c 0.176971,0 0.431307,-0.033251 0.625685,-0.108302 L 28.065881,3.2718601 c -0.185674,0.075051 -0.371349,0.099752 -0.549287,0.099752 -0.574431,0 -0.861647,-0.3648067 -0.861647,-1.0203187 V 0.12635232 H 25.775894 V 4.0936252 h 0.87035 V 3.6119663 c 0.228225,0.3486565 0.557991,0.5814107 1.064728,0.5814107 M 24.4636,3.3051107 H 23.027523 V 1.5124278 c 0,-0.3980573 0.143124,-0.66406222 0.583134,-0.66406222 0.228225,0 0.515441,0.0750514 0.776546,0.22420412 l 0.253368,-0.73816356 c -0.278512,-0.1909535 -0.717555,-0.30780565 -1.097608,-0.30780565 -1.039584,0 -1.40223,0.54816007 -1.40223,1.46967701 V 3.3051107 H 21.32067 v 0.7885145 h 0.820063 v 1.2036721 h 0.88679 V 4.0936252 H 24.4636 Z M 13.217713,2.4586452 c 0.0938,0.5728605 0.447747,0.9633177 1.073432,0.9633177 0.565727,0 0.92934,-0.3486564 1.022177,-0.9633177 z m 3.008509,-0.3486565 c -0.0087,1.2369228 -0.786216,2.0833883 -1.918638,2.0833883 -1.182708,0 -2.010508,-0.8464655 -2.010508,-2.0833883 0,-1.2606731 0.861647,-2.08243819 2.070466,-2.08243819 0.608278,0 1.165302,0.14915274 1.655599,0.5557602 L 15.591834,1.2226725 C 15.254332,0.95666757 14.823025,0.80751483 14.417829,0.80751483 c -0.565728,0 -1.081168,0.25745477 -1.207852,0.97091787 h 2.998838 c 0.0087,0.1083019 0.01741,0.2156539 0.01741,0.331556 m 3.860485,0.9709179 c -0.244665,0.1501028 -0.742698,0.3410563 -1.258139,0.3410563 -0.481593,0 -0.768809,-0.1748033 -0.768809,-0.4655086 0,-0.2650549 0.303656,-0.3401062 0.683708,-0.3895072 l 0.4139,-0.057951 c 0.879053,-0.1254023 1.410934,-0.490209 1.410934,-1.1875218 0,-0.7552639 -0.675972,-1.29487381 -1.841274,-1.29487381 -0.659531,0 -1.267809,0.16625305 -1.749403,0.51490946 l 0.4139,0.67261235 c 0.295919,-0.22420412 0.735929,-0.41515762 1.344207,-0.41515762 0.599574,0 0.920637,0.17385319 0.920637,0.48165882 0,0.2232541 -0.228225,0.3486564 -0.709819,0.4142076 l -0.4139,0.057951 c -0.904196,0.1254023 -1.394494,0.5234596 -1.394494,1.1704215 0,0.7885145 0.659532,1.2701733 1.68171,1.2701733 0.642125,0 1.225259,-0.1415526 1.646895,-0.4151576 z M 30.922563,3.373512 c -0.180839,0 -0.34814,-0.031351 -0.503836,-0.093102 -0.154729,-0.062701 -0.28915,-0.1501028 -0.402295,-0.2622049 -0.113145,-0.112102 -0.202114,-0.2470045 -0.266907,-0.4037574 -0.06479,-0.1567529 -0.09671,-0.329656 -0.09671,-0.5177595 0,-0.1890535 0.03191,-0.3610066 0.09671,-0.5177595 0.06479,-0.1567529 0.153762,-0.2916554 0.266907,-0.4037574 0.113145,-0.1121021 0.247566,-0.19950368 0.402295,-0.26220483 0.155696,-0.0627011 0.322997,-0.0931017 0.503836,-0.0931017 0.180839,0 0.349107,0.0304006 0.503836,0.0931017 0.155696,0.0627011 0.291083,0.15010273 0.404229,0.26220483 0.115079,0.112102 0.204049,0.2470045 0.269808,0.4037574 0.06479,0.1567529 0.09671,0.328706 0.09671,0.5177595 0,0.1881035 -0.03191,0.3610066 -0.09671,0.5177595 -0.06576,0.1567529 -0.154729,0.2916554 -0.269808,0.4037574 C 31.717482,3.1303072 31.582095,3.2177088 31.426399,3.28041 31.27167,3.342161 31.103402,3.373512 30.922563,3.373512 m 0,0.819865 c 0.313326,0 0.603442,-0.053201 0.87035,-0.1605529 0.266907,-0.106402 0.498033,-0.2536547 0.692411,-0.4408081 0.195346,-0.1871535 0.347173,-0.4085075 0.457418,-0.6631122 0.110244,-0.2555547 0.165366,-0.5329598 0.165366,-0.8322153 0,-0.2992555 -0.05512,-0.5766606 -0.165366,-0.8322153 C 32.832497,1.0098685 32.68067,0.78756446 32.485324,0.60041103 32.290946,0.41325759 32.05982,0.2669549 31.792913,0.15960293 31.526005,0.05320098 31.235889,0 30.922563,0 30.609237,0 30.31912,0.05320098 30.052213,0.15960293 29.785306,0.2669549 29.556114,0.41325759 29.362703,0.60041103 29.169291,0.78756446 29.017464,1.0098685 28.907219,1.2644732 28.796975,1.5200279 28.741853,1.797433 28.741853,2.0966885 c 0,0.2992555 0.05512,0.5766606 0.165366,0.8322153 0.110245,0.2546047 0.262072,0.4759587 0.455484,0.6631122 0.193411,0.1871534 0.422603,0.3344061 0.68951,0.4408081 0.266907,0.1073519 0.557024,0.1605529 0.87035,0.1605529 M 8.084583,2.1099887 c 0,0.6973129 0.4651537,1.2701734 1.2252592,1.2701734 0.7262588,0 1.2165558,-0.5481601 1.2165558,-1.2701734 0,-0.7220132 -0.490297,-1.26922326 -1.2165558,-1.26922326 -0.7601055,0 -1.2252592,0.57191046 -1.2252592,1.26922326 m 3.269614,0 V 4.0936252 H 10.476111 V 3.6119663 C 10.196632,3.9691729 9.7749958,4.193377 9.2005649,4.193377 c -1.1324218,0 -2.0192116,-0.871166 -2.0192116,-2.0833883 0,-1.21127219 0.8867898,-2.08338821 2.0192116,-2.08338821 0.5744309,0 0.9960671,0.22420412 1.2755461,0.58141068 V 0.12635232 h 0.878086 z M 6.4038407,0.12635232 V 2.6163481 c 0,0.9376672 -0.6082778,1.5684788 -1.5879049,1.5770289 C 4.3004953,4.2019272 3.7676478,4.0442243 3.3962985,3.4875141 3.1177866,3.9273721 2.6777764,4.193377 2.060795,4.193377 c -0.4303396,0 -0.8529428,-0.1244523 -1.18270871,-0.5890108 v 0.489259 H 0 V 0.12635232 H 0.88678979 V 2.3256427 c 0,0.6887627 0.38875621,1.0545194 0.98833061,1.0545194 0.5831344,0 0.8790533,-0.3733569 0.8790533,-1.0459692 V 0.12635232 H 3.6409635 V 2.3256427 c 0,0.6887627 0.4061633,1.0545194 0.9883306,1.0545194 0.6005414,0 0.8877569,-0.3733569 0.8877569,-1.0459692 V 0.12635232 Z"
               id="path36" />
          </g>
          <g
             id="g42"
             transform="matrix(1,0,0,-1,41.716216,38.743243)"
             fill="#231f20">
            <path
               d="M 0.354,0.537 V 0.434 H 0.449 C 0.47,0.434 0.488,0.439 0.5,0.447 0.513,0.455 0.52,0.469 0.52,0.486 0.52,0.503 0.513,0.516 0.5,0.524 0.488,0.533 0.47,0.537 0.449,0.537 Z M 0.45,0.609 C 0.499,0.609 0.537,0.598 0.564,0.576 0.591,0.554 0.604,0.524 0.604,0.486 0.604,0.454 0.594,0.428 0.572,0.407 0.551,0.387 0.52,0.374 0.481,0.369 L 0.607,0.224 H 0.509 L 0.392,0.368 H 0.354 V 0.224 H 0.272 V 0.609 Z M 0.425,0.092 C 0.47,0.092 0.512,0.1 0.55,0.117 0.589,0.134 0.623,0.157 0.652,0.186 0.681,0.215 0.704,0.249 0.721,0.289 0.737,0.328 0.746,0.37 0.746,0.415 0.746,0.46 0.737,0.502 0.721,0.541 0.704,0.58 0.681,0.615 0.652,0.644 0.623,0.673 0.589,0.696 0.55,0.712 0.512,0.729 0.47,0.737 0.425,0.737 0.38,0.737 0.337,0.729 0.298,0.712 0.258,0.696 0.223,0.673 0.194,0.644 0.165,0.615 0.142,0.58 0.126,0.541 0.109,0.502 0.101,0.46 0.101,0.415 0.101,0.37 0.109,0.328 0.126,0.289 0.142,0.249 0.165,0.215 0.194,0.186 0.223,0.157 0.258,0.134 0.298,0.117 0.337,0.1 0.38,0.092 0.425,0.092 m 0,0.738 C 0.484,0.83 0.538,0.819 0.589,0.797 0.641,0.776 0.685,0.746 0.724,0.708 0.762,0.671 0.792,0.627 0.814,0.576 0.836,0.526 0.847,0.472 0.847,0.415 0.847,0.358 0.836,0.304 0.814,0.254 0.792,0.204 0.762,0.16 0.724,0.123 0.685,0.085 0.641,0.055 0.589,0.033 0.538,0.011 0.484,0 0.425,0 0.365,0 0.31,0.011 0.258,0.033 0.206,0.055 0.161,0.085 0.123,0.123 0.085,0.16 0.055,0.204 0.033,0.254 0.011,0.304 0,0.358 0,0.415 0,0.472 0.011,0.526 0.033,0.576 0.055,0.627 0.085,0.671 0.123,0.708 0.161,0.746 0.206,0.776 0.258,0.797 0.31,0.819 0.365,0.83 0.425,0.83"
               id="path40" />
          </g>
        </g>
      </g>
    </g>
    <path
       d="m 297.93959,27.149706 c -1.10451,0.986575 -2.98966,1.320177 -4.1064,0.20433 -0.46925,-0.468897 -0.70819,-1.045158 -0.79518,-1.69842 -0.14805,-1.110531 0.33272,-1.920705 1.24973,-2.5125 1.29974,-0.83876 3.10612,-0.779409 4.61787,-0.774095 0.0228,-0.331948 0.10027,-0.661536 0.10027,-0.999744 -5e-5,-0.55813 -1.10462,-0.762756 -1.43994,-0.337381 -0.14037,0.178051 -0.25925,0.521929 -0.36561,0.734055 l -0.0477,0.09514 h -2.75687 l 0.0282,-0.196772 c 0.0605,-0.422716 0.22057,-0.810649 0.4797,-1.150275 0.66721,-0.874369 1.85109,-1.262835 2.9087,-1.352067 1.03547,-0.08734 2.41872,0.09041 3.23953,0.784134 0.78006,0.659351 0.85394,2.02512 0.63939,2.954535 l -0.63968,2.77104 c -0.15207,0.659055 -0.20841,1.416909 -0.20841,2.093265 v 0.172323 h -2.90362 v -0.787558 z m 0.63656,-3.369975 h -0.35741 c -0.33283,0 -0.69183,-0.0087 -1.01125,0.09791 -0.25749,0.08599 -0.59008,0.189509 -0.78568,0.385158 l -0.015,0.01506 -0.0182,0.01098 c -0.14687,0.08805 -0.27012,0.214429 -0.3655,0.355866 -0.21637,0.320847 -0.41781,1.034469 0.0345,1.260826 l 0.025,0.01252 0.0198,0.01972 c 0.1233,0.123426 0.35161,0.162225 0.51761,0.162225 0.19441,0 0.38416,0.0014 0.56262,-0.08776 0.26717,-0.133347 0.50368,-0.210827 0.67984,-0.474981 l 0.009,-0.01417 0.012,-0.01205 c 0.4712,-0.47126 0.66402,-1.083897 0.69219,-1.731315 z m 5.32411,3.94647 -1.51671,-8.448075 h 2.80884 l 0.69862,5.28903 2.99381,-5.28903 h 2.74854 l -5.26973,8.892045 -1.54075,2.75226 h -3.09131 l 2.16869,-3.196245 z m -16.3326,-7.74744 c 0.69803,-0.615235 1.4723,-1.02065 2.459,-1.02065 0.75082,0 1.53319,0.22937 2.04703,0.803622 0.52978,0.592086 0.71539,1.351122 0.78951,2.12391 0.021,0.219509 0.0204,0.439311 0.0204,0.659587 4.2e-4,1.285924 -0.2863,2.635394 -1.00836,3.716924 -0.94807,1.42004 -3.24603,2.34756 -4.8137,1.438524 -0.31405,-0.182125 -0.58523,-0.450058 -0.79736,-0.752835 l -0.8961,4.081365 h -2.80454 l 0.0459,-0.20935 c 0.82411,-3.756435 1.59094,-7.52586 2.3442,-11.29707 l 0.0276,-0.138602 h 2.6322 l -0.0458,0.594567 z m -0.26852,2.00634 c -0.4464,0.813012 -0.5625,1.76451 -0.51183,2.67921 0.0351,0.634369 0.27968,1.389271 1.02006,1.436397 0.73163,0.04648 1.33647,-0.580335 1.63813,-1.184409 0.22589,-0.452244 0.41929,-0.951497 0.51874,-1.448622 0.13459,-0.672756 0.37996,-1.85793 -0.16618,-2.4033 -0.7947,-0.79376 -2.08064,0.158976 -2.49891,0.920728 z m -36.59265,5.50098 c -0.91884,0.67807 -2.57498,0.720945 -3.57839,0.219685 -0.36147,-0.180531 -0.64677,-0.432106 -0.90153,-0.727795 l -0.90975,3.944475 h -1.95018 l 2.52638,-11.644305 h 1.71213 l -0.081,0.969862 c 0.70996,-0.662243 1.71036,-1.076515 2.6654,-1.076456 0.79139,0 1.47448,0.230374 2.04052,0.796652 0.5974,0.597815 0.95646,1.27937 1.00984,2.136555 0.0419,0.672815 -0.0342,1.328741 -0.21968,1.976925 -0.18797,0.657402 -0.39827,1.275177 -0.76642,1.856745 -0.40364,0.637677 -0.86433,1.201359 -1.54735,1.547655 z m 0.38876,-3.83604 c 0.19925,-0.497717 0.20102,-1.008424 0.20102,-1.534605 0,-0.460631 -0.19571,-0.825945 -0.49069,-1.166103 -0.96035,-1.107402 -2.745,-0.05835 -3.23055,1.023366 -0.55051,1.226515 -0.83716,1.74549 -0.83716,3.1272 0,0.458208 0.16895,0.737125 0.48236,1.050591 0.31258,0.312637 0.61488,0.376417 1.05053,0.376417 1.07398,0 1.65283,-0.395256 2.19708,-1.302106 0.28707,-0.478347 0.50911,-0.99567 0.61831,-1.544355 l 0.003,-0.01559 0.006,-0.01482 z m 9.91341,-3.800085 c 0.65486,0.535098 0.95439,1.209686 1.02248,2.03805 0.0601,0.731575 -0.0179,1.488189 -0.21963,2.19366 -0.19689,0.688347 -0.4898,1.358091 -0.87301,1.96341 -0.41167,0.650314 -0.87171,1.103326 -1.56119,1.447972 -1.26484,0.632244 -3.67924,0.634725 -4.77555,-0.345826 -0.60064,-0.537284 -0.90998,-1.347875 -1.01503,-2.131005 -0.10477,-0.781064 0.003,-1.55475 0.21785,-2.30853 0.20516,-0.718406 0.52258,-1.50024 0.99089,-2.085705 1.37037,-1.713135 4.48311,-2.185635 6.21319,-0.772028 z m -4.79015,6.50853 c 0.36349,0.331122 0.80085,0.494055 1.28965,0.389881 1.51069,-0.321732 2.69445,-3.246435 2.68624,-4.631865 -0.003,-0.490039 -0.13122,-0.913582 -0.48254,-1.26496 -1.03299,-1.033524 -2.65027,0.03608 -3.24826,1.032637 -0.31353,0.522461 -0.51673,1.042205 -0.61736,1.645575 -0.14115,0.846083 -0.33863,2.181135 0.37228,2.828745 z m 11.56931,-5.06835 c -0.0584,-0.17817 -0.17274,-0.540591 -0.33089,-0.619665 -0.27236,-0.136358 -0.57921,-0.195236 -0.88252,-0.195236 -0.41504,0 -0.73122,0.06035 -1.07675,0.290964 -0.2191,0.14628 -0.46571,0.368208 -0.44853,0.657284 0.0328,0.550689 0.92924,1.083247 1.38083,1.280433 0.64075,0.279567 1.47165,0.708424 1.97162,1.208503 0.33974,0.339686 0.54945,0.803031 0.58346,1.282087 0.0635,0.891496 -0.2977,1.565189 -1.03352,2.072894 -0.81178,0.560079 -1.89815,0.776693 -2.86967,0.776693 -0.75461,0 -1.56808,-0.165945 -2.22082,-0.557421 -0.51113,-0.306614 -0.88742,-0.730985 -0.96349,-1.33807 -0.0528,-0.42183 0.047,-0.7888 0.13855,-1.193327 l 0.0304,-0.134291 h 2.01478 l -0.12449,0.24939 c -0.15637,0.313051 -0.10151,1.088859 0.24319,1.261417 0.30473,0.152658 0.6515,0.195119 0.98864,0.195119 0.44658,0 1.01245,-0.06874 1.40587,-0.29687 0.34099,-0.197716 0.44717,-0.424192 0.44717,-0.81 0,-0.201378 -0.13276,-0.381496 -0.26894,-0.517735 -0.28642,-0.286299 -0.85996,-0.550098 -1.22693,-0.710019 -0.57508,-0.250748 -1.4185,-0.655985 -1.86503,-1.102442 -0.33962,-0.339567 -0.54879,-0.803445 -0.58287,-1.282146 -0.0573,-0.80557 0.20935,-1.410354 0.80191,-1.95153 0.72094,-0.658405 1.62247,-0.791457 2.56783,-0.791457 0.68812,0 1.63997,0.05982 2.22833,0.45561 0.52169,0.350906 0.80256,0.773031 0.92581,1.388208 l 0.003,0.01677 v 0.935787 h -1.83732 v -0.570945 z m 3.68658,-0.494882 h -1.5068 l 0.42272,-1.411063 h 1.48246 l 0.41899,-1.88586 1.9793,-0.52754 -0.54927,2.307345 h 1.80408 l -0.2824,1.410531 h -1.81613 c -0.0791,0.335198 -0.17096,0.670985 -0.25512,1.004232 -0.14456,0.572186 -0.28376,1.146024 -0.40701,1.72317 -0.0955,0.447284 -0.54685,2.607526 -0.20616,2.94792 0.11002,0.109902 0.47528,0.162934 0.62457,0.162934 0.0908,0 0.18189,-0.0063 0.27224,-0.0153 0.25394,-0.02522 0.54467,-0.09148 0.79412,-0.09148 h 0.22577 l -0.41433,1.51713 h -0.13164 c -0.39531,0 -0.79748,0.06803 -1.19191,0.100807 -0.63265,0.0525 -1.23573,0.02079 -1.78198,-0.343052 -0.96195,-0.640747 -0.60567,-2.02653 -0.39183,-2.95329 l 0.91033,-3.94647 z m 5.35842,2.87853 c -0.82784,3.178815 2.94159,3.345465 3.43222,1.384311 l 0.0327,-0.130511 h 2.16802 l -0.0536,0.214192 c -0.22187,0.88683 -0.69862,1.521675 -1.45831,2.02098 -1.38106,0.907559 -3.77161,1.058859 -5.10637,-0.0095 -0.63089,-0.504921 -0.90921,-1.24878 -1.0226,-2.02854 -0.10925,-0.751594 0.0231,-1.475551 0.21762,-2.2014 0.50043,-1.86714 1.94433,-3.659355 3.93832,-3.97854 0.18579,-0.02976 0.37371,-0.04553 0.56185,-0.04683 2.68542,-0.01772 4.00305,2.202285 3.18526,4.65792 l -0.0393,0.117933 h -5.85579 z m 4.21848,-1.197697 c 0.54236,-1.932045 -1.71692,-2.856195 -3.05546,-1.517835 -0.44114,0.441141 -0.67163,0.925098 -0.77492,1.517835 h 3.83037 z"
       id="_414284472"
       fill="#1d60b4" />
  </g>
</svg>
