<?xml version="1.0" encoding="UTF-8" standalone="no"?>
<svg
   xmlns:dc="http://purl.org/dc/elements/1.1/"
   xmlns:cc="http://creativecommons.org/ns#"
   xmlns:rdf="http://www.w3.org/1999/02/22-rdf-syntax-ns#"
   xmlns:svg="http://www.w3.org/2000/svg"
   xmlns="http://www.w3.org/2000/svg"
   xmlns:sodipodi="http://sodipodi.sourceforge.net/DTD/sodipodi-0.dtd"
   xmlns:inkscape="http://www.inkscape.org/namespaces/inkscape"
   width="35"
   height="22"
   viewBox="0 0 35 22"
   version="1.1"
   id="svg201"
   sodipodi:docname="Logo_maestro.svg"
   inkscape:version="1.0.2 (e86c870879, 2021-01-15)">
  <metadata
     id="metadata207">
    <rdf:RDF>
      <cc:Work
         rdf:about="">
        <dc:format>image/svg+xml</dc:format>
        <dc:type
           rdf:resource="http://purl.org/dc/dcmitype/StillImage" />
        <dc:title>Logo_maestro</dc:title>
      </cc:Work>
    </rdf:RDF>
  </metadata>
  <defs
     id="defs205" />
  <sodipodi:namedview
     pagecolor="#ffffff"
     bordercolor="#666666"
     borderopacity="1"
     objecttolerance="10"
     gridtolerance="10"
     guidetolerance="10"
     inkscape:pageopacity="0"
     inkscape:pageshadow="2"
     inkscape:window-width="1920"
     inkscape:window-height="1006"
     id="namedview203"
     showgrid="false"
     inkscape:zoom="15.253333"
     inkscape:cx="37.5"
     inkscape:cy="24"
     inkscape:window-x="0"
     inkscape:window-y="0"
     inkscape:window-maximized="1"
     inkscape:current-layer="svg201" />
  <title
     id="title177">Logo_maestro</title>
  <g
     id="Logo_maestro"
     stroke="none"
     stroke-width="1"
     fill="none"
     fill-rule="evenodd"
     transform="matrix(0.46579015,0,0,0.45367422,0.03286948,-0.04991326)">
    <rect
       id="Rectangle-Copy-2"
       stroke="#888888"
       fill="#ffffff"
       x="0.5"
       y="0.5"
       width="74"
       height="47"
       rx="6" />
    <g
       id="Maestro_2016"
       transform="translate(13,5)"
       fill-rule="nonzero">
      <g
         id="Group"
         transform="matrix(1,0,0,-1,47.675676,24.837838)"
         fill="#0099df">
        <path
           d="M 1.3243243,0 V 0.61 H 1.1654054 L 0.98149923,0.191 0.79859255,0.61 H 0.63867415 V 0 H 0.75161652 V 0.46 L 0.92352881,0.063 H 1.0404691 L 1.2123814,0.461 V 0 Z M 0.31583886,0 V 0.506 H 0.51973483 V 0.609 H 0 V 0.506 H 0.20389597 V 0 Z"
           id="Shape" />
      </g>
      <polygon
         id="Path"
         fill="#6c6bbd"
         points="31.121622,27.148649 17.878378,27.148649 17.878378,3.3108108 31.121622,3.3108108 " />
      <g
         id="g185"
         transform="matrix(1,0,0,-1,0,30.45946)"
         fill="#eb001b">
        <path
           d="m 18.716548,15.22973 c 0,4.85775 2.261583,9.184895 5.783452,11.973478 -2.575451,2.039151 -5.825814,3.256251 -9.358274,3.256251 C 6.778972,30.459459 0,23.640987 0,15.22973 0,6.8184727 6.778972,0 15.141726,0 18.674186,0 21.924549,1.2171003 24.5,3.2562516 20.978131,6.0448345 18.716548,10.37198 18.716548,15.22973"
           id="path183" />
      </g>
      <g
         id="g189"
         transform="matrix(1,0,0,-1,24.5,30.45946)"
         fill="#0099df">
        <path
           d="M 24.5,15.22973 C 24.5,6.8184727 17.721294,0 9.3588691,0 5.8265483,0 2.5763125,1.2171003 0,3.2562516 3.5226933,6.0448345 5.7841874,10.37198 5.7841874,15.22973 5.7841874,20.08748 3.5226933,24.414625 0,27.203208 2.5763125,29.242359 5.8265483,30.459459 9.3588691,30.459459 17.721294,30.459459 24.5,23.640987 24.5,15.22973"
           id="path187" />
      </g>
      <g
         id="g193"
         transform="matrix(1,0,0,-1,7.945946,38.405406)"
         fill="#231f20">
        <path
           d="m 27.710972,4.193377 c 0.176971,0 0.431307,-0.033251 0.625685,-0.108302 L 28.065881,3.2718601 c -0.185674,0.075051 -0.371349,0.099752 -0.549287,0.099752 -0.574431,0 -0.861647,-0.3648067 -0.861647,-1.0203187 V 0.12635232 H 25.775894 V 4.0936252 h 0.87035 V 3.6119663 c 0.228225,0.3486565 0.557991,0.5814107 1.064728,0.5814107 M 24.4636,3.3051107 H 23.027523 V 1.5124278 c 0,-0.3980573 0.143124,-0.66406222 0.583134,-0.66406222 0.228225,0 0.515441,0.0750514 0.776546,0.22420412 l 0.253368,-0.73816356 c -0.278512,-0.1909535 -0.717555,-0.30780565 -1.097608,-0.30780565 -1.039584,0 -1.40223,0.54816007 -1.40223,1.46967701 V 3.3051107 H 21.32067 v 0.7885145 h 0.820063 v 1.2036721 h 0.88679 V 4.0936252 H 24.4636 Z M 13.217713,2.4586452 c 0.0938,0.5728605 0.447747,0.9633177 1.073432,0.9633177 0.565727,0 0.92934,-0.3486564 1.022177,-0.9633177 z m 3.008509,-0.3486565 c -0.0087,1.2369228 -0.786216,2.0833883 -1.918638,2.0833883 -1.182708,0 -2.010508,-0.8464655 -2.010508,-2.0833883 0,-1.2606731 0.861647,-2.08243819 2.070466,-2.08243819 0.608278,0 1.165302,0.14915274 1.655599,0.5557602 L 15.591834,1.2226725 C 15.254332,0.95666757 14.823025,0.80751483 14.417829,0.80751483 c -0.565728,0 -1.081168,0.25745477 -1.207852,0.97091787 h 2.998838 c 0.0087,0.1083019 0.01741,0.2156539 0.01741,0.331556 m 3.860485,0.9709179 c -0.244665,0.1501028 -0.742698,0.3410563 -1.258139,0.3410563 -0.481593,0 -0.768809,-0.1748033 -0.768809,-0.4655086 0,-0.2650549 0.303656,-0.3401062 0.683708,-0.3895072 l 0.4139,-0.057951 c 0.879053,-0.1254023 1.410934,-0.490209 1.410934,-1.1875218 0,-0.7552639 -0.675972,-1.29487381 -1.841274,-1.29487381 -0.659531,0 -1.267809,0.16625305 -1.749403,0.51490946 l 0.4139,0.67261235 c 0.295919,-0.22420412 0.735929,-0.41515762 1.344207,-0.41515762 0.599574,0 0.920637,0.17385319 0.920637,0.48165882 0,0.2232541 -0.228225,0.3486564 -0.709819,0.4142076 l -0.4139,0.057951 c -0.904196,0.1254023 -1.394494,0.5234596 -1.394494,1.1704215 0,0.7885145 0.659532,1.2701733 1.68171,1.2701733 0.642125,0 1.225259,-0.1415526 1.646895,-0.4151576 z M 30.922563,3.373512 c -0.180839,0 -0.34814,-0.031351 -0.503836,-0.093102 -0.154729,-0.062701 -0.28915,-0.1501028 -0.402295,-0.2622049 -0.113145,-0.112102 -0.202114,-0.2470045 -0.266907,-0.4037574 -0.06479,-0.1567529 -0.09671,-0.329656 -0.09671,-0.5177595 0,-0.1890535 0.03191,-0.3610066 0.09671,-0.5177595 0.06479,-0.1567529 0.153762,-0.2916554 0.266907,-0.4037574 0.113145,-0.1121021 0.247566,-0.19950368 0.402295,-0.26220483 0.155696,-0.0627011 0.322997,-0.0931017 0.503836,-0.0931017 0.180839,0 0.349107,0.0304006 0.503836,0.0931017 0.155696,0.0627011 0.291083,0.15010273 0.404229,0.26220483 0.115079,0.112102 0.204049,0.2470045 0.269808,0.4037574 0.06479,0.1567529 0.09671,0.328706 0.09671,0.5177595 0,0.1881035 -0.03191,0.3610066 -0.09671,0.5177595 -0.06576,0.1567529 -0.154729,0.2916554 -0.269808,0.4037574 C 31.717482,3.1303072 31.582095,3.2177088 31.426399,3.28041 31.27167,3.342161 31.103402,3.373512 30.922563,3.373512 m 0,0.819865 c 0.313326,0 0.603442,-0.053201 0.87035,-0.1605529 0.266907,-0.106402 0.498033,-0.2536547 0.692411,-0.4408081 0.195346,-0.1871535 0.347173,-0.4085075 0.457418,-0.6631122 0.110244,-0.2555547 0.165366,-0.5329598 0.165366,-0.8322153 0,-0.2992555 -0.05512,-0.5766606 -0.165366,-0.8322153 C 32.832497,1.0098685 32.68067,0.78756446 32.485324,0.60041103 32.290946,0.41325759 32.05982,0.2669549 31.792913,0.15960293 31.526005,0.05320098 31.235889,0 30.922563,0 30.609237,0 30.31912,0.05320098 30.052213,0.15960293 29.785306,0.2669549 29.556114,0.41325759 29.362703,0.60041103 29.169291,0.78756446 29.017464,1.0098685 28.907219,1.2644732 28.796975,1.5200279 28.741853,1.797433 28.741853,2.0966885 c 0,0.2992555 0.05512,0.5766606 0.165366,0.8322153 0.110245,0.2546047 0.262072,0.4759587 0.455484,0.6631122 0.193411,0.1871534 0.422603,0.3344061 0.68951,0.4408081 0.266907,0.1073519 0.557024,0.1605529 0.87035,0.1605529 M 8.084583,2.1099887 c 0,0.6973129 0.4651537,1.2701734 1.2252592,1.2701734 0.7262588,0 1.2165558,-0.5481601 1.2165558,-1.2701734 0,-0.7220132 -0.490297,-1.26922326 -1.2165558,-1.26922326 -0.7601055,0 -1.2252592,0.57191046 -1.2252592,1.26922326 m 3.269614,0 V 4.0936252 H 10.476111 V 3.6119663 C 10.196632,3.9691729 9.7749958,4.193377 9.2005649,4.193377 c -1.1324218,0 -2.0192116,-0.871166 -2.0192116,-2.0833883 0,-1.21127219 0.8867898,-2.08338821 2.0192116,-2.08338821 0.5744309,0 0.9960671,0.22420412 1.2755461,0.58141068 V 0.12635232 h 0.878086 z M 6.4038407,0.12635232 V 2.6163481 c 0,0.9376672 -0.6082778,1.5684788 -1.5879049,1.5770289 C 4.3004953,4.2019272 3.7676478,4.0442243 3.3962985,3.4875141 3.1177866,3.9273721 2.6777764,4.193377 2.060795,4.193377 c -0.4303396,0 -0.8529428,-0.1244523 -1.18270871,-0.5890108 v 0.489259 H 0 V 0.12635232 H 0.88678979 V 2.3256427 c 0,0.6887627 0.38875621,1.0545194 0.98833061,1.0545194 0.5831344,0 0.8790533,-0.3733569 0.8790533,-1.0459692 V 0.12635232 H 3.6409635 V 2.3256427 c 0,0.6887627 0.4061633,1.0545194 0.9883306,1.0545194 0.6005414,0 0.8877569,-0.3733569 0.8877569,-1.0459692 V 0.12635232 Z"
           id="path191" />
      </g>
      <g
         id="g197"
         transform="matrix(1,0,0,-1,41.716216,38.743243)"
         fill="#231f20">
        <path
           d="M 0.354,0.537 V 0.434 H 0.449 C 0.47,0.434 0.488,0.439 0.5,0.447 0.513,0.455 0.52,0.469 0.52,0.486 0.52,0.503 0.513,0.516 0.5,0.524 0.488,0.533 0.47,0.537 0.449,0.537 Z M 0.45,0.609 C 0.499,0.609 0.537,0.598 0.564,0.576 0.591,0.554 0.604,0.524 0.604,0.486 0.604,0.454 0.594,0.428 0.572,0.407 0.551,0.387 0.52,0.374 0.481,0.369 L 0.607,0.224 H 0.509 L 0.392,0.368 H 0.354 V 0.224 H 0.272 V 0.609 Z M 0.425,0.092 C 0.47,0.092 0.512,0.1 0.55,0.117 0.589,0.134 0.623,0.157 0.652,0.186 0.681,0.215 0.704,0.249 0.721,0.289 0.737,0.328 0.746,0.37 0.746,0.415 0.746,0.46 0.737,0.502 0.721,0.541 0.704,0.58 0.681,0.615 0.652,0.644 0.623,0.673 0.589,0.696 0.55,0.712 0.512,0.729 0.47,0.737 0.425,0.737 0.38,0.737 0.337,0.729 0.298,0.712 0.258,0.696 0.223,0.673 0.194,0.644 0.165,0.615 0.142,0.58 0.126,0.541 0.109,0.502 0.101,0.46 0.101,0.415 0.101,0.37 0.109,0.328 0.126,0.289 0.142,0.249 0.165,0.215 0.194,0.186 0.223,0.157 0.258,0.134 0.298,0.117 0.337,0.1 0.38,0.092 0.425,0.092 m 0,0.738 C 0.484,0.83 0.538,0.819 0.589,0.797 0.641,0.776 0.685,0.746 0.724,0.708 0.762,0.671 0.792,0.627 0.814,0.576 0.836,0.526 0.847,0.472 0.847,0.415 0.847,0.358 0.836,0.304 0.814,0.254 0.792,0.204 0.762,0.16 0.724,0.123 0.685,0.085 0.641,0.055 0.589,0.033 0.538,0.011 0.484,0 0.425,0 0.365,0 0.31,0.011 0.258,0.033 0.206,0.055 0.161,0.085 0.123,0.123 0.085,0.16 0.055,0.204 0.033,0.254 0.011,0.304 0,0.358 0,0.415 0,0.472 0.011,0.526 0.033,0.576 0.055,0.627 0.085,0.671 0.123,0.708 0.161,0.746 0.206,0.776 0.258,0.797 0.31,0.819 0.365,0.83 0.425,0.83"
           id="path195" />
      </g>
    </g>
  </g>
</svg>
