<?xml version="1.0" encoding="UTF-8" standalone="no"?>
<svg
   xmlns:dc="http://purl.org/dc/elements/1.1/"
   xmlns:cc="http://creativecommons.org/ns#"
   xmlns:rdf="http://www.w3.org/1999/02/22-rdf-syntax-ns#"
   xmlns:svg="http://www.w3.org/2000/svg"
   xmlns="http://www.w3.org/2000/svg"
   xmlns:sodipodi="http://sodipodi.sourceforge.net/DTD/sodipodi-0.dtd"
   xmlns:inkscape="http://www.inkscape.org/namespaces/inkscape"
   width="35"
   height="22"
   viewBox="0 0 35 22"
   version="1.1"
   id="svg105"
   sodipodi:docname="Logo_mastercard.svg"
   inkscape:version="1.0.2 (e86c870879, 2021-01-15)">
  <metadata
     id="metadata111">
    <rdf:RDF>
      <cc:Work
         rdf:about="">
        <dc:format>image/svg+xml</dc:format>
        <dc:type
           rdf:resource="http://purl.org/dc/dcmitype/StillImage" />
        <dc:title>Logo_mastercard</dc:title>
      </cc:Work>
    </rdf:RDF>
  </metadata>
  <defs
     id="defs109" />
  <sodipodi:namedview
     pagecolor="#ffffff"
     bordercolor="#666666"
     borderopacity="1"
     objecttolerance="10"
     gridtolerance="10"
     guidetolerance="10"
     inkscape:pageopacity="0"
     inkscape:pageshadow="2"
     inkscape:window-width="1920"
     inkscape:window-height="1006"
     id="namedview107"
     showgrid="false"
     inkscape:zoom="15.253333"
     inkscape:cx="37.5"
     inkscape:cy="24"
     inkscape:window-x="0"
     inkscape:window-y="0"
     inkscape:window-maximized="1"
     inkscape:current-layer="svg105" />
  <title
     id="title94">Logo_mastercard</title>
  <g
     id="Logo_mastercard"
     stroke="none"
     stroke-width="1"
     fill="none"
     fill-rule="evenodd"
     transform="matrix(0.46579015,0,0,0.45367422,0.03286948,-0.04991326)">
    <rect
       id="Rectangle-Copy"
       stroke="#888888"
       fill="#ffffff"
       x="0.5"
       y="0.5"
       width="74"
       height="47"
       rx="6" />
    <g
       id="Mastercard-logo"
       transform="translate(13,5)"
       fill-rule="nonzero">
      <g
         id="g15"
         transform="translate(2,32)"
         fill="#000000">
        <path
           d="M 6.4114286,5.9117647 V 3.2647059 c 0,-1.0147059 -0.5866667,-1.6764706 -1.592381,-1.6764706 -0.5028571,0 -1.047619,0.1764706 -1.4247619,0.75 -0.2933333,-0.4852941 -0.7123809,-0.75 -1.3409524,-0.75 -0.4190476,0 -0.8380952,0.1323529 -1.1733333,0.6176471 V 1.6764706 H 0 V 5.9117647 H 0.88 V 3.5735294 c 0,-0.75 0.3771429,-1.1029412 0.9638095,-1.1029412 0.5866667,0 0.88,0.3970589 0.88,1.1029412 v 2.3382353 h 0.88 V 3.5735294 c 0,-0.75 0.4190476,-1.1029412 0.9638095,-1.1029412 0.5866667,0 0.88,0.3970589 0.88,1.1029412 V 5.9117647 Z M 19.443809,1.6764706 H 18.019048 V 0.39705882 h -0.88 V 1.6764706 h -0.796191 v 0.8382353 h 0.796191 V 4.4558824 C 17.139048,5.4264706 17.51619,6 18.521905,6 18.899048,6 19.318095,5.8676471 19.611429,5.6911765 L 19.36,4.8970588 c -0.251429,0.1764706 -0.544762,0.2205883 -0.754286,0.2205883 -0.419047,0 -0.586666,-0.2647059 -0.586666,-0.7058824 V 2.5147059 h 1.424761 V 1.6764706 Z m 7.459048,-0.088235 c -0.502857,0 -0.838095,0.2647059 -1.047619,0.6176471 V 1.6764706 h -0.88 v 4.2352941 h 0.88 V 3.5294118 c 0,-0.7058824 0.293333,-1.1029412 0.838095,-1.1029412 0.167619,0 0.377143,0.044118 0.544762,0.088235 l 0.251429,-0.882353 c -0.167619,-0.044118 -0.419048,-0.044118 -0.586667,-0.044118 v 0 z M 15.630476,2.0294118 C 15.211429,1.7205882 14.624762,1.5882353 13.996191,1.5882353 c -1.005715,0 -1.676191,0.5294118 -1.676191,1.3676471 0,0.7058823 0.502857,1.1029411 1.382857,1.2352941 l 0.419048,0.044118 c 0.460952,0.088235 0.712381,0.2205883 0.712381,0.4411765 0,0.3088235 -0.335238,0.5294118 -0.921905,0.5294118 -0.586667,0 -1.047619,-0.2205883 -1.340952,-0.4411765 L 12.152381,5.4705882 C 12.613333,5.8235294 13.241905,6 13.870476,6 c 1.173334,0 1.84381,-0.5735294 1.84381,-1.3676471 0,-0.75 -0.544762,-1.1470588 -1.382857,-1.2794117 l -0.419048,-0.044118 c -0.377143,-0.044118 -0.670476,-0.1323529 -0.670476,-0.3970588 0,-0.3088235 0.293333,-0.4852941 0.754286,-0.4852941 0.502857,0 1.005714,0.2205882 1.257142,0.3529412 z M 39.013333,1.5882353 c -0.502857,0 -0.838095,0.2647059 -1.047619,0.6176471 V 1.6764706 h -0.88 v 4.2352941 h 0.88 V 3.5294118 c 0,-0.7058824 0.293334,-1.1029412 0.838095,-1.1029412 0.16762,0 0.377143,0.044118 0.544762,0.088235 L 39.6,1.6323529 C 39.432381,1.5882349 39.180952,1.5882349 39.013333,1.5882349 Z M 27.782857,3.7941177 C 27.782857,5.0735294 28.620952,6 29.92,6 30.506667,6 30.925714,5.8676471 31.344762,5.5147059 l -0.419048,-0.75 c -0.335238,0.2647059 -0.670476,0.3970588 -1.047619,0.3970588 -0.712381,0 -1.215238,-0.5294118 -1.215238,-1.367647 0,-0.7941177 0.502857,-1.3235295 1.215238,-1.3676471 0.377143,0 0.712381,0.1323529 1.047619,0.3970588 l 0.419048,-0.75 C 30.925714,1.7205882 30.506667,1.5882353 29.92,1.5882353 c -1.299048,0 -2.137143,0.9264706 -2.137143,2.2058824 z m 8.129524,0 V 1.6764706 h -0.88 V 2.2058824 C 34.739048,1.8088235 34.32,1.5882353 33.775238,1.5882353 c -1.131428,0 -2.011429,0.9264706 -2.011429,2.2058824 C 31.763809,5.0735294 32.64381,6 33.775238,6 34.361905,6 34.780952,5.7794118 35.032381,5.3823529 v 0.5294118 h 0.88 z m -3.226667,0 c 0,-0.75 0.460953,-1.3676471 1.215238,-1.3676471 0.712381,0 1.215239,0.5735294 1.215239,1.3676471 0,0.7499999 -0.502858,1.367647 -1.215239,1.367647 -0.754285,-0.044118 -1.215238,-0.6176471 -1.215238,-1.367647 z M 22.167619,1.5882353 c -1.173333,0 -2.011429,0.8823529 -2.011429,2.2058824 C 20.15619,5.1176471 20.994286,6 22.209524,6 22.796191,6 23.382857,5.8235294 23.843809,5.4264706 L 23.424762,4.7647059 c -0.335238,0.2647059 -0.754286,0.4411765 -1.173333,0.4411765 -0.544762,0 -1.089524,-0.2647059 -1.215239,-1.0147059 h 2.975239 c 0,-0.132353 0,-0.2205883 0,-0.3529412 0.0419,-1.3676471 -0.712381,-2.25 -1.84381,-2.25 z m 0,0.7941176 c 0.544762,0 0.921905,0.3529412 1.005714,1.0147059 h -2.095238 c 0.08381,-0.5735294 0.460953,-1.0147059 1.089524,-1.0147059 z M 44,3.7941177 V 0 H 43.12 V 2.2058824 C 42.826667,1.8088235 42.407619,1.5882353 41.862857,1.5882353 c -1.131428,0 -2.011428,0.9264706 -2.011428,2.2058824 C 39.851429,5.0735294 40.731429,6 41.862857,6 42.449524,6 42.868571,5.7794118 43.12,5.3823529 V 5.9117647 H 44 Z m -3.226667,0 c 0,-0.75 0.460953,-1.3676471 1.215238,-1.3676471 0.712381,0 1.215238,0.5735294 1.215238,1.3676471 0,0.7499999 -0.502857,1.367647 -1.215238,1.367647 -0.754285,-0.044118 -1.215238,-0.6176471 -1.215238,-1.367647 z m -29.417142,0 V 1.6764706 h -0.88 V 2.2058824 C 10.182857,1.8088235 9.7638095,1.5882353 9.2190476,1.5882353 8.0876191,1.5882353 7.207619,2.5147059 7.207619,3.7941177 7.207619,5.0735294 8.0876191,6 9.2190476,6 9.8057143,6 10.224762,5.7794118 10.476191,5.3823529 v 0.5294118 h 0.88 z m -3.2685719,0 c 0,-0.75 0.4609523,-1.3676471 1.215238,-1.3676471 0.7123809,0 1.2152379,0.5735294 1.2152379,1.3676471 0,0.7499999 -0.502857,1.367647 -1.2152379,1.367647 -0.7542857,-0.044118 -1.215238,-0.6176471 -1.215238,-1.367647 z"
           id="XMLID_1775_" />
      </g>
      <g
         id="XMLID_328_">
        <rect
           id="rect19"
           fill="#ff5f00"
           x="17.87554"
           y="3.2083375"
           width="13.248927"
           height="23.583332" />
        <path
           d="m 18.716738,15 c 0,-4.791667 2.271245,-9.0416667 5.762232,-11.7916667 C 21.913305,1.2083333 18.674678,0 15.141631,0 6.7716738,0 0,6.7083333 0,15 c 0,8.291667 6.7716738,15 15.141631,15 3.533047,0 6.771674,-1.208333 9.337339,-3.208333 -3.490987,-2.708334 -5.762232,-7 -5.762232,-11.791667 z"
           id="XMLID_330_"
           fill="#eb001b" />
        <path
           d="m 49,15 c 0,8.291667 -6.771674,15 -15.141631,15 -3.533047,0 -6.771674,-1.208333 -9.337339,-3.208333 3.533047,-2.75 5.762232,-7 5.762232,-11.791667 0,-4.791667 -2.271245,-9.0416667 -5.762232,-11.7916667 C 27.086695,1.2083333 30.325322,0 33.858369,0 42.228326,0 49,6.75 49,15 Z"
           id="path22"
           fill="#f79e1b" />
      </g>
    </g>
  </g>
</svg>
