<?xml version="1.0" encoding="utf-8"?>
<!-- Generator: Adobe Illustrator 26.5.0, SVG Export Plug-In . SVG Version: 6.00 Build 0)  -->
<svg version="1.1" xmlns="http://www.w3.org/2000/svg" xmlns:xlink="http://www.w3.org/1999/xlink" x="0px" y="0px"
	 viewBox="0 0 2323.9 841.89" style="enable-background:new 0 0 2323.9 841.89;" xml:space="preserve">
<style type="text/css">
	.st0{display:none;}
	.st1{fill:#212225;}
</style>
<g id="_x23_" class="st0">
</g>
<g id="LOGO">
	<g>
		<path class="st1" d="M260.83,286.08c0.92-3.33,8.34-29.99,5.53-39.43h89.45c17.94,0,30.96,17.09,26.18,34.39l-21.33,76.91
			c-5.21,18.05-21.73,30.47-40.52,30.47h-87.81L260.83,286.08z M594.81,246.63H500.7c2.22,7.47-1.83,25.76-4.08,34.74l-27.99,100.32
			c-10.86,36.5-26.14,69.34-73.58,69.37h-74.4c-41.14,0-77.24,27.42-88.27,67.05l-21.48,77.15h124.29l20.83-74.83
			c10.85-36.5,26.19-69.34,73.63-69.37h74.67c40.98,0,76.93-27.31,87.93-66.79l28.73-103.19
			C625.8,263.76,612.78,246.63,594.81,246.63z"/>
		<path class="st1" d="M1095.19,354.13c-0.71-0.76-0.9-0.89-1-1.08c-12.23-23.12-32.07-33.42-57.6-33.11
			c-23.22,0.29-43.23,9.21-58.86,26.21c-26.51,28.82-36.67,62.89-31,100.71c4.78,31.94,31.24,56.13,63.53,55.74
			c26.47-0.32,47.6-11.75,64.49-31.59c0.68-0.8,1.36-1.6,2.59-3.05l-4.41,29.74h52.02c8.9-57.64,17.77-115.16,26.67-172.8h-52.01
			L1095.19,354.13z M1086.38,408.09c-2.47,23.14-18.95,42-40.74,46.39c-3.22,0.65-6.52,0.87-9.79,1.28
			c-25.35-0.19-41.71-20.35-36.94-45.73c4.39-23.35,23.43-41.05,47.13-42.88C1071.57,365.19,1089,383.6,1086.38,408.09z
			 M1890.82,324.62c-8.86,57.44-17.72,115.36-26.62,173.03h-51.98l3.77-25.4c-0.17-0.08-0.34-0.16-0.51-0.24
			c-0.73,0.96-1.47,1.91-2.18,2.88c-16.98,23.34-48.27,33.63-74.99,24.3c-18.86-6.58-28.93-20.77-32.95-39.77
			c-3.15-14.86-1.46-29.64,0.82-44.4c4.64-30.07,9.32-60.13,13.99-90.2c0.02-0.02,0.04-0.03,0.06-0.05h51.97
			c-1.01,6.51-1.99,12.84-2.97,19.17c-3.9,25.38-7.88,50.74-11.65,76.14c-0.99,6.68-0.84,13.4,2.25,19.7
			c4.66,9.51,13.18,12.57,23.12,12.98c19.7,0.81,36.95-13.73,40.89-33.05c2.41-11.81,3.9-23.82,5.79-35.75
			c2.99-18.85,9.21-59.34,9.21-59.34C1854.99,324.7,1890.82,324.62,1890.82,324.62z M1641.75,255.78h52.04
			c-12.49,80.78-24.95,161.35-37.41,241.94h-52.03C1616.83,416.98,1629.29,336.41,1641.75,255.78z M2061.06,324.59l-4.81,30.11
			c-0.74-1.18-1.12-1.7-1.41-2.26c-8.52-16.51-22-26.81-40.02-30.71c-23.36-5.06-44.85,0.2-64.04,14.02
			c-22.31,16.07-34.79,38.58-40.56,65.03c-4.19,19.2-4.75,38.4,2.45,57.09c8.13,21.08,23.35,34.25,45.75,37.99
			c28.26,4.72,52.22-4.65,72.63-24.04c2.83-2.69,5.36-5.7,8.03-8.56c-0.53,4.81-1.11,9.59-1.77,14.34
			c-1.01,7.34-2.21,14.61-3.89,21.77c-3.17,13.52-12.08,22.84-24.87,27.95c-19.94,7.96-39.59,6.23-58.24-3.96
			c-6.45-3.53-11.92-8.86-18.21-13.66c-0.09,0.07-0.18,0.15-0.26,0.22l-31.43,37.77c16.68,15.67,42.5,26.96,66.25,28.65
			c25.26,1.79,49.26-2.57,71.48-14.91c25.33-14.08,42.13-35.11,47.71-63.66c1.31-6.7,2.5-13.43,3.64-20.17
			c3.14-18.69,5.76-37.48,8.71-56.2c3.45-21.89,6.81-43.78,10.18-65.68c1.57-10.2,4.63-31.13,4.63-31.13
			S2076.25,324.72,2061.06,324.59z M1997.7,452.1c-18.79,0.05-32.4-10.06-36.53-27.54c-2.5-10.6-0.4-20.78,4.12-30.5
			c9.52-20.47,32.17-32.25,54.38-28.36c17.95,3.14,29.87,18.4,29.11,37.27C2047.7,429.97,2024.76,452.03,1997.7,452.1z
			 M1538.99,321.44c-26.47-5.08-49.71,2.43-69.88,19.99c-4.32,3.76-8.64,7.52-11.99,10.43l4.04-27.17l-52.13-0.09
			c-3.51,22.9-37.17,241.87-37.9,247.07l51.9,0c5.28-34.45,10.54-68.75,15.8-103.08c0.33,0.08,0.5,0.07,0.54,0.14
			c0.46,0.78,0.9,1.57,1.34,2.36c8.95,16.16,22.37,26.62,40.55,30.02c26.17,4.89,49.42-1.99,69.47-19.31
			c17.18-14.84,27.6-33.95,33.27-55.63c5.36-20.51,7.1-41.29,0.8-61.93C1577.81,341.32,1562.98,326.04,1538.99,321.44z
			 M1535.34,408.3c-2.66,23.19-18.92,41.74-40.57,46.16c-3.33,0.68-6.75,0.9-10.12,1.33c-25.2-0.32-41.49-20.45-36.76-45.61
			c4.41-23.43,23.26-41.08,47.01-43C1520.72,365.09,1538.14,383.85,1535.34,408.3z M876.21,321.44
			c-26.47-5.08-49.71,2.43-69.88,19.99c-4.32,3.76-8.64,7.52-11.99,10.43l4.04-27.17l-52.13-0.09
			c-3.51,22.9-37.17,241.87-37.9,247.07l51.9,0c5.28-34.45,10.54-68.75,15.8-103.08c0.33,0.08,0.5,0.07,0.54,0.14
			c0.46,0.78,0.9,1.57,1.34,2.36c8.95,16.16,22.37,26.62,40.55,30.02c26.17,4.89,49.42-1.99,69.47-19.31
			c17.18-14.84,27.6-33.95,33.27-55.63c5.36-20.51,7.1-41.29,0.8-61.93C915.03,341.32,900.2,326.04,876.21,321.44z M872.56,408.3
			c-2.66,23.19-18.92,41.74-40.57,46.16c-3.33,0.68-6.75,0.9-10.12,1.33c-25.2-0.32-41.49-20.45-36.76-45.61
			c4.41-23.43,23.26-41.08,47.01-43C857.94,365.09,875.36,383.85,872.56,408.3z M1380.01,324.86l-112.4,246.8l-50.66,0
			c2.99-7.01,8.77-20.56,14.73-34.55c13.77-32.23,6.94-39.41-3.4-39.41h-28.83c-6.73,0-12.27-5.31-12.55-12.03l-6.92-160.81h52.31
			l6.09,145.4c1.04,15.53,15.38,16.23,22.67,0.04c0,0,0,0,0,0l65.38-145.44H1380.01z"/>
	</g>
</g>
</svg>
