<?xml version="1.0" encoding="UTF-8" standalone="no"?>
<svg
   xmlns:dc="http://purl.org/dc/elements/1.1/"
   xmlns:cc="http://creativecommons.org/ns#"
   xmlns:rdf="http://www.w3.org/1999/02/22-rdf-syntax-ns#"
   xmlns:svg="http://www.w3.org/2000/svg"
   xmlns="http://www.w3.org/2000/svg"
   xmlns:sodipodi="http://sodipodi.sourceforge.net/DTD/sodipodi-0.dtd"
   xmlns:inkscape="http://www.inkscape.org/namespaces/inkscape"
   width="35"
   height="22"
   viewBox="0 0 35 22"
   version="1.1"
   id="svg8"
   sodipodi:docname="Logo_postepay.svg"
   inkscape:version="1.0.2 (e86c870879, 2021-01-15)">
  <metadata
     id="metadata14">
    <rdf:RDF>
      <cc:Work
         rdf:about="">
        <dc:format>image/svg+xml</dc:format>
        <dc:type
           rdf:resource="http://purl.org/dc/dcmitype/StillImage" />
        <dc:title>Logo_postepay</dc:title>
      </cc:Work>
    </rdf:RDF>
  </metadata>
  <defs
     id="defs12" />
  <sodipodi:namedview
     pagecolor="#ffffff"
     bordercolor="#666666"
     borderopacity="1"
     objecttolerance="10"
     gridtolerance="10"
     guidetolerance="10"
     inkscape:pageopacity="0"
     inkscape:pageshadow="2"
     inkscape:window-width="1920"
     inkscape:window-height="1006"
     id="namedview10"
     showgrid="false"
     inkscape:zoom="15.253333"
     inkscape:cx="37.5"
     inkscape:cy="24"
     inkscape:window-x="0"
     inkscape:window-y="0"
     inkscape:window-maximized="1"
     inkscape:current-layer="svg8" />
  <title
     id="title2">Logo_postepay</title>
  <g
     id="Logo_postepay"
     stroke="none"
     stroke-width="1"
     fill="none"
     fill-rule="evenodd"
     transform="matrix(0.46579015,0,0,0.45367422,0.03286948,-0.04991326)">
    <g
       id="Group-6">
      <rect
         id="Rectangle-Copy"
         stroke="#888888"
         fill="#f4e624"
         x="0.5"
         y="0.5"
         width="74"
         height="47"
         rx="6" />
      <path
         d="m 57.939591,27.149706 c -1.104509,0.986575 -2.989665,1.320177 -4.1064,0.20433 -0.469252,-0.468897 -0.708189,-1.045158 -0.795177,-1.69842 -0.148051,-1.110531 0.332716,-1.920705 1.249725,-2.5125 1.299744,-0.83876 3.106125,-0.779409 4.61787,-0.774095 0.02285,-0.331948 0.100276,-0.661536 0.100276,-0.999744 -6e-5,-0.55813 -1.104626,-0.762756 -1.439942,-0.337381 -0.140374,0.178051 -0.259252,0.521929 -0.36561,0.734055 l -0.04766,0.09514 h -2.756865 l 0.02817,-0.196772 c 0.06047,-0.422716 0.22057,-0.810649 0.479704,-1.150275 0.667205,-0.874369 1.85109,-1.262835 2.908695,-1.352067 1.035473,-0.08734 2.41872,0.09041 3.239535,0.784134 0.780059,0.659351 0.853937,2.02512 0.63939,2.954535 l -0.639685,2.77104 c -0.152067,0.659055 -0.208406,1.416909 -0.208406,2.093265 v 0.172323 h -2.903625 v -0.787558 z m 0.636555,-3.369975 h -0.357402 c -0.332835,0 -0.69183,-0.0087 -1.01126,0.09791 -0.257481,0.08599 -0.590079,0.189509 -0.785669,0.385158 l -0.015,0.01506 -0.01825,0.01098 c -0.14687,0.08805 -0.270118,0.214429 -0.365491,0.355866 -0.216378,0.320847 -0.417815,1.034469 0.03449,1.260826 l 0.02504,0.01252 0.01978,0.01972 c 0.123307,0.123426 0.351613,0.162225 0.517618,0.162225 0.194409,0 0.384153,0.0014 0.562619,-0.08776 0.267165,-0.133347 0.50368,-0.210827 0.679842,-0.474981 l 0.0094,-0.01417 0.01205,-0.01205 c 0.471201,-0.47126 0.664015,-1.083897 0.692185,-1.731315 z m 5.324115,3.94647 -1.51671,-8.448075 h 2.80884 l 0.698622,5.28903 2.993805,-5.28903 h 2.74854 l -5.269725,8.892045 -1.540755,2.75226 h -3.091305 l 2.168685,-3.196245 z m -16.3326,-7.74744 c 0.698031,-0.615235 1.472302,-1.02065 2.458995,-1.02065 0.750826,0 1.533195,0.22937 2.047035,0.803622 0.529783,0.592086 0.715394,1.351122 0.789508,2.12391 0.02102,0.219509 0.02038,0.439311 0.02043,0.659587 4.14e-4,1.285924 -0.286299,2.635394 -1.008365,3.716924 -0.948071,1.42004 -3.246031,2.34756 -4.813696,1.438524 -0.314054,-0.182125 -0.585235,-0.450058 -0.797362,-0.752835 l -0.896103,4.081365 h -2.804535 l 0.04589,-0.20935 c 0.824113,-3.756435 1.590945,-7.52586 2.3442,-11.29707 l 0.02764,-0.138602 h 2.6322 l -0.04583,0.594567 z m -0.268524,2.00634 c -0.446397,0.813012 -0.5625,1.76451 -0.51183,2.67921 0.03514,0.634369 0.279685,1.389271 1.020059,1.436397 0.731634,0.04648 1.336475,-0.580335 1.638135,-1.184409 0.225886,-0.452244 0.419291,-0.951497 0.51874,-1.448622 0.134587,-0.672756 0.37996,-1.85793 -0.166181,-2.4033 -0.794704,-0.79376 -2.080635,0.158976 -2.498909,0.920728 z m -36.59265,5.50098 C 9.7876485,28.164151 8.131512,28.207026 7.128102,27.705766 6.766626,27.525235 6.4813305,27.27366 6.226566,26.977971 L 5.316822,30.922446 H 3.366642 L 5.893017,19.278141 h 1.71213 l -0.080965,0.969862 c 0.7099605,-0.662243 1.71036,-1.076515 2.665395,-1.076456 0.791397,0 1.474488,0.230374 2.040525,0.796652 0.597402,0.597815 0.956457,1.27937 1.009842,2.136555 0.04193,0.672815 -0.03425,1.328741 -0.219685,1.976925 -0.187973,0.657402 -0.398268,1.275177 -0.766418,1.856745 -0.403641,0.637677 -0.86433,1.201359 -1.547355,1.547655 z m 0.38876,-3.83604 c 0.199252,-0.497717 0.201024,-1.008424 0.201024,-1.534605 0,-0.460631 -0.195708,-0.825945 -0.490689,-1.166103 -0.9603545,-1.107402 -2.7450005,-0.05835 -3.2305505,1.023366 -0.550512,1.226515 -0.837165,1.74549 -0.837165,3.1272 0,0.458208 0.168957,0.737125 0.4823625,1.050591 0.312579,0.312637 0.6148815,0.376417 1.050531,0.376417 1.073976,0 1.652835,-0.395256 2.19708,-1.302106 0.287067,-0.478347 0.509114,-0.99567 0.618307,-1.544355 l 0.0031,-0.01559 0.006,-0.01482 z m 9.913409,-3.800085 c 0.654863,0.535098 0.95439,1.209686 1.022481,2.03805 0.06012,0.731575 -0.01789,1.488189 -0.219625,2.19366 -0.19689,0.688347 -0.489803,1.358091 -0.873012,1.96341 -0.411674,0.650314 -0.871713,1.103326 -1.561185,1.447972 -1.264842,0.632244 -3.679245,0.634725 -4.77555,-0.345826 -0.60065,-0.537284 -0.909981,-1.347875 -1.015039,-2.131005 -0.104764,-0.781064 0.0026,-1.55475 0.217853,-2.30853 0.205159,-0.718406 0.522579,-1.50024 0.990887,-2.085705 1.370375,-1.713135 4.48311,-2.185635 6.213195,-0.772028 z m -4.790144,6.50853 c 0.363484,0.331122 0.800846,0.494055 1.289645,0.389881 1.510696,-0.321732 2.69445,-3.246435 2.686245,-4.631865 -0.0029,-0.490039 -0.13122,-0.913582 -0.482539,-1.26496 -1.032992,-1.033524 -2.650275,0.03608 -3.248265,1.032637 -0.313524,0.522461 -0.516732,1.042205 -0.617362,1.645575 -0.141142,0.846083 -0.338622,2.181135 0.372283,2.828745 z m 11.569305,-5.06835 c -0.05835,-0.17817 -0.172736,-0.540591 -0.330887,-0.619665 -0.272363,-0.136358 -0.579213,-0.195236 -0.882519,-0.195236 -0.41504,0 -0.73122,0.06035 -1.076753,0.290964 -0.219094,0.14628 -0.465708,0.368208 -0.448524,0.657284 0.03278,0.550689 0.929232,1.083247 1.380827,1.280433 0.640747,0.279567 1.471653,0.708424 1.971615,1.208503 0.339744,0.339686 0.549448,0.803031 0.583464,1.282087 0.06348,0.891496 -0.297698,1.565189 -1.033524,2.072894 -0.811772,0.560079 -1.898145,0.776693 -2.869665,0.776693 -0.754607,0 -1.568085,-0.165945 -2.220825,-0.557421 -0.511122,-0.306614 -0.887421,-0.730985 -0.963485,-1.33807 -0.05285,-0.42183 0.04701,-0.7888 0.138544,-1.193327 l 0.03041,-0.134291 h 2.014785 l -0.124488,0.24939 c -0.156378,0.313051 -0.101516,1.088859 0.243189,1.261417 0.304725,0.152658 0.651497,0.195119 0.988641,0.195119 0.446576,0 1.012442,-0.06874 1.405866,-0.29687 0.340985,-0.197716 0.447165,-0.424192 0.447165,-0.81 0,-0.201378 -0.132756,-0.381496 -0.268936,-0.517735 -0.286418,-0.286299 -0.859961,-0.550098 -1.22693,-0.710019 -0.575079,-0.250748 -1.418503,-0.655985 -1.865025,-1.102442 -0.339625,-0.339567 -0.548799,-0.803445 -0.582874,-1.282146 -0.05728,-0.80557 0.20935,-1.410354 0.801909,-1.95153 0.720945,-0.658405 1.622475,-0.791457 2.567835,-0.791457 0.68811,0 1.639965,0.05982 2.228325,0.45561 0.521692,0.350906 0.802558,0.773031 0.925807,1.388208 l 0.0034,0.01677 v 0.935787 h -1.83732 v -0.570945 z m 3.686579,-0.494882 h -1.506795 l 0.422717,-1.411063 h 1.48246 l 0.418997,-1.88586 1.979295,-0.52754 -0.549272,2.307345 h 1.80408 l -0.282402,1.410531 h -1.816125 c -0.07913,0.335198 -0.170963,0.670985 -0.255118,1.004232 -0.144567,0.572186 -0.283759,1.146024 -0.407008,1.72317 -0.09549,0.447284 -0.546851,2.607526 -0.206162,2.94792 0.11002,0.109902 0.475275,0.162934 0.624567,0.162934 0.09083,0 0.18189,-0.0063 0.272244,-0.0153 0.253937,-0.02522 0.544665,-0.09148 0.794114,-0.09148 h 0.225767 l -0.41433,1.51713 h -0.131633 c -0.395315,0 -0.797481,0.06803 -1.191909,0.100807 -0.632658,0.0525 -1.235729,0.02079 -1.781985,-0.343052 -0.961949,-0.640747 -0.60567,-2.02653 -0.39183,-2.95329 l 0.910335,-3.94647 z m 5.35842,2.87853 c -0.827835,3.178815 2.94159,3.345465 3.432226,1.384311 l 0.03266,-0.130511 h 2.168025 l -0.05356,0.214192 c -0.22187,0.88683 -0.698622,1.521675 -1.458308,2.02098 -1.381063,0.907559 -3.771615,1.058859 -5.106375,-0.0095 -0.630886,-0.504921 -0.909213,-1.24878 -1.022598,-2.02854 -0.109251,-0.751594 0.02315,-1.475551 0.217619,-2.2014 0.500433,-1.86714 1.94433,-3.659355 3.938325,-3.97854 0.185787,-0.02976 0.373701,-0.04553 0.56185,-0.04683 2.68542,-0.01772 4.00305,2.202285 3.18525,4.65792 l -0.03933,0.117933 h -5.85579 z m 4.21848,-1.197697 c 0.542363,-1.932045 -1.716915,-2.856195 -3.055455,-1.517835 -0.44114,0.441141 -0.671634,0.925098 -0.774921,1.517835 h 3.83037 z"
         id="_414284472"
         fill="#1d60b4" />
    </g>
  </g>
</svg>
