<?xml version="1.0" encoding="UTF-8" standalone="no"?>
<svg
   xmlns:dc="http://purl.org/dc/elements/1.1/"
   xmlns:cc="http://creativecommons.org/ns#"
   xmlns:rdf="http://www.w3.org/1999/02/22-rdf-syntax-ns#"
   xmlns:svg="http://www.w3.org/2000/svg"
   xmlns="http://www.w3.org/2000/svg"
   xmlns:sodipodi="http://sodipodi.sourceforge.net/DTD/sodipodi-0.dtd"
   xmlns:inkscape="http://www.inkscape.org/namespaces/inkscape"
   width="35"
   height="22"
   viewBox="0 0 35 22"
   version="1.1"
   id="svg12"
   sodipodi:docname="Logo_visa.svg"
   inkscape:version="1.0.2 (e86c870879, 2021-01-15)">
  <metadata
     id="metadata18">
    <rdf:RDF>
      <cc:Work
         rdf:about="">
        <dc:format>image/svg+xml</dc:format>
        <dc:type
           rdf:resource="http://purl.org/dc/dcmitype/StillImage" />
        <dc:title>Logo_visa</dc:title>
      </cc:Work>
    </rdf:RDF>
  </metadata>
  <defs
     id="defs16" />
  <sodipodi:namedview
     pagecolor="#ffffff"
     bordercolor="#666666"
     borderopacity="1"
     objecttolerance="10"
     gridtolerance="10"
     guidetolerance="10"
     inkscape:pageopacity="0"
     inkscape:pageshadow="2"
     inkscape:window-width="1920"
     inkscape:window-height="1006"
     id="namedview14"
     showgrid="false"
     inkscape:zoom="15.253333"
     inkscape:cx="37.5"
     inkscape:cy="24"
     inkscape:window-x="0"
     inkscape:window-y="0"
     inkscape:window-maximized="1"
     inkscape:current-layer="svg12" />
  <title
     id="title2">Logo_visa</title>
  <g
     id="Logo_visa"
     stroke="none"
     stroke-width="1"
     fill="none"
     fill-rule="evenodd"
     transform="matrix(0.46579015,0,0,0.45367422,0.03286948,-0.04991326)">
    <rect
       id="Rectangle"
       stroke="#888888"
       fill="#ffffff"
       x="0.5"
       y="0.5"
       width="74"
       height="47"
       rx="6" />
    <g
       id="Visa_Inc._logo"
       transform="translate(7,14)"
       fill-rule="nonzero">
      <polygon
         id="polygon9"
         fill="#00579f"
         points="26.361167,19.322034 21.355932,19.322034 24.486565,0 29.491525,0 " />
      <path
         d="M 43.728814,0.79631322 C 42.792655,0.41785948 41.307831,0 39.47185,0 c -4.68702,0 -7.987582,2.5468271 -8.007826,6.1880228 -0.03893,2.6864662 2.363105,4.1785952 4.159637,5.0743482 1.83624,0.915324 2.460432,1.512757 2.460432,2.328641 -0.01869,1.253049 -1.483786,1.830648 -2.85026,1.830648 -1.894897,0 -2.910215,-0.297791 -4.453176,-0.994929 l -0.62497,-0.298849 -0.664162,4.198694 c 1.113164,0.516771 3.164044,0.975358 5.293305,0.995458 4.98004,0 8.222205,-2.507421 8.260617,-6.387696 0.01895,-2.129232 -1.249423,-3.7607356 -3.983929,-5.0939189 -1.660013,-0.8558186 -2.676629,-1.4328878 -2.676629,-2.3085414 0.01947,-0.7960488 0.859854,-1.6114037 2.733728,-1.6114037 1.542961,-0.039935 2.676629,0.3379901 3.535444,0.7161794 l 0.429278,0.1986155 z"
         id="path11"
         fill="#00579f" />
      <path
         d="m 50.166004,12.4771 c 0.396775,-1.110041 1.923539,-5.4062241 1.923539,-5.4062241 -0.02002,0.041254 0.395984,-1.1305314 0.63389,-1.849886 l 0.336705,1.6649248 c 0,0 0.912371,4.6251253 1.110494,5.5911853 -0.752975,0 -3.053002,0 -4.004628,0 z M 56.11314,0 H 52.386465 C 51.237242,0 50.364128,0.34915882 49.868292,1.6031799 L 42.711864,19.322034 h 5.055316 c 0,0 0.832277,-2.384826 1.011168,-2.898455 0.554589,0 5.472377,0 6.185833,0 0.138318,0.678373 0.574875,2.898455 0.574875,2.898455 H 60 Z"
         id="path13"
         fill="#00579f" />
      <path
         d="M 17.1888,1.0169491 12.387553,13.512516 11.862898,10.978269 C 10.975248,8.0540778 8.1913878,4.8770059 5.0847458,3.2972794 L 9.4825154,19.322034 H 14.666865 L 22.372881,1.0169491 Z"
         id="path15"
         fill="#00579f" />
      <path
         d="M 8.170136,0 H 0.08273764 L 0,0.3779605 c 6.3086765,1.5523094 10.48679,5.294092 12.20339,9.7915305 L 10.445284,1.5724109 C 10.155839,0.37769601 9.266341,0.03940946 8.170136,0 Z"
         id="path17"
         fill="#faa61a" />
    </g>
  </g>
</svg>
