<?xml version="1.0" encoding="UTF-8"?>
<svg width="40px" height="40px" viewBox="0 0 40 40" version="1.1" xmlns="http://www.w3.org/2000/svg" xmlns:xlink="http://www.w3.org/1999/xlink">
    <title>AXP_BlueBoxLogo_Alternate_REGULARscale_RGB_DIGITAL_700x700</title>
    <g id="IP-FR---desktop" stroke="none" stroke-width="1" fill="none" fill-rule="evenodd">
        <g id="IP-placeholders-fr---Desktop-saved-card-Copy" transform="translate(-915, -1180,5)" fill-rule="nonzero">
            <g id="Group-2" transform="translate(679,9564, 1180,5)">
                <g id="AXP_BlueBoxLogo_Alternate_REGULARscale_RGB_DIGITAL_700x700" transform="translate(235,0436, 0)">
                    <polygon id="polygon4" fill="#FFFFFF" points="40 40 20.1197607 40 0 40 0 19.8012012 0 0 19.8519189 0 40 0 40 19.9980005"></polygon>
                    <path d="M40,40 L40,33.6618359 L35.1743262,33.6618359 L32.6898389,30.9146387 L30.1928027,33.6618359 L14.2821631,33.6618359 L14.2821631,20.8581592 L9.1468811,20.8581592 L15.5166406,6.44271972 L21.6596777,6.44271972 L23.8525635,11.3812012 L23.8525635,6.44271972 L31.4564795,6.44271972 L32.7767236,10.1641602 L34.1056006,6.44271972 L40,6.44271972 L40,0 L0,0 L0,40 L40,40 L40,40 Z M35.9872022,32.0587988 L40,32.0587988 L34.6917578,26.4296802 L40,20.8645605 L36.05104,20.8645605 L32.7728809,24.4467993 L29.5262402,20.8645605 L25.5124805,20.8645605 L30.7896826,26.4616797 L25.5124805,32.0587988 L29.4145606,32.0587988 L32.7087988,28.4446436 L35.9872022,32.0587988 L35.9872022,32.0587988 Z M36.926001,26.4343994 L40,29.7047192 L40,23.1913599 L36.926001,26.4343994 L36.926001,26.4343994 Z M19.0358398,29.4681592 L19.0358398,27.7249609 L25.3524023,27.7249609 L25.3524023,25.1982373 L19.0358398,25.1982373 L19.0358398,23.4552808 L25.5122412,23.4552808 L25.5122412,20.8645605 L15.9812793,20.8645605 L15.9812793,32.0587988 L25.5122412,32.0587988 L25.5122412,29.4681592 L19.0358398,29.4681592 L19.0358398,29.4681592 Z M36.9774414,19.2400806 L40,19.2400806 L40,8.04583984 L35.2983203,8.04583984 L32.7875195,15.018081 L30.2928809,8.04583984 L25.5114404,8.04583984 L25.5114404,19.2400806 L28.5337598,19.2400806 L28.5337598,11.4041602 L31.4123975,19.2400806 L34.098877,19.2400806 L36.9774414,11.3880005 L36.9774414,19.2400806 L36.9774414,19.2400806 Z M22.0732031,19.2400806 L25.5114404,19.2400806 L20.5702393,8.04583985 L16.6361621,8.04583985 L11.6944812,19.2400806 L15.0528027,19.2400806 L15.9804785,17.0012793 L21.1296826,17.0012793 L22.0732031,19.2400806 L22.0732031,19.2400806 Z M20.0743994,14.490481 L17.0357617,14.490481 L18.5551221,10.8283984 L20.0743994,14.490481 L20.0743994,14.490481 Z" id="path6" fill="#006FCF"></path>
                </g>
            </g>
        </g>
    </g>
</svg>