<?xml version="1.0" encoding="UTF-8"?>
<svg width="99.5415493px" height="10px" viewBox="0 0 99.5415493 10" version="1.1" xmlns="http://www.w3.org/2000/svg" xmlns:xlink="http://www.w3.org/1999/xlink">
    <title>Bancontact-Horizontal-logo-RGB</title>
    <defs>
        <linearGradient x1="20.226837%" y1="50.7453904%" x2="93.3811287%" y2="39.8271592%" id="linearGradient-1">
            <stop stop-color="#005AB9" offset="0%"></stop>
            <stop stop-color="#1E3764" offset="100%"></stop>
        </linearGradient>
        <linearGradient x1="6.05474525%" y1="59.4736359%" x2="83.7294378%" y2="48.8249355%" id="linearGradient-2">
            <stop stop-color="#FBA900" offset="0%"></stop>
            <stop stop-color="#FFD800" offset="100%"></stop>
        </linearGradient>
    </defs>
    <g id="IP-FR---desktop" stroke="none" stroke-width="1" fill="none" fill-rule="evenodd">
        <g id="IP-placeholders-fr---Desktop-saved-card-Copy" transform="translate(-855,4585, -1136)" fill-rule="nonzero">
            <g id="Group-3" transform="translate(679,9564, 1131,5)">
                <g id="Bancontact-Horizontal-logo-RGB" transform="translate(175,5021, 4,5)">
                    <path d="M31.4860865,9.83042764 L31.4860865,0 L34.5194788,0 C36.7243103,0 38.1427068,0.828560956 38.1427068,2.54187532 C38.1427068,3.51087956 37.6933159,4.18496601 37.0613542,4.57816722 C37.9741605,4.99942818 38.5078118,5.81395792 38.5078118,6.9234068 C38.5078118,8.90357652 37.0613542,9.83042764 34.8143966,9.83042764 L31.4860865,9.83042764 Z M33.4381275,4.08661098 L34.8846203,4.08661098 C35.7693372,4.08661098 36.1485424,3.65124989 36.1485424,2.85082029 C36.1485424,1.99412798 35.4603896,1.71331031 34.5335114,1.71331031 L33.4381275,1.71331031 L33.4381275,4.08661098 Z M33.4381275,8.11710383 L34.6458571,8.11710383 C35.8255283,8.11710383 36.513646,7.82218737 36.513646,6.895343 C36.513646,5.98253661 35.9238455,5.60335986 34.8143966,5.60335986 L33.4381275,5.60335986 L33.4381275,8.11710383 Z M42.2933385,9.99892527 C40.3693653,9.99892527 39.400353,9.05804833 39.400353,7.79412628 C39.400353,6.40379082 40.5378967,5.58925838 42.2231149,5.57522986 C42.6418785,5.58287938 43.0595607,5.62043571 43.4729719,5.68761205 L43.4729719,5.35053438 C43.4729719,4.49391233 42.9814535,4.08661098 42.0405455,4.08661098 C41.4066957,4.07867387 40.7772696,4.19312592 40.1867878,4.42369001 L39.8357141,2.90701138 C40.4395795,2.65418455 41.4085838,2.48568017 42.265241,2.48568017 C44.3296277,2.48568017 45.3547893,3.58109918 45.3547893,5.47694644 L45.3547893,9.38102587 C44.7790228,9.67594638 43.6976701,9.99892527 42.2933385,9.99892527 L42.2933385,9.99892527 Z M43.4729746,8.41202163 L43.4729746,6.90937558 C43.1455607,6.83656989 42.8113149,6.79889605 42.4759093,6.79699338 C41.8298826,6.79699338 41.3243343,7.04982022 41.3243343,7.70987679 C41.3243343,8.29971104 41.7456304,8.60866007 42.4899324,8.60866007 C42.8283841,8.6196999 43.1648112,8.55240513 43.4729746,8.41202433 L43.4729746,8.41202163 Z M46.7192268,9.83042764 L46.7192268,3.10357957 C47.7284182,2.69821781 48.8055068,2.48852531 49.8930625,2.48568287 C51.9433856,2.48568287 53.1230554,3.49677943 53.1230554,5.36456695 L53.1230554,9.83042764 L51.1850416,9.83042764 L51.1850416,5.50501024 C51.1850416,4.536006 50.7356506,4.08661368 49.8789934,4.08661368 C49.4536266,4.08065308 49.0320165,4.16690653 48.6431662,4.33944052 L48.6431662,9.83042764 L46.7192268,9.83042764 Z M59.895683,2.90702084 L59.5305375,4.43772258 C59.028869,4.22035105 58.4901815,4.10116394 57.9436379,4.08661368 C56.8061279,4.08661368 56.1881974,4.8871149 56.1881974,6.20722804 C56.1881974,7.65368569 56.834189,8.39799446 58.0419551,8.39799446 C58.5809412,8.38324434 59.1112946,8.25901242 59.6007598,8.03285434 L59.9097075,9.59169418 C59.2738241,9.87467166 58.5832937,10.0137266 57.8874454,9.99892527 C55.5562357,9.99892527 54.2080615,8.55246762 54.2080615,6.26335023 C54.2080615,3.98833162 55.5422059,2.48561739 57.7751335,2.48561739 C58.5031227,2.48210239 59.2243543,2.62540392 59.895679,2.90701409 L59.895683,2.90702084 Z M64.0823852,9.99893203 C61.9196799,9.99893203 60.5715056,8.49628328 60.5715056,6.23529454 C60.5715056,3.98833702 61.9196799,2.48568827 64.0823852,2.48568827 C66.2591204,2.48568827 67.5791984,3.98833702 67.5791984,6.23529454 C67.5791984,8.49627652 66.2591163,9.99893203 64.0823811,9.99893203 L64.0823852,9.99893203 Z M64.0823852,8.39800121 C65.0794856,8.39800121 65.5990638,7.56944026 65.5990638,6.23529589 C65.5990638,4.91518275 65.0794856,4.08662044 64.0823852,4.08662044 C63.0993497,4.08662044 62.5516402,4.91518275 62.5516402,6.23529589 C62.5516402,7.5694335 63.0993457,8.39800121 64.0823811,8.39800121 L64.0823852,8.39800121 Z M68.700691,9.83042764 L68.700691,3.10357957 C69.7098824,2.69821781 70.7869711,2.48852531 71.8745267,2.48568287 C73.9248485,2.48568287 75.1045183,3.49677943 75.1045183,5.36456695 L75.1045183,9.83042764 L73.1665098,9.83042764 L73.1665098,5.50501024 C73.1665098,4.536006 72.7171175,4.08661368 71.8604617,4.08661368 C71.4350948,4.08065278 71.0134847,4.16690624 70.6246345,4.33944052 L70.6246345,9.83042764 L68.700691,9.83042764 Z M79.4751558,9.99893203 C77.8040041,9.99893203 76.9473469,9.08611888 76.9473469,7.23236123 L76.9473469,4.19899723 L75.9923725,4.19899723 L75.9923725,2.65418725 L76.9473469,2.65418725 L76.9473469,1.0953474 L78.8853216,0.99706534 L78.8853216,2.65418725 L80.4441614,2.65418725 L80.4441614,4.19899723 L78.8853216,4.19899723 L78.8853216,7.20429338 C78.8853216,8.01882446 79.2223993,8.39799446 79.8543258,8.39799446 C80.1047721,8.3973659 80.3543847,8.36911095 80.5986346,8.31374226 L80.6969518,9.87258211 C80.2958782,9.96140555 79.8859184,10.0037986 79.4751558,9.99892527 L79.4751558,9.99893203 Z M84.3668159,9.99893203 C82.4428426,9.99893203 81.4738303,9.05805778 81.4738303,7.79413574 C81.4738303,6.40380027 82.6113741,5.58926784 84.2965922,5.57523932 C84.7153558,5.5828889 85.133038,5.62044523 85.5464492,5.68762151 L85.5464492,5.35054384 C85.5464492,4.49392179 85.0549308,4.08662044 84.1140215,4.08662044 C83.4801722,4.07868347 82.8507465,4.19313551 82.2602652,4.42369947 L81.9091914,2.90702084 C82.5130569,2.65419401 83.4820611,2.48568962 84.3387183,2.48568962 C86.4031051,2.48568962 87.4282666,3.58110864 87.4282666,5.4769559 L87.4282666,9.38103533 C86.8525001,9.67594638 85.7711542,9.99893203 84.3668159,9.99893203 L84.3668159,9.99893203 Z M85.5464519,8.41203108 L85.5464519,6.90937558 C85.2190265,6.836568 84.8847688,6.79889415 84.5493515,6.79699338 C83.9033599,6.79699338 83.3978049,7.04982022 83.3978049,7.70987679 C83.3978049,8.29971104 83.8191009,8.60866007 84.5634097,8.60866007 C84.9018618,8.619704 85.2382898,8.55240905 85.5464519,8.41202433 L85.5464519,8.41203108 Z M94.0588593,2.90702084 L93.6937192,4.43772934 C93.1920508,4.22035758 92.6533632,4.10117046 92.1068196,4.08662044 C90.9693096,4.08662044 90.3513791,4.88712165 90.3513791,6.20723479 C90.3513791,7.65369245 90.9973707,8.39800121 92.2051368,8.39800121 C92.744123,8.3832514 93.2744764,8.25901946 93.7639415,8.03286109 L94.0729243,9.59170094 C93.4370385,9.87467095 92.7465099,10.0137255 92.0506623,9.99893203 C89.7194188,9.99893203 88.3712445,8.55247437 88.3712445,6.26335698 C88.3712445,3.98833837 89.7053876,2.48562395 91.9382801,2.48562395 C92.66628,2.48210379 93.3875233,2.62540306 94.0588593,2.90701409 L94.0588593,2.90702084 Z M98.3197506,9.99893203 C96.6485975,9.99893203 95.7919417,9.08611888 95.7919417,7.23236123 L95.7919417,4.19899723 L94.8369673,4.19899723 L94.8369673,2.65418725 L95.7919417,2.65418725 L95.7919417,1.0953474 L97.729915,0.99706534 L97.729915,2.65418725 L99.2887549,2.65418725 L99.2887549,4.19899723 L97.7299177,4.19899723 L97.7299177,7.20429338 C97.7299177,8.01882446 98.0669968,8.39799446 98.6989233,8.39799446 C98.9493696,8.39736583 99.1989822,8.36911087 99.4432321,8.31374226 L99.5415493,9.87258211 C99.1404748,9.96140568 98.7305141,10.0037987 98.3197506,9.99892527 L98.3197506,9.99893203 Z" id="Bancontact" fill="#1E3764"></path>
                    <path d="M4.85938887,9.83041954 C8.54578235,9.83041954 10.3889784,7.37281668 12.2321758,4.91521517 L0,4.91521517 L0,9.83041954 L4.85938887,9.83041954 Z" id="blue-symbol" fill="url(#linearGradient-1)"></path>
                    <path d="M19.6049614,1.08088383e-05 C15.918568,1.08088383e-05 14.0753719,2.45761367 12.2321758,4.91521517 L24.4643503,4.91521517 L24.4643503,1.08088383e-05 L19.6049614,1.08088383e-05 Z" id="yellow-symbol" fill="url(#linearGradient-2)"></path>
                </g>
            </g>
        </g>
    </g>
</svg>