<?xml version="1.0" encoding="UTF-8"?>
<svg width="95.9044616px" height="22px" viewBox="0 0 95.9044616 22" version="1.1" xmlns="http://www.w3.org/2000/svg" xmlns:xlink="http://www.w3.org/1999/xlink">
    <title>Giropay_horizontal</title>
    <g id="IP-FR---desktop" stroke="none" stroke-width="1" fill="none" fill-rule="evenodd">
        <g id="IP-placeholders-fr---Desktop-saved-card-Copy" transform="translate(-859,0955, -1371,5)" fill-rule="nonzero">
            <g id="Group-6" transform="translate(679,9564, 1371,5)">
                <g id="Giropay_horizontal" transform="translate(179,1392, 0)">
                    <polygon id="Path" fill="#1F3A6A" points="11.7890588 5.00835567 10.4537285 5.00835567 10.4537285 5.36906826 11.5046508 5.36906826 14.1232855 16.1349519 0.610436702 16.1349519 3.22560303 5.36906826 4.27999369 5.36906826 4.27999369 5.00835567 2.94119502 5.00835567 0 16.6135898 14.7337222 16.6135898"></polygon>
                    <path d="M9.94387514,0.315623522 L4.78984708,0.315623522 C4.47569866,0.315623522 4.22103106,0.570291128 4.22103106,0.88443954 L4.22103106,5.94135267 L4.69966893,5.94135267 L4.69966893,0.88443954 C4.69966893,0.834635523 4.74004306,0.794261391 4.78984708,0.794261391 L5.83036418,0.794261391 L5.83036418,4.46728677 L4.86615166,4.46728677 L6.2535078,5.94135267 L8.50102475,5.94135267 L9.88838089,4.46728677 L8.92763676,4.46728677 L8.92763676,0.794261391 L9.96815387,0.794261391 C10.0179579,0.794261391 10.058332,0.834635523 10.058332,0.88443954 L10.058332,5.94135267 L10.5369701,5.94135267 L10.5369701,0.88443954 C10.5371113,0.729277815 10.4738614,0.580792572 10.3618774,0.473392635 C10.2498933,0.365992698 10.0988955,0.309000698 9.94387514,0.315623522 Z" id="Path" fill="#5DC4E9"></path>
                    <path d="M6.28472332,12.1879237 L8.45246729,12.1879237 C8.58712751,12.1879237 8.69682638,12.0797832 8.698723,11.9451364 C8.698723,11.9451364 8.698723,11.9451364 8.698723,11.924326 L8.61548163,10.5057544 C8.60466959,10.3601017 8.48405713,10.2470275 8.33801041,10.2456251 L6.3991802,10.2456251 C6.25313347,10.2470275 6.13252101,10.3601017 6.12170897,10.5057544 L6.0384676,11.924326 C6.03054063,12.059134 6.13265955,12.1751782 6.26738137,12.1844553 L6.28472332,12.1879237 Z" id="Path" fill="#1F3A6A"></path>
                    <path d="M5.20258553,10.2456251 L3.24294498,10.2456251 C3.0946503,10.2554633 2.96910524,10.3586892 2.93078985,10.502286 L2.64291345,11.9312628 C2.61654339,12.041196 2.68276228,12.1520741 2.79205423,12.1809869 L2.85101687,12.1809869 L5.0326344,12.1809869 C5.17944232,12.1783336 5.3013344,12.0668469 5.31704241,11.9208576 L5.43843607,10.4988176 C5.44521758,10.4361991 5.42667099,10.3734696 5.38692884,10.3246063 C5.34718669,10.275743 5.28955107,10.2448059 5.22686426,10.2386883 L5.20258553,10.2456251 Z" id="Path" fill="#1F3A6A"></path>
                    <path d="M6.37143308,9.68027747 L8.36228914,9.68027747 C8.4144004,9.68120818 8.46469925,9.66115635 8.50187804,9.62462982 C8.53905683,9.58810329 8.55998739,9.53816718 8.55998739,9.48604761 C8.55998739,9.48604761 8.55998739,9.48604761 8.55998739,9.48604761 L8.49408797,8.35188397 C8.48511896,8.23551473 8.38881634,8.14523103 8.27211099,8.14378055 L6.46161122,8.14378055 C6.34490587,8.14523103 6.24860326,8.23551473 6.23963424,8.35188397 L6.17373483,9.48604761 C6.16992094,9.53759138 6.1868079,9.58852962 6.22065777,9.62758716 C6.25450765,9.66664471 6.30252856,9.69060018 6.35409112,9.69415103 L6.37143308,9.68027747 Z" id="Path" fill="#1F3A6A"></path>
                    <path d="M5.44537285,8.12643859 L3.61406275,8.12643859 C3.49434567,8.13091864 3.39226024,8.21457198 3.36433864,8.33107362 L3.13542488,9.47564244 C3.11359848,9.56468427 3.16786746,9.65461573 3.25681854,9.67680908 L5.31357402,9.67680908 C5.43167503,9.67569211 5.5301536,9.58616614 5.54248778,9.46870566 L5.63960271,8.33107362 C5.64969842,8.22680947 5.57383055,8.13391004 5.46965158,8.1229702 L5.44537285,8.12643859 Z" id="Path" fill="#1F3A6A"></path>
                    <path d="M11.4248778,9.68027747 C11.4765145,9.68165649 11.5258661,9.65898866 11.558465,9.61891924 C11.5910638,9.57884982 11.6032166,9.52591846 11.5913606,9.47564244 L11.3589784,8.33107362 C11.3310568,8.21457198 11.2289714,8.13091864 11.1092543,8.12643695 L9.28488097,8.12643695 C9.23113472,8.126216 9.17978828,8.14867659 9.14347031,8.1882962 C9.10715233,8.22791581 9.08923298,8.2810179 9.0941195,8.33454201 L9.19123443,9.47217405 C9.20356861,9.58963453 9.30204718,9.6791605 9.42014819,9.68027747 L11.4248778,9.68027747 Z" id="Path" fill="#1F3A6A"></path>
                    <path d="M6.45814283,7.62699038 L8.27557938,7.62699038 C8.32125113,7.62792265 8.36537528,7.61042955 8.39800142,7.57845593 C8.43062757,7.5464823 8.4489989,7.50272052 8.4489989,7.45703926 C8.4489989,7.45703926 8.4489989,7.45703926 8.4489989,7.45703926 L8.39697304,6.5795365 C8.38978024,6.47712491 8.30539536,6.39726065 8.20274318,6.39571181 L6.53097903,6.39571181 C6.42832685,6.39726065 6.34394197,6.47712491 6.33674917,6.5795365 L6.28472332,7.45703926 C6.28090572,7.50270862 6.29569405,7.54798414 6.32573349,7.58259479 C6.35577292,7.61720544 6.39851711,7.63821739 6.44426927,7.64086394 L6.45814283,7.62699038 Z" id="Path" fill="#1F3A6A"></path>
                    <path d="M11.0398865,7.62699038 C11.0853578,7.62830325 11.128832,7.6082988 11.1574152,7.57291004 C11.1859984,7.53752128 11.1964089,7.4908115 11.1855589,7.44663408 L11.0052026,6.56219455 C10.9806147,6.46015049 10.8915488,6.38663576 10.786694,6.38183578 L9.10452467,6.38183578 C9.05719499,6.38158069 9.0119929,6.4014806 8.98022099,6.43656208 C8.94844908,6.47164357 8.93311099,6.51859011 8.93804194,6.56566294 L9.01434652,7.44316569 C9.02475273,7.54538288 9.10934174,7.62403582 9.21204477,7.62699038 L11.0398865,7.62699038 Z" id="Path" fill="#1F3A6A"></path>
                    <path d="M5.63613432,6.38530664 L3.94009144,6.38530664 C3.83479048,6.38893686 3.74510914,6.46295956 3.72158285,6.56566294 L3.54469494,7.45010248 C3.52491009,7.52763555 3.57136726,7.60661274 3.64874665,7.62699038 L5.52861422,7.62699038 C5.63131725,7.62403582 5.71590626,7.54538288 5.72631247,7.44316569 L5.80261706,6.56566294 C5.81067396,6.47484883 5.74418774,6.3944469 5.65347627,6.38530664 L5.63613432,6.38530664 Z" id="Path" fill="#1F3A6A"></path>
                    <path d="M11.879237,12.1879237 C11.9450485,12.1923666 12.0089665,12.1648139 12.0509228,12.1139161 C12.092879,12.0630184 12.1077284,11.9950173 12.0908088,11.9312628 L11.8029324,10.502286 C11.764617,10.3586892 11.6390719,10.2554633 11.4907772,10.2456251 L9.53807347,10.2456251 C9.47047847,10.2442703 9.4055523,10.2719889 9.35977747,10.3217441 C9.31400265,10.3714994 9.29178125,10.4385064 9.29875453,10.5057544 L9.42014819,11.9277944 C9.43585621,12.0737837 9.55774828,12.1852703 9.7045562,12.1879237 L11.879237,12.1879237 Z" id="Path" fill="#1F3A6A"></path>
                    <path d="M8.4108466,12.8295715 L6.28819171,12.8295715 C6.10940379,12.8286799 5.95922944,12.9638369 5.94135267,13.141731 L5.83730096,14.9418256 C5.82739151,15.1034752 5.94973357,15.2428522 6.1113038,15.2540014 L8.53917705,15.2540014 C8.61736796,15.2549061 8.69272339,15.2247295 8.74866322,15.1700906 C8.80460305,15.1154516 8.83654413,15.040827 8.83745862,14.962636 C8.83745862,14.962636 8.83745862,14.962636 8.83745862,14.9383572 L8.73340691,13.1382627 C8.71520778,12.9706434 8.57910362,12.8403931 8.4108466,12.8295715 Z" id="Path" fill="#1F3A6A"></path>
                    <path d="M4.91817752,12.8295759 L2.78164906,12.8295759 C2.60178974,12.837084 2.44880653,12.9631535 2.4070629,13.1382627 L2.04288192,14.9487624 C2.02268826,15.0252057 2.04042772,15.1066963 2.0905698,15.1678284 C2.14071187,15.2289605 2.2171577,15.2622986 2.29607441,15.2574492 L4.72394766,15.2574492 C4.90273557,15.2583451 5.05290992,15.1231882 5.07078669,14.945294 L5.22339587,13.141731 C5.23956293,12.9856488 5.12626262,12.8459635 4.97020337,12.8295759 L4.91817752,12.8295759 Z" id="Path" fill="#1F3A6A"></path>
                    <path d="M12.3266593,13.1382627 C12.2845669,12.9619518 12.1297717,12.8355594 11.9486048,12.8295759 L9.79820274,12.8295759 C9.71710911,12.8281988 9.63928516,12.8615093 9.58430055,12.9211311 C9.52931594,12.980753 9.50240194,13.0610138 9.51032634,13.141731 L9.66293552,14.945294 C9.68081229,15.1231882 9.83098664,15.2583451 10.0097746,15.2574492 L12.4376478,15.2574492 C12.5165645,15.2622986 12.5930103,15.2289605 12.6431524,15.1678284 C12.6932945,15.1066963 12.7110339,15.0252057 12.6908403,14.9487624 L12.3266593,13.1382627 Z" id="Path" fill="#1F3A6A"></path>
                    <path d="M39.2795207,5.01182406 L37.2401072,5.01182406 L37.2401072,16.6135898 L39.2795207,16.6135898 L39.2795207,5.01182406 Z M32.6514268,10.8872773 C32.6659654,11.7636938 32.4340222,12.6265703 31.9820274,13.3775816 C31.5404072,14.2203259 30.7271842,14.805425 29.787779,14.9563033 C28.8483738,15.1071816 27.8928313,14.8061647 27.2095223,14.1440959 C26.4427691,13.2050412 26.0698113,12.0053602 26.1690052,10.7970992 C26.06604,9.48923145 26.5608275,8.20507952 27.5147407,7.30443008 C28.0019879,6.83162829 28.653252,6.56565406 29.3321772,6.56219455 C30.0350737,6.58151193 30.7118558,6.83271392 31.2571338,7.27668296 C32.7346681,8.51142992 32.6687687,10.7797572 32.6687687,10.8907457 M33.7092858,19.8634715 C34.572915,18.7223711 34.6422828,17.5361816 34.7047139,15.10484 L34.6804351,5.01182406 L32.7381365,5.01182406 L32.7381365,6.81885543 C32.4825643,6.40975285 32.1668732,6.04144661 31.8016711,5.72631247 C31.0209947,5.08895033 30.0339481,4.75952352 29.0269589,4.80025225 C27.4625023,4.80344013 26.0017253,5.58321436 25.1284881,6.88128646 C24.3301657,8.07009073 23.9272092,9.48043871 23.9769825,10.911556 C23.9657463,11.7396407 24.0827442,12.5644757 24.3238215,13.3567712 C24.6117046,14.344468 25.174696,15.2298562 25.9470282,15.9095065 C26.8120214,16.6140097 27.9146502,16.9592021 29.0269589,16.8737191 C30.03409,16.8358307 31.0042061,16.4841636 31.8016711,15.8678859 C32.1005167,15.613569 32.3630901,15.3194868 32.582059,14.9938515 L32.582059,16.5858427 C32.5659948,17.1105944 32.4748926,17.6303442 32.3115245,18.1292764 C32.2004906,18.4555665 32.0233854,18.7554646 31.791266,19.0102475 C31.1175881,19.7435251 30.1446526,20.1270739 29.1518209,20.0507646 C28.1478172,20.0470167 27.1510467,19.8806931 26.2002207,19.5582532 C25.8021373,19.4081735 25.4189487,19.2212239 25.0556519,18.9998423 L24.8406117,21.0184455 C25.1666404,21.1502444 25.4059593,21.2404225 25.7562668,21.3652846 C26.8151893,21.688864 27.9162325,21.8536699 29.0234905,21.8543276 C30.1741638,21.895901 31.316137,21.640271 32.3392716,21.1120921 C32.8866499,20.8162363 33.3607294,20.4014168 33.7266278,19.8981554 M37.1395239,2.28913763 L39.3731673,2.28913763 L39.3731673,0 L37.1395239,0 L37.1395239,2.28913763 Z M46.8926376,6.77029797 C47.3739197,6.77590559 47.8500687,6.86995972 48.2973356,7.04776919 L48.2973356,5.00835567 C48.1932839,5.00835567 47.5689737,4.91124074 47.0487151,4.91124074 C46.0026273,4.86323179 44.9933156,5.30256417 44.3156235,6.10089863 C44.1082186,6.38074306 43.9193652,6.67387137 43.7502759,6.97840139 L43.6462242,5.04303957 L41.6727101,5.04303957 C41.7351411,6.49629513 41.787167,7.5125335 41.787167,8.94497872 C41.787167,10.627148 41.7559514,11.8098691 41.7559514,13.4746965 L41.7559514,16.6413369 L43.8612644,16.6413369 L43.8612644,10.9323664 C43.9236954,9.83288665 43.9895948,8.3761627 45.1168217,7.38767145 C45.5979469,6.95559318 46.225297,6.7225066 46.8718272,6.73561406 M57.5371275,10.7034526 C57.5371275,11.9694151 57.141731,13.8250039 55.5844238,14.7059751 C54.6511058,15.2130835 53.5323588,15.2465558 52.5703926,14.7961532 C52.3708984,14.6896261 52.1806339,14.5666503 52.0015765,14.4285039 C51.5104616,14.022982 51.1308552,13.4989341 50.8986284,12.9058805 C50.6105089,12.1942272 50.4791955,11.4288241 50.5136371,10.6618319 C50.4877459,9.39979183 50.9982339,8.18596483 51.9183352,7.32177203 C52.5534381,6.78029035 53.3624952,6.48597583 54.1970676,6.49282674 C55.5617687,6.50744478 56.7643011,7.39293318 57.1833517,8.69178622 C57.4130835,9.33759164 57.5303958,10.0180029 57.5301908,10.7034526 M57.9845499,15.3372221 C59.1536211,14.0697853 59.7679558,12.3878569 59.690998,10.6653003 C59.7608967,8.48571874 58.6178785,6.44671301 56.7220558,5.36906826 C53.9989333,4.11522341 50.7682627,5.04122117 49.1228125,7.54721741 C48.5837466,8.56379232 48.3060297,9.69849831 48.3146776,10.849125 C48.2035857,12.592548 48.8613696,14.2972095 50.1147722,15.51411 C50.3462262,15.7138521 50.5932678,15.894784 50.8535393,16.0551789 C51.7914402,16.6244102 52.8796575,16.8964645 53.9750907,16.8355668 C54.8158281,16.8647471 55.6527727,16.7096697 56.4272426,16.3812076 C57.007071,16.133318 57.5361862,15.7805746 57.9880183,15.3406905" id="Shape" fill="#1F3A6A"></path>
                    <path d="M61.477219,7.4778496 C61.53965,9.72189816 61.53965,11.3138893 61.53965,13.5683431 C61.53965,16.3777392 61.4945609,19.1906038 61.477219,22 L63.5582532,22 L63.5582532,15.042409 C63.7564014,15.3060051 63.9756307,15.553073 64.213779,15.7811761 C65.0052286,16.4690784 66.0232685,16.839724 67.0717326,16.8216932 C68.4612217,16.828611 69.7898944,16.2523495 70.7343528,15.2331704 C71.8504399,13.9098018 72.4186971,12.2099932 72.3228756,10.4814756 C72.3143215,9.6137049 72.1571251,8.7538172 71.8581113,7.93914551 C71.1877419,5.97629734 69.3185451,4.67769742 67.2451521,4.73435283 C66.0970127,4.71867506 64.9872543,5.14741711 64.1478796,5.9309475 C63.8731274,6.18096039 63.6318128,6.46540856 63.4299227,6.77723475 L63.3397446,5.00488728 L61.3870408,5.00488728 C61.4529402,5.93788428 61.477219,6.56219455 61.477219,7.4778496 Z M63.5131641,10.7138578 C63.51527,10.1664315 63.5958632,9.62213555 63.7524831,9.09758789 C64.1127081,7.65188156 65.3851839,6.61834842 66.8740344,6.56219455 C68.1116185,6.57784099 69.2207845,7.32956357 69.6938357,8.47327763 C70.026939,9.21880934 70.1733663,10.0342784 70.1204477,10.849125 C70.1216839,11.4584505 70.0196562,12.0635799 69.8186978,12.6388144 C69.4456397,14.0144282 68.2089229,14.9783606 66.7838562,15.0042567 C65.3269135,14.9475213 64.0834733,13.9332476 63.7351411,12.5174208 C63.575707,11.9301189 63.5067032,11.3219501 63.5305061,10.7138578 L63.5131641,10.7138578 Z" id="Shape" fill="#1F3A6A"></path>
                    <path d="M93.7020337,5.01182406 L91.1146145,11.2896106 L89.945767,14.3313889 L89.865994,14.4944033 C89.5711808,13.6238373 89.1723159,12.5382311 88.7977298,11.5046508 L86.401072,5.00835567 L84.1743654,5.00835567 L88.8324137,16.606653 L86.560618,21.9965316 L88.6416522,21.9965316 L95.9044616,5.00141889 L93.7020337,5.01182406 Z" id="Path" fill="#1F3A6A"></path>
                    <path d="M82.6344001,6.51363708 C82.0309002,5.5008671 80.4701245,4.7794419 78.6492196,4.7794419 C77.3673363,4.73388133 76.1023123,5.08251952 75.0247517,5.77833833 L75.0247517,7.60271165 C75.9932745,6.96097763 77.11201,6.58208966 78.2711651,6.50323191 C79.4283096,6.44663599 80.5163133,7.05527172 81.0736245,8.07094435 C81.2250535,8.56623253 81.2953297,9.08276313 81.2817279,9.60050449 C80.7441274,9.57275737 80.171843,9.55194703 79.6169005,9.55194703 C78.2901063,9.47967175 76.9629658,9.68766527 75.7218982,10.1623837 C74.4361919,10.6599961 73.5962079,11.9054419 73.6165852,13.283935 C73.5972593,14.3089049 74.0252369,15.2914808 74.7889012,15.975406 C75.4834632,16.5004088 76.3287991,16.7874582 77.1994324,16.7939461 C78.2642764,16.8474317 79.3205621,16.5791303 80.2308056,16.0239634 C80.6835146,15.6592756 81.0952065,15.2464208 81.4586158,14.7926848 L81.4586158,16.6344001 L83.2309633,16.6344001 L83.2309633,9.12186662 C83.2638657,8.21522393 83.0581537,7.31583185 82.6344001,6.51363708 L82.6344001,6.51363708 Z M81.3198802,11.3693836 C81.3400966,11.8978765 81.2804629,12.4263952 81.1429923,12.937096 C81.0330006,13.2973207 80.8565414,13.6337694 80.6227337,13.9290557 C79.985216,14.7232328 79.0153715,15.1767664 77.9971622,15.1568658 C77.0433549,15.1568658 75.773924,14.660886 75.773924,13.2978086 C75.773924,11.9347312 77.3520416,11.2167744 78.226076,11.0849756 C78.7334926,11.0102209 79.2463617,10.9788918 79.7591045,10.991329 C80.2793631,10.991329 80.7996216,10.991329 81.3164118,11.0502917 L81.3198802,11.3693836 Z" id="Shape" fill="#1F3A6A"></path>
                </g>
            </g>
        </g>
    </g>
</svg>