<?xml version="1.0" encoding="UTF-8"?>
<svg width="56.9253398px" height="32.1472133px" viewBox="0 0 56.9253398 32.1472133" version="1.1" xmlns="http://www.w3.org/2000/svg" xmlns:xlink="http://www.w3.org/1999/xlink">
    <title>MyBank</title>
    <g id="Page-1" stroke="none" stroke-width="1" fill="none" fill-rule="evenodd">
        <g id="MyBank" transform="translate(-0, 0)" fill-rule="nonzero">
            <path d="M39.2031176,13.0107623 C37.0142287,12.9885401 35.9808954,14.2552068 35.9808954,14.2552068 C35.3142287,14.9663179 35.747562,15.9218734 36.3920065,15.9885401 C37.3253398,16.0885401 37.3253398,15.2996512 38.7586731,14.9552068 C40.0253398,14.6440957 40.0808954,15.8218734 40.0808954,15.8218734 C34.6920065,15.6885401 34.947562,20.2107623 36.7808954,21.1663179 C38.5364509,22.0885401 40.1808954,20.9218734 40.1808954,20.9218734 C40.1808954,20.9218734 40.247562,21.5440957 41.1142287,21.5440957 C42.1142287,21.5440957 42.1142287,20.5552068 42.1142287,20.5552068 L42.1142287,16.1552068 C42.047562,12.9218734 39.2031176,13.0107623 39.2031176,13.0107623 Z M38.7808954,19.377429 C38.7808954,19.377429 37.3697843,19.6663179 37.3808954,18.6552068 C37.3920065,17.6440957 39.947562,17.7107623 40.2142287,17.7885401 C40.2142287,17.7885401 40.2920065,18.9329846 38.7808954,19.377429 L38.7808954,19.377429 Z" id="Shape" fill="#334B66"></path>
            <path d="M56.6031176,19.7663179 L54.4031176,16.4552068 L56.0142287,14.9329846 C56.0142287,14.9329846 56.7586731,14.2440957 56.147562,13.5552068 C55.4697843,12.7996512 54.6586731,13.5440957 54.6586731,13.5440957 L52.6253398,15.4329846 L52.6253398,11.6552068 C52.6253398,11.1107623 52.1808954,10.677429 51.647562,10.677429 C51.1031176,10.677429 50.6697843,11.1218734 50.6697843,11.6552068 L50.6697843,20.5552068 C50.6697843,21.0996512 51.1142287,21.5329846 51.647562,21.5329846 C52.1920065,21.5329846 52.6253398,21.0885401 52.6253398,20.5552068 L52.6253398,18.177429 L52.9920065,17.8107623 L54.9808954,20.9218734 C54.9808954,20.9218734 55.6253398,21.9996512 56.5808954,21.3107623 C57.3142287,20.7996512 56.6031176,19.7663179 56.6031176,19.7663179 Z" id="Path" fill="#334B66"></path>
            <path d="M49.5920065,16.1440957 C49.5920065,12.9329846 46.9142287,12.477429 45.0920065,13.4996512 C45.0920065,13.4996512 45.0920065,13.4996512 45.0920065,13.5107623 C44.9142287,12.9885401 44.347562,12.7107623 43.8253398,12.8885401 C43.4142287,13.0329846 43.147562,13.4107623 43.147562,13.8440957 L43.147562,20.5440957 C43.147562,21.0996512 43.5920065,21.5440957 44.147562,21.5440957 C44.7031176,21.5440957 45.147562,21.0996512 45.147562,20.5440957 L45.1364509,16.0218734 C45.3253398,15.8107623 45.5364509,15.6218734 45.7697843,15.4552068 C46.7142287,14.7885401 47.6031176,15.0218734 47.6031176,16.1552068 L47.6253398,20.5663179 C47.647562,21.1107623 48.1031176,21.5440957 48.647562,21.5218734 C49.1697843,21.4996512 49.5808954,21.0885401 49.6031176,20.5663179 L49.5920065,16.1440957 Z" id="Path" fill="#334B66"></path>
            <path d="M20.747562,21.6663179 C20.8808954,21.4663179 20.9697843,21.2440957 21.0142287,21.0107623 L18.747562,15.0885401 C18.747562,15.0885401 18.3364509,13.9440957 19.247562,13.5996512 C20.2031176,13.2440957 20.5586731,14.1552068 20.6253398,14.3440957 L22.0586731,18.1552068 L23.3697843,14.3552068 C23.3697843,14.3552068 23.747562,13.177429 24.7920065,13.5885401 C25.6586731,13.9329846 25.2142287,15.0996512 25.2142287,15.0996512 C25.2142287,15.0996512 23.8697843,19.0663179 22.747562,21.9329846 C22.0808954,23.6552068 21.5031176,23.8218734 20.847562,23.977429 C19.9697843,24.1885401 18.3142287,24.0885401 18.3142287,22.9996512 C18.3142287,22.1440957 19.1920065,22.0885401 19.5920065,22.0996512 C19.6142287,22.1218734 20.4364509,22.1885401 20.747562,21.6663179 Z" id="Path" fill="#2ABAEA"></path>
            <path d="M15.4808954,11.7107623 L13.4142287,17.4218734 L11.1586731,11.7440957 C11.1586731,11.7440957 10.8253398,10.6661502 9.88089537,10.6661502 C8.79200648,10.6661502 8.82533981,11.5329846 8.80311759,11.7440957 C8.78089537,11.9552068 8.80311759,20.6218734 8.80311759,20.6218734 C8.80311759,20.6218734 8.79200648,21.5329846 9.79200648,21.5329846 C10.8142287,21.5329846 10.7697843,20.6107623 10.7697843,20.6107623 C10.7697843,20.6107623 10.7697843,16.0329846 10.7697843,16.0329846 L12.4364509,20.6107623 C12.4364509,20.6107623 12.6808954,21.5107623 13.447562,21.4996512 C14.2142287,21.4885401 14.4364509,20.6107623 14.4364509,20.6107623 L15.8253398,16.0440957 L15.8253398,20.6107623 C15.8253398,20.6107623 15.8253398,21.5329846 16.8364509,21.5329846 C17.8142287,21.5329846 17.8142287,20.6107623 17.8142287,20.6107623 L17.8142287,11.7440957 C17.8142287,11.7440957 17.8142287,10.6552068 16.7586731,10.6661502 C15.8808954,10.677429 15.547562,11.5218734 15.4808954,11.7107623 C15.4808954,11.7329846 15.4808954,11.7440957 15.4808954,11.7440957" id="Path" fill="#2ABAEA"></path>
            <path d="M56.9253398,25.0329846 L39.447562,25.0329846 L26.6142287,25.0329846 L26.6253398,25.0440957 C21.6697843,30.8552068 12.9364509,31.5440957 7.12533981,26.5885401 C1.3142287,21.6329846 0.614228697,12.9107623 5.56978425,7.09965121 C10.5253398,1.28854012 19.2586731,0.58854012 25.0697843,5.55520679 C25.6364509,6.04409568 26.1697843,6.56631791 26.647562,7.14409571 L29.4253398,7.14409571 C24.5031176,-0.2336821 14.5142287,-2.22257099 7.13645092,2.71076234 C-0.241326859,7.64409571 -2.21910463,17.6329846 2.7142287,25.0107623 C7.64756203,32.3885401 17.6253398,34.3663179 25.0031176,29.4329846 C26.047562,28.7329846 27.0031176,27.9218734 27.8586731,26.9996512 L55.6031176,26.977429 L56.9253398,25.0329846 Z" id="Path" fill="#2ABAEA"></path>
            <path d="M33.6697843,15.7107623 C33.7253398,15.6329846 34.3920065,15.0996512 34.3364509,13.6552068 C34.2253398,10.7440957 31.7031176,10.777429 31.1364509,10.7552068 C30.2364509,10.7329846 29.6920065,10.7440957 28.0364509,10.7552068 C26.6364509,10.7663179 26.6475593,12.0440957 26.6475593,12.0440957 L26.6475593,21.5329846 L31.3586731,21.5329846 C33.8808954,21.5329846 34.8142287,20.1440957 34.8142287,18.1996512 C34.8142287,16.2552068 33.6697843,15.7107623 33.6697843,15.7107623 Z M28.6808954,12.7663179 L31.2808954,12.7663179 C31.8031176,12.777429 32.347562,13.0552068 32.347562,13.8329846 C32.347562,14.6440957 31.8697843,14.8996512 31.2808954,14.8996512 L28.6808954,14.8996512 L28.6808954,12.7663179 Z M31.4697843,19.5996512 L28.6808954,19.5996512 L28.6808954,16.9329846 L31.4697843,16.9329846 C32.147562,16.9663179 32.8031176,17.3107623 32.8031176,18.2663179 C32.8031176,19.2440957 32.2031176,19.5996512 31.4697843,19.5996512 Z" id="Shape" fill="#334B66"></path>
        </g>
    </g>
</svg>