<?xml version="1.0" encoding="UTF-8"?>
<svg width="89.226975px" height="21px" viewBox="0 0 89.226975 21" version="1.1" xmlns="http://www.w3.org/2000/svg" xmlns:xlink="http://www.w3.org/1999/xlink">
    <title>Satispay</title>
    <g id="Page-1" stroke="none" stroke-width="1" fill="none" fill-rule="evenodd">
        <path d="M26.322605,13.69467 L26.478695,13.69467 C27.392495,13.88893 28.209645,14.02521 29.006985,14.02521 C30.213145,14.02521 31.088285,13.73333 31.088285,12.70259 C31.088285,10.79671 26.361745,11.5549 26.361745,8.4042 C26.361745,6.69258 27.956425,5.7783 29.959925,5.7783 C30.757745,5.7783 31.555085,5.89476 32.293955,6.12816 L32.293955,7.56724 L32.138355,7.56724 C31.301875,7.29566 30.582335,7.17872 29.940595,7.17872 C28.987655,7.17872 27.995565,7.39279 27.995565,8.4042 C27.995565,10.21247 32.721625,9.49293 32.721625,12.5465 C32.721625,14.76456 30.932685,15.42563 28.948515,15.42563 C27.975755,15.42563 27.003485,15.28935 26.322605,15.13327 L26.322605,13.69467 Z M48.630825,15.07547 C48.086215,15.27022 47.463805,15.42534 46.685795,15.42534 L46.488465,15.42196 C45.539415,15.38798 44.235305,15.06475 44.235305,13.0135 L44.235305,7.41183 L43.028665,7.41183 L43.028665,6.05055 L44.235305,6.05055 L44.235305,3.87212 L45.615915,3.58025 L45.771515,3.58025 L45.771515,6.05055 L48.767575,6.05055 L48.767575,7.41183 L45.771515,7.41183 L45.771515,12.97484 C45.771515,13.96645 46.607995,14.04473 46.996515,14.04473 C47.386005,14.04473 48.007935,13.90846 48.494555,13.75286 L48.630825,15.07547 Z M54.328225,13.69467 L54.483825,13.69467 C55.398115,13.88893 56.215265,14.02521 57.012605,14.02521 C58.218765,14.02521 59.093905,13.73333 59.093905,12.70259 C59.093905,10.79671 54.367365,11.5549 54.367365,8.4042 C54.367365,6.69258 55.962045,5.7783 57.965545,5.7783 C58.762885,5.7783 59.560715,5.89476 60.299575,6.12816 L60.299575,7.56724 L60.143975,7.56724 C59.307495,7.29566 58.587475,7.17872 57.946215,7.17872 C56.993275,7.17872 56.000705,7.39279 56.000705,8.4042 C56.000705,10.21247 60.727245,9.49293 60.727245,12.5465 C60.727245,14.76456 58.938305,15.42563 56.954135,15.42563 C55.981375,15.42563 55.009105,15.28935 54.328225,15.13327 L54.328225,13.69467 Z M62.982795,20.0155 L64.344075,19.72363 L64.344075,15.19184 C64.985815,15.32811 65.588885,15.42524 66.347575,15.42524 C69.595885,15.42524 71.151425,13.20815 71.151425,10.23238 C71.151425,7.19814 69.595885,5.77791 67.592385,5.77791 C66.250445,5.77791 65.258355,6.28386 64.344075,6.96474 L64.344075,5.77791 L64.149325,5.77791 L62.788055,6.06978 L62.788055,20.0155 L62.982795,20.0155 Z M66.406045,14.0253 C65.588885,14.0253 64.947635,13.92769 64.344075,13.83056 L64.344075,8.42363 C65.316345,7.56733 66.327755,7.17881 67.242525,7.17881 C68.798065,7.17881 69.518085,8.28687 69.518085,10.4653 C69.518085,12.81915 68.311925,14.0253 66.406045,14.0253 Z M84.181505,15.42524 L80.909515,6.05046 L82.698455,6.05046 L84.901525,13.13035 L85.037315,13.13035 L87.456875,6.05046 L89.226975,6.05046 L85.796475,15.50304 C84.979325,17.83707 83.967425,18.96543 82.294945,20.0155 L81.419805,18.88714 C83.112105,17.68147 83.539765,17.00059 84.181505,15.42524 Z M77.996995,10.93235 L75.488035,11.30203 C74.826965,11.39916 74.087135,11.6717 74.087135,12.72129 C74.087135,13.48045 74.613375,14.00573 75.410235,14.00573 C76.266045,14.00573 77.238795,13.46064 77.996995,12.91652 L77.996995,10.93235 Z M79.553015,15.13361 L78.288875,15.38682 L78.074795,15.38682 L78.074795,14.10286 L78.035655,14.10286 L77.699215,14.35131 C76.948215,14.88511 76.047975,15.36749 74.884955,15.36749 C73.698605,15.36749 72.453795,14.5112 72.453795,12.83823 C72.453795,10.58297 74.476625,10.27128 75.565835,10.1152 L77.996995,9.78466 L77.996995,9.16274 C77.996995,7.60623 77.258125,7.17857 75.916185,7.17857 L75.675715,7.18724 C75.077275,7.2256 74.008655,7.39641 73.115345,7.80098 L72.939925,6.3619 C73.796225,6.03088 75.138175,5.77815 76.208055,5.77815 C78.132785,5.77815 79.553015,6.57549 79.553015,9.16274 L79.553015,15.13361 Z M39.684085,12.91647 C38.925895,13.46059 37.953135,14.00568 37.097325,14.00568 C36.299985,14.00568 35.774225,13.48089 35.774225,12.72173 C35.774225,11.67165 36.514055,11.39911 37.175125,11.30198 L39.684085,10.9323 L39.684085,12.91647 Z M41.240115,9.16269 C41.240115,6.57544 39.819875,5.7781 37.894665,5.7781 C36.825265,5.7781 35.482835,6.03132 34.627025,6.36185 L34.802435,7.80093 C35.833175,7.33412 37.097325,7.17852 37.603275,7.17852 C38.945225,7.17852 39.684085,7.60667 39.684085,9.16269 L39.684085,9.7851 L37.252925,10.11563 C36.163715,10.27123 34.140885,10.58292 34.140885,12.83819 C34.140885,14.51115 35.385705,15.36744 36.572045,15.36744 C37.913995,15.36744 38.906075,14.72522 39.722745,14.10281 L39.761895,14.10281 L39.761895,15.38677 L39.975965,15.38677 L41.240115,15.13356 L41.240115,9.16269 Z M50.736915,15.38619 L52.092385,15.09625 L52.092385,5.77801 L51.897645,5.77801 L50.536365,6.06988 L50.536365,15.37991 L50.736915,15.38619 Z M51.897645,2.62291 L50.536365,2.91478 L50.536365,4.56214 L50.736915,4.5689 L52.092385,4.27848 L52.092385,2.62291 L51.897645,2.62291 Z M10.496615,21 C10.583595,21 10.667195,20.96521 10.728575,20.90383 L20.894415,10.73799 C21.022955,10.60993 21.022955,10.40214 20.894415,10.2736 L10.716975,0.09616 C10.672755,0.05195 10.616855,0.02268 10.556595,0.00959 L10.484535,0 L4.444565,0 C4.152205,0 4.005785,0.35373 4.212615,0.56055 L14.157615,10.50604 L4.224205,20.43944 C4.017385,20.64627 4.163805,21 4.456165,21 L10.496615,21 Z M14.506365,2.83229 L16.778065,0.5606 C16.984885,0.35378 16.838465,4.99999999e-05 16.545625,4.99999999e-05 L11.673155,4.99999999e-05 L14.506365,2.83229 Z M6.484305,17.12638 L9.968925,13.64176 L6.832715,10.50604 L9.968925,7.36984 L6.484305,3.88522 L0.096405,10.2736 C-0.032135,10.40166 -0.032135,10.60993 0.096405,10.73799 L6.484305,17.12638 Z M16.534315,21 C16.826675,21 16.973575,20.64627 16.766755,20.43944 L14.506175,18.17886 L11.685035,21 L16.534315,21 Z" id="Satispay" fill="#EF373F" fill-rule="nonzero"></path>
    </g>
</svg>