<?xml version="1.0" encoding="UTF-8"?>
<svg width="56.1515152px" height="34px" viewBox="0 0 56.1515152 34" version="1.1" xmlns="http://www.w3.org/2000/svg" xmlns:xlink="http://www.w3.org/1999/xlink">
    <title>Sofort</title>
    <g id="Page-1" stroke="none" stroke-width="1" fill="none" fill-rule="evenodd">
        <g id="Sofort" fill="#FA82A0" fill-rule="nonzero">
            <path d="M6.40848485,0 L49.7224242,0 C51.3799242,0.0901515152 53.0232576,0.766287879 54.1836364,1.96916667 C55.3633333,3.10378788 56.0278788,4.70204545 56.1515152,6.32219697 L56.1515152,27.635303 C56.0446212,29.2709091 55.3710606,30.887197 54.1836364,32.0321212 C53.0387121,33.2182576 51.425,33.8905303 49.7919697,34 L6.42909091,34 C4.77030303,33.9137121 3.12825758,33.2324242 1.96787879,32.0308333 C0.772727273,30.8768939 0.0965909091,29.2490152 0,27.6005303 L0,6.36856061 C0.106893939,4.73037879 0.781742424,3.11151515 1.97045455,1.96530303 C3.12568182,0.770151515 4.76,0.0978787879 6.40848485,0 M7.98742424,10.1793939 C7.64871212,10.5090909 7.53666667,11.0087879 7.60621212,11.4659848 C7.77492424,12.8362879 7.94363636,14.2065909 8.1175,15.5756061 C7.6680303,15.2381818 7.04212121,15.0926515 6.55015152,15.4326515 C5.90492424,15.7842424 5.88689394,16.6368182 6.13030303,17.2472727 C5.47219697,17.3863636 4.90939394,17.9852273 5.03174242,18.689697 C5.07939394,19.3568182 5.65507576,19.7586364 6.04401515,20.2325758 C6.16893939,21.1263636 6.38916667,22.0549242 7.02924242,22.7323485 C8.52575758,24.4078788 11.2045455,24.6409848 13.0990152,23.5334091 C14.2452273,22.8276515 14.8054545,21.4843939 15.0063636,20.2055303 C15.0759091,19.5100758 15.1660606,18.7553788 14.8621212,18.1011364 C14.6161364,17.6027273 14.025,17.5074242 13.5652273,17.3039394 C13.9606061,15.3515152 14.3598485,13.4003788 14.7552273,11.4479545 C14.8659848,11.0010606 14.7552273,10.5039394 14.4268182,10.1755303 C13.9142424,9.60886364 12.9251515,9.68098485 12.4434848,10.2476515 C12.1846212,10.5683333 12.1137879,10.9881818 11.9914394,11.3706818 C11.6759091,12.4138636 11.3951515,13.4673485 11.0590152,14.5040909 C10.7885606,13.4995455 10.572197,12.4808333 10.3313636,11.4685606 C10.2231818,11.039697 10.1652273,10.5644697 9.84969697,10.2283333 C9.38606061,9.70287879 8.47681818,9.67712121 7.98742424,10.1793939 M18.1938636,13.6940152 C17.6233333,14.5015152 17.6040152,15.7172727 18.3149242,16.4475 C18.9897727,17.1674242 20.0252273,17.2562879 20.8906818,17.6207576 C21.324697,17.7920455 21.4650758,18.3406818 21.3053788,18.7489394 C21.1289394,19.2293182 20.5725758,19.4225 20.0986364,19.3684091 C19.5062121,19.3413636 19.0554545,18.9189394 18.6575,18.5248485 C18.2968939,18.9009091 17.8615909,19.2177273 17.6001515,19.6762121 C18.3162121,20.4141667 19.3065909,20.9228788 20.3536364,20.8623485 C21.3079545,20.8610606 22.2880303,20.3961364 22.7593939,19.5422727 C23.2320455,18.6909848 23.1921212,17.5048485 22.4863636,16.7900758 C21.9068182,16.2079545 21.0851515,16.0018939 20.325303,15.7662121 C19.975,15.6490152 19.5281061,15.4738636 19.4843182,15.0501515 C19.4006061,14.5504545 19.8462121,14.0816667 20.347197,14.1190152 C20.8340152,14.0726515 21.1662879,14.4641667 21.4753788,14.7732576 C21.8990909,14.4937879 22.3498485,14.2555303 22.7439394,13.9335606 C21.9003788,12.2657576 19.2215909,12.1717424 18.1938636,13.6940152 M31.6212879,13.2175 C30.907803,13.7107576 30.525303,14.5865152 30.5407576,15.4429545 C30.5368939,17.1970455 30.5072727,18.9524242 30.5510606,20.7065152 C31.0675,20.74 31.5852273,20.7309848 32.1029545,20.7219697 C32.2098485,19.8719697 32.0875,19.0129545 32.1712121,18.1629545 C32.2742424,17.4675 32.9864394,17.1519697 33.6110606,17.0798485 C33.6381061,16.6007576 33.6355303,16.1216667 33.6187879,15.6438636 C33.0881818,15.6090909 32.587197,15.8048485 32.1531818,16.0946212 C32.1325758,15.5833333 32.0887879,14.9780303 32.4854545,14.5865152 C32.7803788,14.2581061 33.2401515,14.2117424 33.649697,14.1460606 C33.6690152,13.6721212 33.6677273,13.1968939 33.6471212,12.7229545 C32.947803,12.7126515 32.2072727,12.8015152 31.6212879,13.2175 M45.0796212,13.4158333 C45.017803,14.9097727 45.0615909,16.4062879 45.0615909,17.9015152 C45.0512879,18.5068182 45.145303,19.1456061 45.5226515,19.6401515 C46.1137879,20.452803 47.1672727,20.814697 48.1460606,20.7219697 C48.1743939,20.2557576 48.1756818,19.7882576 48.1512121,19.3207576 C47.6991667,19.2563636 47.1865909,19.1765152 46.9109848,18.7669697 C46.4731061,18.1436364 46.6830303,17.3348485 46.6443939,16.6252273 C47.0874242,16.8982576 47.5806818,17.1390909 48.1177273,17.085 C48.1306061,16.6097727 48.1318939,16.1345455 48.1215909,15.6593182 C47.685,15.5343939 47.1891667,15.4313636 46.9058333,15.0385606 C46.5336364,14.5826515 46.6611364,13.9593182 46.6160606,13.4171212 C46.1034848,13.3926515 45.5909091,13.3939394 45.0796212,13.4158333 M25.9378788,15.1544697 C24.3602273,15.4674242 23.2706818,17.2601515 23.7987121,18.7991667 C24.2726515,20.4862879 26.3796212,21.3259848 27.9379545,20.6176515 C28.8768182,20.219697 29.6096212,19.3168939 29.7332576,18.2943182 C29.867197,17.0296212 29.0545455,15.7584848 27.8877273,15.2845455 C27.2708333,15.0385606 26.5818182,15.0192424 25.9378788,15.1544697 M36.7290152,15.0965152 C35.4668939,15.2330303 34.3438636,16.2427273 34.1481061,17.5087121 C33.9317424,18.6021212 34.4803788,19.7586364 35.4115152,20.3484848 C36.4611364,21.0593939 37.9447727,21.0323485 38.9647727,20.2802273 C39.7941667,19.6968182 40.2771212,18.6536364 40.1431818,17.6439394 C39.9809091,16.0276515 38.3066667,14.8453788 36.7290152,15.0965152 M42.6017424,15.7211364 C42.5914394,15.5975 42.5708333,15.352803 42.5605303,15.2304545 C42.0621212,15.1943939 41.5611364,15.2059848 41.0614394,15.2085606 C40.9687121,15.757197 41.0331061,16.3135606 41.0189394,16.8660606 C41.0395455,18.1500758 40.9751515,19.4379545 41.0472727,20.7193939 C41.5611364,20.7309848 42.0762879,20.7412879 42.5901515,20.7052273 C42.6777273,19.7341667 42.5180303,18.7502273 42.6687121,17.7856061 C42.7987879,17.1107576 43.4955303,16.8312879 44.1072727,16.7720455 C44.0763636,16.2259848 44.2656818,15.5949242 44.0081061,15.1016667 C43.467197,15.0720455 42.9726515,15.3476515 42.6017424,15.7211364 M49.6258333,18.8532576 C48.9316667,19.1288636 48.8170455,20.2029545 49.4506818,20.6073485 C50.0688636,21.0825758 51.1043182,20.6318182 51.1287879,19.8410606 C51.1983333,19.0786364 50.2955303,18.5106818 49.6258333,18.8532576 Z" id="Shape"></path>
            <path d="M8.18189394,11.4376515 C8.10075758,11.0409848 8.24886364,10.5644697 8.64681818,10.4009091 C9.05636364,10.2360606 9.52515152,10.5438636 9.60886364,10.9611364 C10.0093939,12.5284848 10.3455303,14.1112879 10.7499242,15.6773485 C10.7872727,15.895 11.017803,15.9606818 11.2019697,15.8808333 C11.3848485,15.6168182 11.4325,15.2884091 11.5290909,14.9870455 C11.9270455,13.6270455 12.3172727,12.2631818 12.7345455,10.9083333 C12.8813636,10.3468182 13.7223485,10.1652273 14.0675,10.6443182 C14.3418182,10.9521212 14.2181818,11.3809848 14.1460606,11.7377273 C13.7571212,13.5407576 13.4338636,15.3592424 13.0140152,17.1519697 L12.9251515,17.1983333 C12.0468182,17.0553788 11.2006818,16.7308333 10.3107576,16.6625758 C9.8844697,16.6239394 9.51742424,16.8686364 9.20318182,17.1262121 C8.99325758,16.8686364 8.81166667,16.5775758 8.78075758,16.2388636 C8.56825758,14.6406061 8.38537879,13.037197 8.18189394,11.4376515 Z" id="Path"></path>
            <path d="M6.57333333,16.3496212 C6.63128788,15.8898485 7.26492424,15.6309848 7.61651515,15.9503788 C7.99257576,16.2762121 8.21666667,16.7334091 8.51159091,17.1275 C8.68545455,17.4082576 8.96363636,17.6632576 8.95462121,18.0187121 C8.94689394,18.36 9.07439394,18.6742424 9.25083333,18.9588636 C8.9855303,19.2602273 8.50128788,19.4418182 8.16643939,19.1391667 C7.76590909,18.7115909 7.49030303,18.1848485 7.14257576,17.7160606 C6.87598485,17.3039394 6.4844697,16.8815152 6.57333333,16.3496212 Z" id="Path"></path>
            <path d="M26.3255303,16.5608333 C27.2837121,16.2594697 28.2972727,17.1687121 28.1221212,18.1526515 C28.0757576,19.0541667 27.0647727,19.6388636 26.2405303,19.3426515 C25.3969697,19.1134091 24.9990152,18.0444697 25.4098485,17.2923485 C25.5875758,16.9291667 25.935303,16.6612879 26.3255303,16.5608333 Z" id="Path"></path>
            <path d="M36.7625,16.5569697 C37.7747727,16.2491667 38.8205303,17.2627273 38.5436364,18.285303 C38.3839394,19.3877273 36.8475,19.7818182 36.1031061,19.0090909 C35.3406818,18.2775758 35.7025758,16.7810606 36.7625,16.5569697 Z" id="Path"></path>
            <path d="M9.68227273,17.5460606 C9.94242424,17.1326515 10.4962121,17.2318182 10.8980303,17.3245455 C11.8935606,17.5743939 12.8993939,17.7843182 13.8949242,18.0328788 C14.3456818,18.1320455 14.5015152,18.6433333 14.5143939,19.050303 C14.5208333,20.2003788 14.2748485,21.4006818 13.5781061,22.3395455 C13.0539394,23.0620455 12.1897727,23.4316667 11.3307576,23.5656061 C10.0480303,23.8309091 8.63780303,23.4870455 7.67833333,22.5803788 C7.18507576,22.1347727 6.91204545,21.5101515 6.71757576,20.8868182 C7.13742424,21.3040909 7.68219697,21.7393939 8.31712121,21.5629545 C9.12075758,21.3865152 9.51098485,20.4618182 9.2405303,19.7187121 C9.44143939,19.5757576 9.61143939,19.2460606 9.89863636,19.347803 C10.3004545,19.4637121 10.6958333,19.5976515 11.1079545,19.6723485 C10.4936364,20.1231061 10.1536364,20.8765152 10.1987121,21.6337879 C10.2734091,21.9068182 10.7499242,21.8939394 10.7396212,21.5874242 C10.8297727,21.0709848 10.9392424,20.474697 11.4363636,20.1875 C11.8575,19.8809848 12.3932576,20.0381061 12.8659091,19.9453788 C12.9715152,19.7895455 12.9663636,19.6440152 12.8491667,19.5062121 C11.9090152,19.1906818 10.8838636,19.1559091 9.97333333,18.7489394 C9.49037879,18.5609091 9.42083333,17.9414394 9.68227273,17.5460606 Z" id="Path"></path>
            <path d="M5.95901515,17.9324242 C6.18568182,17.8113636 6.51795455,17.8268182 6.67378788,18.0534848 C7.04083333,18.5119697 7.29712121,19.050303 7.68992424,19.4894697 C7.9294697,19.772803 8.31712121,19.805 8.64037879,19.9350758 C9.05893939,20.4862879 8.34287879,21.2731818 7.74659091,21.0014394 C7.36409091,20.7438636 7.06916667,20.3806818 6.73174242,20.0690152 C6.39689394,19.7174242 6.00795455,19.4096212 5.72590909,19.0116667 C5.49022727,18.6652273 5.57007576,18.1294697 5.95901515,17.9324242 Z" id="Path"></path>
        </g>
    </g>
</svg>