<svg width="48" height="48" viewBox="0 0 48 48" fill="none" xmlns="http://www.w3.org/2000/svg">
<path d="M48 48H24.1437H0V23.7614V0H23.8223H48V23.9976V48Z" fill="white"/>
<path d="M48 48V40.3942H42.2092L39.2278 37.0976L36.2314 40.3942H17.1386V25.0298H10.9763L18.62 7.73126H25.9916L28.6231 13.6574V7.73126H37.7478L39.3321 12.197L40.9267 7.73126H48V0H0V48H48ZM43.1846 38.4706H48L41.6301 31.7156L48 25.0375H43.2612L39.3275 29.3362L35.4315 25.0375H30.615L36.9476 31.754L30.615 38.4706H35.2975L39.2506 34.1336L43.1846 38.4706ZM44.3112 31.7213L48 35.6457V27.8296L44.3112 31.7213ZM22.843 35.3618V33.27H30.4229V30.2379H22.843V28.1463H30.6147V25.0375H19.1775V38.4706H30.6147V35.3618H22.843ZM44.3729 23.0881H48V9.65501H42.358L39.345 18.0217L36.3515 9.65501H30.6137V23.0881H34.2405V13.685L37.6949 23.0881H40.9187L44.3729 13.6656V23.0881ZM26.4878 23.0881H30.6137L24.6843 9.65501H19.9634L14.0334 23.0881H18.0634L19.1766 20.4015H25.3556L26.4878 23.0881ZM24.0893 17.3886H20.4429L22.2661 12.9941L24.0893 17.3886Z" fill="#006FCF"/>
</svg>
