<svg width="50" height="45" viewBox="0 0 50 45" fill="none" xmlns="http://www.w3.org/2000/svg">
<path d="M0 3.26691V40.8037C0 42.6005 1.47011 44.0706 3.26691 44.0706H25.6942C42.6495 44.0706 50 34.5802 50 21.9863C50 9.4577 42.6495 0 25.6942 0H3.26691C1.47011 0 0 1.47011 0 3.26691Z" fill="white"/>
<path d="M15.0115 9.21268V36.9487H27.0827C38.0432 36.9487 42.7965 30.7579 42.7965 22.0026C42.7965 13.623 38.0432 7.12186 27.0827 7.12186H17.1023C15.9425 7.12186 15.0115 8.06926 15.0115 9.21268Z" fill="#CC0066"/>
<path d="M25.6942 41.0813H6.1908C4.45934 41.0813 3.05457 39.6766 3.05457 37.9451V6.14178C3.05457 4.41032 4.45934 3.00555 6.1908 3.00555H25.6942C44.2012 3.00555 46.9618 14.9134 46.9618 22.0026C46.9618 34.3025 39.3989 41.0813 25.6942 41.0813ZM6.1908 4.05096C5.03104 4.05096 4.09998 4.98203 4.09998 6.14178V37.9451C4.09998 39.1049 5.03104 40.0359 6.1908 40.0359H25.6942C38.7292 40.0359 45.9164 33.6328 45.9164 22.0026C45.9164 6.3868 33.2408 4.05096 25.6942 4.05096H6.1908Z" fill="black"/>
<path d="M19.2584 18.262C19.6831 18.262 20.0751 18.3273 20.4508 18.458C20.8265 18.5887 21.1368 18.801 21.4145 19.0624C21.6759 19.3401 21.8882 19.6831 22.0516 20.0751C22.1986 20.4835 22.2803 20.9572 22.2803 21.5126C22.2803 22.0026 22.2149 22.4436 22.1006 22.852C21.9699 23.2604 21.7902 23.6197 21.5452 23.9137C21.3002 24.2078 20.9898 24.4365 20.6141 24.6161C20.2384 24.7795 19.7974 24.8775 19.291 24.8775H16.4325V18.2457H19.2584V18.262ZM19.1604 23.6687C19.3727 23.6687 19.5687 23.6361 19.7811 23.5707C19.9771 23.5054 20.1568 23.391 20.3038 23.2277C20.4508 23.0644 20.5815 22.8683 20.6795 22.607C20.7775 22.3456 20.8265 22.0516 20.8265 21.6759C20.8265 21.3492 20.7938 21.0389 20.7285 20.7775C20.6631 20.5162 20.5488 20.2711 20.4018 20.0915C20.2548 19.9118 20.0588 19.7484 19.8137 19.6504C19.5687 19.5524 19.2747 19.5034 18.9153 19.5034H17.8699V23.6851H19.1604V23.6687Z" fill="white"/>
<path d="M28.1768 18.262V19.4871H24.6812V20.9082H27.8991V22.0353H24.6812V23.6524H28.2585V24.8775H23.2274V18.2457H28.1768V18.262Z" fill="white"/>
<path d="M33.1753 18.262L35.6581 24.8938H34.139L33.6326 23.4237H31.1498L30.6271 24.8938H29.157L31.6562 18.262H33.1753ZM33.257 22.3293L32.4239 19.8954H32.4076L31.5418 22.3293H33.257Z" fill="white"/>
<path d="M38.0265 18.262V23.6687H41.2608V24.8938H36.5728V18.262H38.0265Z" fill="white"/>
<path d="M9.55566 24.6325C11.2426 24.6325 12.6102 23.2649 12.6102 21.5779C12.6102 19.8909 11.2426 18.5233 9.55566 18.5233C7.86867 18.5233 6.5011 19.8909 6.5011 21.5779C6.5011 23.2649 7.86867 24.6325 9.55566 24.6325Z" fill="black"/>
<path d="M11.8589 36.9487C9.29436 36.9487 7.23621 34.8742 7.23621 32.326V28.7161C7.23621 27.442 8.26528 26.3966 9.55571 26.3966C10.8298 26.3966 11.8752 27.4257 11.8752 28.7161V36.9487H11.8589Z" fill="black"/>
</svg>
