<svg width="51" height="36" viewBox="0 0 51 36" fill="none" xmlns="http://www.w3.org/2000/svg">
<path d="M35.1227 15.1708C33.1617 15.1509 32.2359 16.2857 32.2359 16.2857C31.6386 16.9228 32.0269 17.7789 32.6042 17.8386C33.4404 17.9282 33.4404 17.2214 34.7245 16.9128C35.8594 16.6341 35.9091 17.6893 35.9091 17.6893C31.0812 17.5698 31.3101 21.6213 32.9526 22.4774C34.5254 23.3036 35.9987 22.2584 35.9987 22.2584C35.9987 22.2584 36.0584 22.8159 36.8349 22.8159C37.7308 22.8159 37.7308 21.9299 37.7308 21.9299V17.9879C37.6711 15.0911 35.1227 15.1708 35.1227 15.1708ZM34.7444 20.8747C34.7444 20.8747 33.4802 21.1335 33.4902 20.2277C33.5001 19.3218 35.7897 19.3815 36.0286 19.4512C36.0286 19.4512 36.0983 20.4765 34.7444 20.8747Z" fill="#334B66"/>
<path d="M50.7117 21.2231L48.7407 18.2566L50.1841 16.8929C50.1841 16.8929 50.8511 16.2757 50.3036 15.6585C49.6964 14.9816 48.9697 15.6485 48.9697 15.6485L47.148 17.3408V13.9563C47.148 13.4685 46.7498 13.0803 46.272 13.0803C45.7842 13.0803 45.396 13.4784 45.396 13.9563V21.9299C45.396 22.4176 45.7942 22.8059 46.272 22.8059C46.7598 22.8059 47.148 22.4077 47.148 21.9299V19.7996L47.4765 19.4711L49.2584 22.2584C49.2584 22.2584 49.8357 23.224 50.6918 22.6068C51.3488 22.1489 50.7117 21.2231 50.7117 21.2231Z" fill="#334B66"/>
<path d="M44.43 17.9779C44.43 15.1011 42.031 14.6929 40.3984 15.6088C40.3984 15.6088 40.3984 15.6088 40.3984 15.6187C40.2391 15.1508 39.7315 14.902 39.2636 15.0613C38.8953 15.1907 38.6564 15.5291 38.6564 15.9173V21.9199C38.6564 22.4177 39.0546 22.8159 39.5523 22.8159C40.05 22.8159 40.4482 22.4177 40.4482 21.9199L40.4382 17.8684C40.6075 17.6793 40.7966 17.5101 41.0056 17.3608C41.8518 16.7635 42.6482 16.9725 42.6482 17.9879L42.6681 21.9398C42.688 22.4276 43.0961 22.8159 43.5839 22.7959C44.0517 22.776 44.4201 22.4077 44.44 21.9398L44.43 17.9779Z" fill="#334B66"/>
<path d="M18.5878 22.9253C18.7072 22.7462 18.7869 22.5471 18.8267 22.338L16.7959 17.0322C16.7959 17.0322 16.4276 16.0069 17.2439 15.6983C18.1 15.3798 18.4185 16.1961 18.4783 16.3653L19.7624 19.7797L20.937 16.3752C20.937 16.3752 21.2755 15.3201 22.2112 15.6884C22.9877 15.997 22.5895 17.0422 22.5895 17.0422C22.5895 17.0422 21.385 20.596 20.3796 23.1642C19.7823 24.7072 19.2647 24.8565 18.6774 24.9959C17.8909 25.185 16.4077 25.0954 16.4077 24.1199C16.4077 23.3534 17.1941 23.3036 17.5525 23.3136C17.5724 23.3335 18.309 23.3932 18.5878 22.9253Z" fill="#2ABAEA"/>
<path d="M13.8696 14.006L12.018 19.1227L9.99727 14.0359C9.99727 14.0359 9.69863 13.0703 8.85249 13.0703C7.87695 13.0703 7.90681 13.8468 7.8869 14.0359C7.86699 14.225 7.8869 21.9896 7.8869 21.9896C7.8869 21.9896 7.87695 22.8059 8.77286 22.8059C9.68868 22.8059 9.64886 21.9796 9.64886 21.9796V17.8784L11.142 21.9796C11.142 21.9796 11.361 22.786 12.0479 22.776C12.7348 22.7661 12.9339 21.9796 12.9339 21.9796L14.1782 17.8883V21.9796C14.1782 21.9796 14.1782 22.8059 15.084 22.8059C15.96 22.8059 15.96 21.9796 15.96 21.9796V14.0359C15.96 14.0359 15.96 13.0604 15.0144 13.0703C14.228 13.0803 13.9293 13.8368 13.8696 14.006C13.8696 14.026 13.8696 14.0359 13.8696 14.0359V14.006Z" fill="#2ABAEA"/>
<path d="M51 25.9416H35.3415H23.844L23.8539 25.9515C19.4142 31.1578 11.5899 31.775 6.38366 27.3352C1.17743 22.8955 0.550294 15.0812 4.99003 9.87493C9.42976 4.6687 17.254 4.04156 22.4603 8.49125C22.968 8.92925 23.4458 9.39711 23.8738 9.91475H26.3625C21.9526 3.30492 13.0034 1.52306 6.39362 5.94288C-0.216207 10.3627 -1.98812 19.3119 2.43171 25.9217C6.85153 32.5315 15.7907 34.3034 22.4005 29.8836C23.3363 29.2565 24.1924 28.5298 24.9589 27.7035L49.8154 27.6836L51 25.9416Z" fill="#2ABAEA"/>
<path d="M30.1647 17.5897C30.2145 17.52 30.8117 17.0422 30.762 15.7481C30.6624 13.14 28.4027 13.1699 27.8951 13.15C27.0887 13.1301 26.601 13.14 25.1177 13.15C23.8635 13.1599 23.8734 14.3047 23.8734 14.3047V22.8059H28.0941C30.3538 22.8059 31.19 21.5616 31.19 19.8195C31.19 18.0775 30.1647 17.5897 30.1647 17.5897ZM25.6951 14.9517H28.0245C28.4923 14.9617 28.9801 15.2106 28.9801 15.9074C28.9801 16.6341 28.5521 16.863 28.0245 16.863H25.6951V14.9517ZM28.1937 21.0738H25.6951V18.6847H28.1937C28.8009 18.7146 29.3882 19.0232 29.3882 19.8793C29.3882 20.7553 28.8507 21.0738 28.1937 21.0738Z" fill="#334B66"/>
</svg>
