<svg width="52" height="52" viewBox="0 0 52 52" fill="none" xmlns="http://www.w3.org/2000/svg">
<path d="M49.3172 52H2.68284C1.19931 51.9792 0 50.1696 0 47.9336V4.0664C0 1.82 1.21317 0 2.71057 0H49.2894C50.7868 0 52 1.82 52 4.0664V47.944C51.9931 50.1696 50.8007 51.9792 49.3172 52Z" fill="#EF809F"/>
<path d="M11.7721 45.232C13.3786 45.232 14.6071 44.1547 14.6071 42.5766C14.6071 41.1118 13.5676 40.4787 12.2918 40.1007C11.4791 39.8644 10.9688 39.6849 10.9688 39.1084C10.9688 38.6265 11.3185 38.2485 11.876 38.2485C12.3485 38.2485 12.6982 38.5225 12.9533 38.9383L14.2858 38.0973C13.87 37.1806 12.9344 36.7081 11.9233 36.7081C10.3168 36.7081 9.29616 37.861 9.29616 39.2029C9.29616 40.2708 9.93876 41.0929 11.5169 41.556C12.3769 41.8017 12.925 41.9718 12.925 42.6522C12.925 43.2948 12.4619 43.6917 11.791 43.6917C11.0728 43.6917 10.5247 43.2286 10.1939 42.8034L9.08826 43.909C9.68361 44.7217 10.6475 45.232 11.7721 45.232ZM18.2642 45.232C16.5632 45.232 15.1835 43.8712 15.1835 42.2175C15.1835 40.5637 16.5632 39.2029 18.2642 39.2029C19.9652 39.2029 21.3449 40.5637 21.3449 42.2175C21.3449 43.8712 19.9652 45.232 18.2642 45.232ZM18.2642 43.72C19.0864 43.72 19.7384 43.068 19.7384 42.2175C19.7384 41.367 19.0864 40.7149 18.2642 40.7149C17.4326 40.7149 16.79 41.367 16.79 42.2175C16.79 43.0774 17.4421 43.72 18.2642 43.72ZM25.3234 38.3241V36.8121H25.0871C23.131 36.8121 22.1671 38.1162 22.1671 39.6471V45.0808H23.7736V42.6994C23.7736 41.9056 24.3878 41.3386 25.2761 41.3197V39.7888C24.643 39.7888 24.1327 39.9778 23.7736 40.3558V39.7416C23.7736 38.7399 24.4256 38.2863 25.3234 38.3241ZM28.8293 45.232C27.1283 45.232 25.7486 43.8712 25.7486 42.2175C25.7486 40.5637 27.1283 39.2029 28.8293 39.2029C30.5303 39.2029 31.91 40.5637 31.91 42.2175C31.91 43.8712 30.5303 45.232 28.8293 45.232ZM28.8293 43.72C29.6609 43.72 30.3035 43.068 30.3035 42.2175C30.3035 41.367 29.6515 40.7149 28.8293 40.7149C28.0072 40.7149 27.3551 41.367 27.3551 42.2175C27.3551 43.0774 28.0072 43.72 28.8293 43.72ZM34.3387 40.0156V39.3636H32.7794V45.0808H34.3859V42.4726C34.3859 41.5276 34.9435 40.9984 35.9074 40.9984V39.2785C35.1797 39.2502 34.66 39.4959 34.3387 40.0156ZM38.44 42.1608V40.7622C38.7991 41.1402 39.2999 41.3292 39.9425 41.3292V39.8077C39.0731 39.7888 38.44 39.2029 38.44 38.428V37.5303H36.8335V42.2553C36.8335 43.7862 37.7879 45.0903 39.7535 45.0903H39.9898V43.5783C39.092 43.6066 38.44 43.1625 38.44 42.1608ZM41.9081 45.1753C42.494 45.1753 42.9854 44.6934 42.9854 44.098C42.9854 43.5121 42.5035 43.0207 41.9081 43.0207C41.3128 43.0207 40.8308 43.5027 40.8308 44.098C40.8308 44.6934 41.3128 45.1753 41.9081 45.1753Z" fill="white"/>
<path d="M23.3956 24.9618C23.8965 25.4532 23.9059 26.2565 23.4145 26.7573L23.32 26.8613C22.8286 27.3621 22.0254 27.3716 21.5245 26.8802L18.6895 24.0735C17.9052 23.2892 17.8012 22.3253 18.2926 21.815L18.3871 21.711C18.7935 21.2858 19.4644 21.248 19.9275 21.6071C20.1448 21.7772 20.4661 21.7394 20.6457 21.522C20.8158 21.3047 20.778 20.9834 20.5606 20.8038C19.6818 20.114 18.4249 20.199 17.65 20.9928L17.5555 21.0968C16.6389 22.0418 16.8184 23.6388 17.9619 24.7823L20.8063 27.6173C21.723 28.4961 23.1688 28.4772 24.0571 27.57L24.1611 27.4661C25.0305 26.5589 25.0116 25.1225 24.1138 24.2342C23.9154 24.0357 23.5941 24.0357 23.3956 24.2436C23.1877 24.4421 23.1877 24.7634 23.3956 24.9618ZM21.6946 9.73786L22.857 19.2824C22.8853 19.5564 23.1405 19.7643 23.424 19.7265C23.698 19.6982 23.9059 19.443 23.8681 19.1595L22.7058 9.57721L22.6963 9.52051C22.4979 8.72671 22.9893 7.83841 23.6508 7.69666C24.0193 7.62106 24.4068 7.68721 24.7186 7.89511C25.0305 8.10301 25.2478 8.42431 25.3234 8.79286L27.3457 17.4302C27.4119 17.7042 27.6859 17.8743 27.96 17.8082C28.234 17.742 28.4041 17.468 28.338 17.1939L26.3251 8.58496C26.2023 7.96126 25.8243 7.40371 25.2856 7.04461C24.747 6.68551 24.076 6.56266 23.4429 6.69496C22.1955 6.95956 21.3828 8.41486 21.6946 9.73786Z" fill="white"/>
<path d="M32.3542 20.9456L34.6506 9.51105C34.9152 8.28255 34.1875 7.0446 32.9685 6.6855C31.6077 6.3453 30.2375 7.1391 29.8878 8.481L27.3457 17.1845C27.2701 17.4585 27.4213 17.742 27.6954 17.8176C27.9694 17.8932 28.253 17.742 28.3286 17.468L30.8706 8.75505C31.0879 7.9518 31.9007 7.46985 32.6945 7.6683C33.3749 7.8762 33.8001 8.58495 33.6489 9.30315L31.3526 20.7471C31.2959 21.0212 31.4754 21.2952 31.7494 21.3519C32.033 21.3992 32.307 21.2196 32.3542 20.9456ZM26.5803 31.9643C22.9421 31.9643 19.9086 29.2994 19.9086 25.5099C19.9086 25.2264 19.6818 24.9996 19.3983 24.9996C19.1148 24.9996 18.888 25.2264 18.888 25.5099C18.888 29.8947 22.4129 32.9849 26.5803 32.9849C26.8638 32.9849 27.0906 32.7581 27.0906 32.4746C27.0906 32.1911 26.8638 31.9643 26.5803 31.9643ZM24.7848 23.0529C24.7092 23.3364 24.5297 23.5916 24.284 23.7522L24.1706 23.8184C23.5847 24.2153 22.7909 24.0641 22.394 23.4782L20.1637 20.1612C19.5589 19.2351 19.6346 18.2712 20.2205 17.8649L20.3244 17.7893C21.0804 17.3546 21.7135 17.6853 22.3656 18.6398L24.2272 21.4181C24.3879 21.6543 24.6997 21.711 24.936 21.5598C25.1722 21.4086 25.2289 21.0873 25.0777 20.8511L23.2161 18.0728C22.29 16.7309 21.156 16.1355 19.7857 16.9293L19.644 17.0238C18.5478 17.7704 18.4155 19.3769 19.3132 20.7282L21.5435 24.0546C22.2617 25.1036 23.6792 25.3776 24.7281 24.6689L24.8415 24.5933C25.2856 24.2909 25.6069 23.8373 25.7581 23.3175C25.8337 23.0435 25.6731 22.7694 25.3991 22.6938C25.1345 22.6182 24.8604 22.7789 24.7848 23.0529Z" fill="white"/>
<path d="M28.1589 24.735C27.1005 25.3304 26.439 26.436 26.3634 28.1276C26.3445 28.4111 26.5619 28.6473 26.8454 28.6662C27.1289 28.6757 27.3651 28.4678 27.384 28.1843C27.4596 26.6534 28.055 25.8312 29.0094 25.4721C29.5197 25.2831 30.0773 25.2453 30.5687 25.2926L30.6915 25.3115C31.3436 25.4343 31.5515 24.461 30.8994 24.3098L26.9777 23.4309C25.1444 22.9301 24.8609 22.2497 25.2011 21.1157C25.3523 20.6243 25.6452 20.3691 26.1083 20.2652C26.4107 20.199 26.7414 20.2085 27.0627 20.2652C27.1572 20.2841 27.2234 20.2935 27.2517 20.303L33.2052 21.6921L33.3186 21.7299C33.4131 21.7677 33.5171 21.8433 33.621 21.9473C34.0179 22.3725 34.2447 23.1758 34.1313 24.4988C33.7439 29.1293 31.5893 32.0021 26.4674 31.9548C26.1839 31.9548 25.9571 32.1816 25.9571 32.4557C25.9571 32.7392 26.1839 32.966 26.4579 32.966C32.2035 33.0132 34.7172 29.6774 35.1425 24.5744C35.2748 22.9868 34.9818 21.9 34.3676 21.248C34.0274 20.8889 33.6683 20.7188 33.3942 20.681L27.5069 19.3107C27.4691 19.3013 27.3746 19.2729 27.2423 19.254C26.7981 19.1784 26.3351 19.169 25.8815 19.2635C25.0877 19.443 24.4829 19.9439 24.2277 20.8133C23.7363 22.4481 24.2561 23.7333 26.732 24.4043L28.1589 24.735Z" fill="white"/>
</svg>
